%TF.GenerationSoftware,KiCad,Pcbnew,(5.1.9)-1*%
%TF.CreationDate,2021-11-17T10:25:35-03:00*%
%TF.ProjectId,MODULO-IoT,4d4f4455-4c4f-42d4-996f-542e6b696361,rev?*%
%TF.SameCoordinates,Original*%
%TF.FileFunction,Other,Fab,Top*%
%FSLAX46Y46*%
G04 Gerber Fmt 4.6, Leading zero omitted, Abs format (unit mm)*
G04 Created by KiCad (PCBNEW (5.1.9)-1) date 2021-11-17 10:25:35*
%MOMM*%
%LPD*%
G01*
G04 APERTURE LIST*
%ADD10C,0.100000*%
%ADD11C,0.280000*%
%ADD12C,0.127000*%
%ADD13C,0.150000*%
G04 APERTURE END LIST*
D10*
%TO.C,J4*%
X86690200Y-131572000D02*
X84785200Y-131572000D01*
X84785200Y-131572000D02*
X84785200Y-126492000D01*
X84785200Y-126492000D02*
X87325200Y-126492000D01*
X87325200Y-126492000D02*
X87325200Y-130937000D01*
X87325200Y-130937000D02*
X86690200Y-131572000D01*
%TO.C,D3*%
X95685600Y-142036800D02*
G75*
G03*
X95685600Y-142036800I-1350000J0D01*
G01*
X94335600Y-142036800D02*
X94335600Y-144576800D01*
%TO.C,J10*%
X164974400Y-143052800D02*
G75*
G03*
X164974400Y-143052800I-1500000J0D01*
G01*
X170054400Y-143052800D02*
G75*
G03*
X170054400Y-143052800I-1500000J0D01*
G01*
X160934400Y-137852800D02*
X171094400Y-137852800D01*
X171094400Y-137852800D02*
X171094400Y-147652800D01*
X171094400Y-147652800D02*
X161434400Y-147652800D01*
X161434400Y-147652800D02*
X160934400Y-147152800D01*
X160934400Y-147152800D02*
X160934400Y-137852800D01*
X160934400Y-147152800D02*
X171094400Y-147152800D01*
X160934400Y-145652800D02*
X171094400Y-145652800D01*
X160934400Y-140752800D02*
X171094400Y-140752800D01*
X164612400Y-142097800D02*
X162519400Y-144190800D01*
X164429400Y-141914800D02*
X162336400Y-144007800D01*
X169692400Y-142097800D02*
X167600400Y-144190800D01*
X169509400Y-141914800D02*
X167417400Y-144007800D01*
%TO.C,J9*%
X177623600Y-143002000D02*
G75*
G03*
X177623600Y-143002000I-1500000J0D01*
G01*
X182703600Y-143002000D02*
G75*
G03*
X182703600Y-143002000I-1500000J0D01*
G01*
X173583600Y-137802000D02*
X183743600Y-137802000D01*
X183743600Y-137802000D02*
X183743600Y-147602000D01*
X183743600Y-147602000D02*
X174083600Y-147602000D01*
X174083600Y-147602000D02*
X173583600Y-147102000D01*
X173583600Y-147102000D02*
X173583600Y-137802000D01*
X173583600Y-147102000D02*
X183743600Y-147102000D01*
X173583600Y-145602000D02*
X183743600Y-145602000D01*
X173583600Y-140702000D02*
X183743600Y-140702000D01*
X177261600Y-142047000D02*
X175168600Y-144140000D01*
X177078600Y-141864000D02*
X174985600Y-143957000D01*
X182341600Y-142047000D02*
X180249600Y-144140000D01*
X182158600Y-141864000D02*
X180066600Y-143957000D01*
%TO.C,J8*%
X190323600Y-143002000D02*
G75*
G03*
X190323600Y-143002000I-1500000J0D01*
G01*
X195403600Y-143002000D02*
G75*
G03*
X195403600Y-143002000I-1500000J0D01*
G01*
X186283600Y-137802000D02*
X196443600Y-137802000D01*
X196443600Y-137802000D02*
X196443600Y-147602000D01*
X196443600Y-147602000D02*
X186783600Y-147602000D01*
X186783600Y-147602000D02*
X186283600Y-147102000D01*
X186283600Y-147102000D02*
X186283600Y-137802000D01*
X186283600Y-147102000D02*
X196443600Y-147102000D01*
X186283600Y-145602000D02*
X196443600Y-145602000D01*
X186283600Y-140702000D02*
X196443600Y-140702000D01*
X189961600Y-142047000D02*
X187868600Y-144140000D01*
X189778600Y-141864000D02*
X187685600Y-143957000D01*
X195041600Y-142047000D02*
X192949600Y-144140000D01*
X194858600Y-141864000D02*
X192766600Y-143957000D01*
%TO.C,K3*%
X182086000Y-72927600D02*
X182086000Y-63927600D01*
X177536000Y-69427600D02*
X178536000Y-68427600D01*
X177536000Y-76677600D02*
X177536000Y-69427600D01*
X200036000Y-76677600D02*
X177536000Y-76677600D01*
X200036000Y-60177600D02*
X200036000Y-76677600D01*
X177536000Y-60177600D02*
X200036000Y-60177600D01*
X177536000Y-67427600D02*
X177536000Y-60177600D01*
X178536000Y-68427600D02*
X177536000Y-67427600D01*
%TO.C,R7*%
X135432800Y-76352400D02*
X135432800Y-78282400D01*
X135432800Y-86512400D02*
X135432800Y-84582400D01*
X134182800Y-78282400D02*
X134182800Y-84582400D01*
X136682800Y-78282400D02*
X134182800Y-78282400D01*
X136682800Y-84582400D02*
X136682800Y-78282400D01*
X134182800Y-84582400D02*
X136682800Y-84582400D01*
%TO.C,J12*%
X126095800Y-51988000D02*
X128187800Y-49895000D01*
X125912800Y-51805000D02*
X128004800Y-49712000D01*
X131175800Y-51988000D02*
X133268800Y-49895000D01*
X130992800Y-51805000D02*
X133085800Y-49712000D01*
X134670800Y-53150000D02*
X124510800Y-53150000D01*
X134670800Y-48250000D02*
X124510800Y-48250000D01*
X134670800Y-46750000D02*
X124510800Y-46750000D01*
X134670800Y-46750000D02*
X134670800Y-56050000D01*
X134170800Y-46250000D02*
X134670800Y-46750000D01*
X124510800Y-46250000D02*
X134170800Y-46250000D01*
X124510800Y-56050000D02*
X124510800Y-46250000D01*
X134670800Y-56050000D02*
X124510800Y-56050000D01*
X128550800Y-50850000D02*
G75*
G03*
X128550800Y-50850000I-1500000J0D01*
G01*
X133630800Y-50850000D02*
G75*
G03*
X133630800Y-50850000I-1500000J0D01*
G01*
%TO.C,K2*%
X159276800Y-72876800D02*
X159276800Y-63876800D01*
X154726800Y-69376800D02*
X155726800Y-68376800D01*
X154726800Y-76626800D02*
X154726800Y-69376800D01*
X177226800Y-76626800D02*
X154726800Y-76626800D01*
X177226800Y-60126800D02*
X177226800Y-76626800D01*
X154726800Y-60126800D02*
X177226800Y-60126800D01*
X154726800Y-67376800D02*
X154726800Y-60126800D01*
X155726800Y-68376800D02*
X154726800Y-67376800D01*
%TO.C,J16*%
X178165800Y-51988000D02*
X180257800Y-49895000D01*
X177982800Y-51805000D02*
X180074800Y-49712000D01*
X183245800Y-51988000D02*
X185338800Y-49895000D01*
X183062800Y-51805000D02*
X185155800Y-49712000D01*
X186740800Y-53150000D02*
X176580800Y-53150000D01*
X186740800Y-48250000D02*
X176580800Y-48250000D01*
X186740800Y-46750000D02*
X176580800Y-46750000D01*
X186740800Y-46750000D02*
X186740800Y-56050000D01*
X186240800Y-46250000D02*
X186740800Y-46750000D01*
X176580800Y-46250000D02*
X186240800Y-46250000D01*
X176580800Y-56050000D02*
X176580800Y-46250000D01*
X186740800Y-56050000D02*
X176580800Y-56050000D01*
X180620800Y-50850000D02*
G75*
G03*
X180620800Y-50850000I-1500000J0D01*
G01*
X185700800Y-50850000D02*
G75*
G03*
X185700800Y-50850000I-1500000J0D01*
G01*
%TO.C,U7*%
X153476200Y-123291600D02*
X158826200Y-123291600D01*
X158826200Y-123291600D02*
X158826200Y-130911600D01*
X158826200Y-130911600D02*
X152476200Y-130911600D01*
X152476200Y-130911600D02*
X152476200Y-124291600D01*
X152476200Y-124291600D02*
X153476200Y-123291600D01*
%TO.C,D1*%
X173228000Y-80568800D02*
X175768000Y-80568800D01*
X174578000Y-80568800D02*
G75*
G03*
X174578000Y-80568800I-1350000J0D01*
G01*
%TO.C,D2*%
X151057600Y-65989200D02*
G75*
G03*
X151057600Y-65989200I-1350000J0D01*
G01*
X149707600Y-65989200D02*
X149707600Y-63449200D01*
%TO.C,J1*%
X202976400Y-81188600D02*
X205069400Y-83280600D01*
X203159400Y-81005600D02*
X205252400Y-83097600D01*
X202976400Y-86268600D02*
X205069400Y-88360600D01*
X203159400Y-86085600D02*
X205252400Y-88177600D01*
X202976400Y-91348600D02*
X205069400Y-93440600D01*
X203159400Y-91165600D02*
X205252400Y-93257600D01*
X202976400Y-96428600D02*
X205069400Y-98521600D01*
X203159400Y-96245600D02*
X205252400Y-98338600D01*
X201814400Y-99923600D02*
X201814400Y-79603600D01*
X206714400Y-99923600D02*
X206714400Y-79603600D01*
X208214400Y-99923600D02*
X208214400Y-79603600D01*
X208214400Y-99923600D02*
X198914400Y-99923600D01*
X208714400Y-99423600D02*
X208214400Y-99923600D01*
X208714400Y-79603600D02*
X208714400Y-99423600D01*
X198914400Y-79603600D02*
X208714400Y-79603600D01*
X198914400Y-99923600D02*
X198914400Y-79603600D01*
X205614400Y-82143600D02*
G75*
G03*
X205614400Y-82143600I-1500000J0D01*
G01*
X205614400Y-87223600D02*
G75*
G03*
X205614400Y-87223600I-1500000J0D01*
G01*
X205614400Y-92303600D02*
G75*
G03*
X205614400Y-92303600I-1500000J0D01*
G01*
X205614400Y-97383600D02*
G75*
G03*
X205614400Y-97383600I-1500000J0D01*
G01*
%TO.C,J2*%
X187045600Y-100457000D02*
X187045600Y-98552000D01*
X187045600Y-98552000D02*
X192125600Y-98552000D01*
X192125600Y-98552000D02*
X192125600Y-101092000D01*
X192125600Y-101092000D02*
X187680600Y-101092000D01*
X187680600Y-101092000D02*
X187045600Y-100457000D01*
%TO.C,J5*%
X200077200Y-127965200D02*
G75*
G03*
X200077200Y-127965200I-1500000J0D01*
G01*
X200077200Y-122885200D02*
G75*
G03*
X200077200Y-122885200I-1500000J0D01*
G01*
X200077200Y-117805200D02*
G75*
G03*
X200077200Y-117805200I-1500000J0D01*
G01*
X200077200Y-112725200D02*
G75*
G03*
X200077200Y-112725200I-1500000J0D01*
G01*
X193377200Y-130505200D02*
X193377200Y-110185200D01*
X193377200Y-110185200D02*
X203177200Y-110185200D01*
X203177200Y-110185200D02*
X203177200Y-130005200D01*
X203177200Y-130005200D02*
X202677200Y-130505200D01*
X202677200Y-130505200D02*
X193377200Y-130505200D01*
X202677200Y-130505200D02*
X202677200Y-110185200D01*
X201177200Y-130505200D02*
X201177200Y-110185200D01*
X196277200Y-130505200D02*
X196277200Y-110185200D01*
X197622200Y-126827200D02*
X199715200Y-128920200D01*
X197439200Y-127010200D02*
X199532200Y-129103200D01*
X197622200Y-121747200D02*
X199715200Y-123839200D01*
X197439200Y-121930200D02*
X199532200Y-124022200D01*
X197622200Y-116667200D02*
X199715200Y-118759200D01*
X197439200Y-116850200D02*
X199532200Y-118942200D01*
X197622200Y-111587200D02*
X199715200Y-113679200D01*
X197439200Y-111770200D02*
X199532200Y-113862200D01*
%TO.C,J17*%
X190865800Y-51988000D02*
X192957800Y-49895000D01*
X190682800Y-51805000D02*
X192774800Y-49712000D01*
X195945800Y-51988000D02*
X198038800Y-49895000D01*
X195762800Y-51805000D02*
X197855800Y-49712000D01*
X199440800Y-53150000D02*
X189280800Y-53150000D01*
X199440800Y-48250000D02*
X189280800Y-48250000D01*
X199440800Y-46750000D02*
X189280800Y-46750000D01*
X199440800Y-46750000D02*
X199440800Y-56050000D01*
X198940800Y-46250000D02*
X199440800Y-46750000D01*
X189280800Y-46250000D02*
X198940800Y-46250000D01*
X189280800Y-56050000D02*
X189280800Y-46250000D01*
X199440800Y-56050000D02*
X189280800Y-56050000D01*
X193320800Y-50850000D02*
G75*
G03*
X193320800Y-50850000I-1500000J0D01*
G01*
X198400800Y-50850000D02*
G75*
G03*
X198400800Y-50850000I-1500000J0D01*
G01*
%TO.C,J7*%
X135763000Y-96367600D02*
X136398000Y-97002600D01*
X126238000Y-96367600D02*
X135763000Y-96367600D01*
X126238000Y-98907600D02*
X126238000Y-96367600D01*
X136398000Y-98907600D02*
X126238000Y-98907600D01*
X136398000Y-97002600D02*
X136398000Y-98907600D01*
%TO.C,R1*%
X140259200Y-139730800D02*
X140259200Y-137230800D01*
X140259200Y-137230800D02*
X133959200Y-137230800D01*
X133959200Y-137230800D02*
X133959200Y-139730800D01*
X133959200Y-139730800D02*
X140259200Y-139730800D01*
X142189200Y-138480800D02*
X140259200Y-138480800D01*
X132029200Y-138480800D02*
X133959200Y-138480800D01*
%TO.C,R2*%
X132130800Y-134416800D02*
X134060800Y-134416800D01*
X142290800Y-134416800D02*
X140360800Y-134416800D01*
X134060800Y-135666800D02*
X140360800Y-135666800D01*
X134060800Y-133166800D02*
X134060800Y-135666800D01*
X140360800Y-133166800D02*
X134060800Y-133166800D01*
X140360800Y-135666800D02*
X140360800Y-133166800D01*
%TO.C,R3*%
X140310000Y-131755200D02*
X140310000Y-129255200D01*
X140310000Y-129255200D02*
X134010000Y-129255200D01*
X134010000Y-129255200D02*
X134010000Y-131755200D01*
X134010000Y-131755200D02*
X140310000Y-131755200D01*
X142240000Y-130505200D02*
X140310000Y-130505200D01*
X132080000Y-130505200D02*
X134010000Y-130505200D01*
%TO.C,R5*%
X146202400Y-102565200D02*
X146202400Y-100635200D01*
X146202400Y-92405200D02*
X146202400Y-94335200D01*
X147452400Y-100635200D02*
X147452400Y-94335200D01*
X144952400Y-100635200D02*
X147452400Y-100635200D01*
X144952400Y-94335200D02*
X144952400Y-100635200D01*
X147452400Y-94335200D02*
X144952400Y-94335200D01*
%TO.C,R6*%
X154686000Y-102463600D02*
X154686000Y-100533600D01*
X154686000Y-92303600D02*
X154686000Y-94233600D01*
X155936000Y-100533600D02*
X155936000Y-94233600D01*
X153436000Y-100533600D02*
X155936000Y-100533600D01*
X153436000Y-94233600D02*
X153436000Y-100533600D01*
X155936000Y-94233600D02*
X153436000Y-94233600D01*
%TO.C,R8*%
X163372800Y-102463600D02*
X163372800Y-100533600D01*
X163372800Y-92303600D02*
X163372800Y-94233600D01*
X164622800Y-100533600D02*
X164622800Y-94233600D01*
X162122800Y-100533600D02*
X164622800Y-100533600D01*
X162122800Y-94233600D02*
X162122800Y-100533600D01*
X164622800Y-94233600D02*
X162122800Y-94233600D01*
%TO.C,Interno*%
X94444000Y-77339200D02*
X93444000Y-78339200D01*
X94444000Y-77339200D02*
X94444000Y-66339200D01*
X88944000Y-66339200D02*
X94444000Y-66339200D01*
X88944000Y-78339200D02*
X88944000Y-66339200D01*
X93444000Y-78339200D02*
X88944000Y-78339200D01*
D11*
%TO.C,U1*%
X89426000Y-90336000D02*
G75*
G03*
X89426000Y-90336000I-140000J0D01*
G01*
X89426000Y-90336000D02*
G75*
G03*
X89426000Y-90336000I-140000J0D01*
G01*
D12*
X89936000Y-137486000D02*
X89936000Y-83086000D01*
X117836000Y-137486000D02*
X89936000Y-137486000D01*
X117836000Y-83086000D02*
X117836000Y-137486000D01*
X89936000Y-83086000D02*
X117836000Y-83086000D01*
D10*
%TO.C,U2*%
X133781800Y-109813600D02*
X134781800Y-108813600D01*
X133781800Y-124053600D02*
X133781800Y-109813600D01*
X140131800Y-124053600D02*
X133781800Y-124053600D01*
X140131800Y-108813600D02*
X140131800Y-124053600D01*
X134781800Y-108813600D02*
X140131800Y-108813600D01*
%TO.C,U3*%
X174405800Y-101854000D02*
X179755800Y-101854000D01*
X179755800Y-101854000D02*
X179755800Y-109474000D01*
X179755800Y-109474000D02*
X173405800Y-109474000D01*
X173405800Y-109474000D02*
X173405800Y-102854000D01*
X173405800Y-102854000D02*
X174405800Y-101854000D01*
%TO.C,U4*%
X173101000Y-113674400D02*
X174101000Y-112674400D01*
X173101000Y-120294400D02*
X173101000Y-113674400D01*
X179451000Y-120294400D02*
X173101000Y-120294400D01*
X179451000Y-112674400D02*
X179451000Y-120294400D01*
X174101000Y-112674400D02*
X179451000Y-112674400D01*
%TO.C,U5*%
X173694600Y-123647200D02*
X179044600Y-123647200D01*
X179044600Y-123647200D02*
X179044600Y-131267200D01*
X179044600Y-131267200D02*
X172694600Y-131267200D01*
X172694600Y-131267200D02*
X172694600Y-124647200D01*
X172694600Y-124647200D02*
X173694600Y-123647200D01*
%TO.C,U6*%
X152019000Y-113064800D02*
X153019000Y-112064800D01*
X152019000Y-119684800D02*
X152019000Y-113064800D01*
X158369000Y-119684800D02*
X152019000Y-119684800D01*
X158369000Y-112064800D02*
X158369000Y-119684800D01*
X153019000Y-112064800D02*
X158369000Y-112064800D01*
%TO.C,U8*%
X148971000Y-136026400D02*
X149971000Y-135026400D01*
X148971000Y-142646400D02*
X148971000Y-136026400D01*
X155321000Y-142646400D02*
X148971000Y-142646400D01*
X155321000Y-135026400D02*
X155321000Y-142646400D01*
X149971000Y-135026400D02*
X155321000Y-135026400D01*
%TO.C,F1*%
X185314400Y-82637200D02*
X192414400Y-82637200D01*
X185314400Y-79637200D02*
X185314400Y-82637200D01*
X192414400Y-79637200D02*
X185314400Y-79637200D01*
X192414400Y-82637200D02*
X192414400Y-79637200D01*
%TO.C,F2*%
X192617600Y-88428400D02*
X192617600Y-85428400D01*
X192617600Y-85428400D02*
X185517600Y-85428400D01*
X185517600Y-85428400D02*
X185517600Y-88428400D01*
X185517600Y-88428400D02*
X192617600Y-88428400D01*
%TO.C,F3*%
X185619200Y-94473600D02*
X192719200Y-94473600D01*
X185619200Y-91473600D02*
X185619200Y-94473600D01*
X192719200Y-91473600D02*
X185619200Y-91473600D01*
X192719200Y-94473600D02*
X192719200Y-91473600D01*
%TO.C,U9*%
X106146600Y-64347600D02*
X107146600Y-63347600D01*
X106146600Y-78587600D02*
X106146600Y-64347600D01*
X112496600Y-78587600D02*
X106146600Y-78587600D01*
X112496600Y-63347600D02*
X112496600Y-78587600D01*
X107146600Y-63347600D02*
X112496600Y-63347600D01*
%TO.C,J3*%
X104648000Y-142570200D02*
X104648000Y-144475200D01*
X104648000Y-144475200D02*
X99568000Y-144475200D01*
X99568000Y-144475200D02*
X99568000Y-141935200D01*
X99568000Y-141935200D02*
X104013000Y-141935200D01*
X104013000Y-141935200D02*
X104648000Y-142570200D01*
%TO.C,Q1*%
X159378400Y-86182000D02*
X156128400Y-86182000D01*
X159378400Y-82982000D02*
X156128400Y-82982000D01*
X159378400Y-88582000D02*
X159378400Y-80582000D01*
X156128400Y-88582000D02*
X159378400Y-88582000D01*
X156128400Y-80582000D02*
X156128400Y-88582000D01*
X159378400Y-80582000D02*
X156128400Y-80582000D01*
%TO.C,Q3*%
X169380400Y-87865200D02*
X169380400Y-91115200D01*
X169380400Y-91115200D02*
X177380400Y-91115200D01*
X177380400Y-91115200D02*
X177380400Y-87865200D01*
X177380400Y-87865200D02*
X169380400Y-87865200D01*
X171780400Y-87865200D02*
X171780400Y-91115200D01*
X174980400Y-87865200D02*
X174980400Y-91115200D01*
%TO.C,J13*%
X146635600Y-50850000D02*
G75*
G03*
X146635600Y-50850000I-1500000J0D01*
G01*
X141555600Y-50850000D02*
G75*
G03*
X141555600Y-50850000I-1500000J0D01*
G01*
X147675600Y-56050000D02*
X137515600Y-56050000D01*
X137515600Y-56050000D02*
X137515600Y-46250000D01*
X137515600Y-46250000D02*
X147175600Y-46250000D01*
X147175600Y-46250000D02*
X147675600Y-46750000D01*
X147675600Y-46750000D02*
X147675600Y-56050000D01*
X147675600Y-46750000D02*
X137515600Y-46750000D01*
X147675600Y-48250000D02*
X137515600Y-48250000D01*
X147675600Y-53150000D02*
X137515600Y-53150000D01*
X143997600Y-51805000D02*
X146090600Y-49712000D01*
X144180600Y-51988000D02*
X146273600Y-49895000D01*
X138917600Y-51805000D02*
X141009600Y-49712000D01*
X139100600Y-51988000D02*
X141192600Y-49895000D01*
%TO.C,J14*%
X152308600Y-51988000D02*
X154400600Y-49895000D01*
X152125600Y-51805000D02*
X154217600Y-49712000D01*
X157388600Y-51988000D02*
X159481600Y-49895000D01*
X157205600Y-51805000D02*
X159298600Y-49712000D01*
X160883600Y-53150000D02*
X150723600Y-53150000D01*
X160883600Y-48250000D02*
X150723600Y-48250000D01*
X160883600Y-46750000D02*
X150723600Y-46750000D01*
X160883600Y-46750000D02*
X160883600Y-56050000D01*
X160383600Y-46250000D02*
X160883600Y-46750000D01*
X150723600Y-46250000D02*
X160383600Y-46250000D01*
X150723600Y-56050000D02*
X150723600Y-46250000D01*
X160883600Y-56050000D02*
X150723600Y-56050000D01*
X154763600Y-50850000D02*
G75*
G03*
X154763600Y-50850000I-1500000J0D01*
G01*
X159843600Y-50850000D02*
G75*
G03*
X159843600Y-50850000I-1500000J0D01*
G01*
%TO.C,J15*%
X172645200Y-50850000D02*
G75*
G03*
X172645200Y-50850000I-1500000J0D01*
G01*
X167565200Y-50850000D02*
G75*
G03*
X167565200Y-50850000I-1500000J0D01*
G01*
X173685200Y-56050000D02*
X163525200Y-56050000D01*
X163525200Y-56050000D02*
X163525200Y-46250000D01*
X163525200Y-46250000D02*
X173185200Y-46250000D01*
X173185200Y-46250000D02*
X173685200Y-46750000D01*
X173685200Y-46750000D02*
X173685200Y-56050000D01*
X173685200Y-46750000D02*
X163525200Y-46750000D01*
X173685200Y-48250000D02*
X163525200Y-48250000D01*
X173685200Y-53150000D02*
X163525200Y-53150000D01*
X170007200Y-51805000D02*
X172100200Y-49712000D01*
X170190200Y-51988000D02*
X172283200Y-49895000D01*
X164927200Y-51805000D02*
X167019200Y-49712000D01*
X165110200Y-51988000D02*
X167202200Y-49895000D01*
%TO.C,J11*%
X120981600Y-50850000D02*
G75*
G03*
X120981600Y-50850000I-1500000J0D01*
G01*
X115981600Y-50850000D02*
G75*
G03*
X115981600Y-50850000I-1500000J0D01*
G01*
X110981600Y-50850000D02*
G75*
G03*
X110981600Y-50850000I-1500000J0D01*
G01*
X105981600Y-50850000D02*
G75*
G03*
X105981600Y-50850000I-1500000J0D01*
G01*
X100981600Y-50850000D02*
G75*
G03*
X100981600Y-50850000I-1500000J0D01*
G01*
X95981600Y-50850000D02*
G75*
G03*
X95981600Y-50850000I-1500000J0D01*
G01*
X121981600Y-56050000D02*
X91981600Y-56050000D01*
X91981600Y-56050000D02*
X91981600Y-46250000D01*
X91981600Y-46250000D02*
X121481600Y-46250000D01*
X121481600Y-46250000D02*
X121981600Y-46750000D01*
X121981600Y-46750000D02*
X121981600Y-56050000D01*
X121981600Y-46750000D02*
X91981600Y-46750000D01*
X121981600Y-48250000D02*
X91981600Y-48250000D01*
X121981600Y-53150000D02*
X91981600Y-53150000D01*
X118343600Y-51805000D02*
X120436600Y-49712000D01*
X118526600Y-51988000D02*
X120619600Y-49895000D01*
X113343600Y-51805000D02*
X115435600Y-49712000D01*
X113526600Y-51988000D02*
X115618600Y-49895000D01*
X108343600Y-51805000D02*
X110435600Y-49712000D01*
X108526600Y-51988000D02*
X110618600Y-49895000D01*
X103343600Y-51805000D02*
X105435600Y-49712000D01*
X103526600Y-51988000D02*
X105618600Y-49895000D01*
X98343600Y-51805000D02*
X100435600Y-49712000D01*
X98526600Y-51988000D02*
X100618600Y-49895000D01*
X93343600Y-51805000D02*
X95435600Y-49712000D01*
X93526600Y-51988000D02*
X95618600Y-49895000D01*
%TO.C,R4*%
X91312800Y-62026800D02*
G75*
G03*
X91312800Y-62026800I-1600000J0D01*
G01*
X89712800Y-62026800D02*
X94792800Y-62026800D01*
%TO.C,R9*%
X126441200Y-62179200D02*
X121361200Y-62179200D01*
X128041200Y-62179200D02*
G75*
G03*
X128041200Y-62179200I-1600000J0D01*
G01*
%TO.C,R10*%
X127888800Y-67614800D02*
G75*
G03*
X127888800Y-67614800I-1600000J0D01*
G01*
X126288800Y-67614800D02*
X121208800Y-67614800D01*
%TO.C,R11*%
X126085600Y-79248000D02*
X121005600Y-79248000D01*
X127685600Y-79248000D02*
G75*
G03*
X127685600Y-79248000I-1600000J0D01*
G01*
%TO.C,R12*%
X127736400Y-73406000D02*
G75*
G03*
X127736400Y-73406000I-1600000J0D01*
G01*
X126136400Y-73406000D02*
X121056400Y-73406000D01*
%TO.C,R14*%
X151409200Y-72542400D02*
G75*
G03*
X151409200Y-72542400I-1600000J0D01*
G01*
X149809200Y-72542400D02*
X149809200Y-77622400D01*
%TO.C,R15*%
X165557200Y-84277200D02*
X165557200Y-79197200D01*
X167157200Y-84277200D02*
G75*
G03*
X167157200Y-84277200I-1600000J0D01*
G01*
%TD*%
%TO.C,J4*%
D13*
X85483771Y-124884380D02*
X85007580Y-124884380D01*
X84959961Y-125360571D01*
X85007580Y-125312952D01*
X85102819Y-125265333D01*
X85340914Y-125265333D01*
X85436152Y-125312952D01*
X85483771Y-125360571D01*
X85531390Y-125455809D01*
X85531390Y-125693904D01*
X85483771Y-125789142D01*
X85436152Y-125836761D01*
X85340914Y-125884380D01*
X85102819Y-125884380D01*
X85007580Y-125836761D01*
X84959961Y-125789142D01*
X86579009Y-124884380D02*
X86912342Y-125884380D01*
X87245676Y-124884380D01*
X85507580Y-129365333D02*
X86221866Y-129365333D01*
X86364723Y-129412952D01*
X86459961Y-129508190D01*
X86507580Y-129651047D01*
X86507580Y-129746285D01*
X85840914Y-128460571D02*
X86507580Y-128460571D01*
X85459961Y-128698666D02*
X86174247Y-128936761D01*
X86174247Y-128317714D01*
%TO.C,D3*%
X91428980Y-145282990D02*
X90428980Y-145282990D01*
X90428980Y-145044895D01*
X90476600Y-144902038D01*
X90571838Y-144806800D01*
X90667076Y-144759180D01*
X90857552Y-144711561D01*
X91000409Y-144711561D01*
X91190885Y-144759180D01*
X91286123Y-144806800D01*
X91381361Y-144902038D01*
X91428980Y-145044895D01*
X91428980Y-145282990D01*
X91428980Y-144282990D02*
X90428980Y-144282990D01*
X90428980Y-143616323D02*
X90428980Y-143425847D01*
X90476600Y-143330609D01*
X90571838Y-143235371D01*
X90762314Y-143187752D01*
X91095647Y-143187752D01*
X91286123Y-143235371D01*
X91381361Y-143330609D01*
X91428980Y-143425847D01*
X91428980Y-143616323D01*
X91381361Y-143711561D01*
X91286123Y-143806800D01*
X91095647Y-143854419D01*
X90762314Y-143854419D01*
X90571838Y-143806800D01*
X90476600Y-143711561D01*
X90428980Y-143616323D01*
X91428980Y-142759180D02*
X90428980Y-142759180D01*
X90428980Y-142521085D01*
X90476600Y-142378228D01*
X90571838Y-142282990D01*
X90667076Y-142235371D01*
X90857552Y-142187752D01*
X91000409Y-142187752D01*
X91190885Y-142235371D01*
X91286123Y-142282990D01*
X91381361Y-142378228D01*
X91428980Y-142521085D01*
X91428980Y-142759180D01*
X90905171Y-141759180D02*
X90905171Y-141425847D01*
X91428980Y-141282990D02*
X91428980Y-141759180D01*
X90428980Y-141759180D01*
X90428980Y-141282990D01*
X94502266Y-146714895D02*
X94502266Y-146238704D01*
X94787980Y-146810133D02*
X93787980Y-146476800D01*
X94787980Y-146143466D01*
X97257980Y-144044895D02*
X96257980Y-144044895D01*
X96257980Y-143806800D01*
X96305600Y-143663942D01*
X96400838Y-143568704D01*
X96496076Y-143521085D01*
X96686552Y-143473466D01*
X96829409Y-143473466D01*
X97019885Y-143521085D01*
X97115123Y-143568704D01*
X97210361Y-143663942D01*
X97257980Y-143806800D01*
X97257980Y-144044895D01*
X96257980Y-143140133D02*
X96257980Y-142521085D01*
X96638933Y-142854419D01*
X96638933Y-142711561D01*
X96686552Y-142616323D01*
X96734171Y-142568704D01*
X96829409Y-142521085D01*
X97067504Y-142521085D01*
X97162742Y-142568704D01*
X97210361Y-142616323D01*
X97257980Y-142711561D01*
X97257980Y-142997276D01*
X97210361Y-143092514D01*
X97162742Y-143140133D01*
%TO.C,J10*%
X165001676Y-138949180D02*
X165001676Y-139663466D01*
X164954057Y-139806323D01*
X164858819Y-139901561D01*
X164715961Y-139949180D01*
X164620723Y-139949180D01*
X166001676Y-139949180D02*
X165430247Y-139949180D01*
X165715961Y-139949180D02*
X165715961Y-138949180D01*
X165620723Y-139092038D01*
X165525485Y-139187276D01*
X165430247Y-139234895D01*
X166620723Y-138949180D02*
X166715961Y-138949180D01*
X166811200Y-138996800D01*
X166858819Y-139044419D01*
X166906438Y-139139657D01*
X166954057Y-139330133D01*
X166954057Y-139568228D01*
X166906438Y-139758704D01*
X166858819Y-139853942D01*
X166811200Y-139901561D01*
X166715961Y-139949180D01*
X166620723Y-139949180D01*
X166525485Y-139901561D01*
X166477866Y-139853942D01*
X166430247Y-139758704D01*
X166382628Y-139568228D01*
X166382628Y-139330133D01*
X166430247Y-139139657D01*
X166477866Y-139044419D01*
X166525485Y-138996800D01*
X166620723Y-138949180D01*
%TO.C,J9*%
X178431866Y-138593580D02*
X178431866Y-139307866D01*
X178384247Y-139450723D01*
X178289009Y-139545961D01*
X178146152Y-139593580D01*
X178050914Y-139593580D01*
X178955676Y-139593580D02*
X179146152Y-139593580D01*
X179241390Y-139545961D01*
X179289009Y-139498342D01*
X179384247Y-139355485D01*
X179431866Y-139165009D01*
X179431866Y-138784057D01*
X179384247Y-138688819D01*
X179336628Y-138641200D01*
X179241390Y-138593580D01*
X179050914Y-138593580D01*
X178955676Y-138641200D01*
X178908057Y-138688819D01*
X178860438Y-138784057D01*
X178860438Y-139022152D01*
X178908057Y-139117390D01*
X178955676Y-139165009D01*
X179050914Y-139212628D01*
X179241390Y-139212628D01*
X179336628Y-139165009D01*
X179384247Y-139117390D01*
X179431866Y-139022152D01*
%TO.C,J8*%
X191182666Y-138491980D02*
X191182666Y-139206266D01*
X191135047Y-139349123D01*
X191039809Y-139444361D01*
X190896952Y-139491980D01*
X190801714Y-139491980D01*
X191801714Y-138920552D02*
X191706476Y-138872933D01*
X191658857Y-138825314D01*
X191611238Y-138730076D01*
X191611238Y-138682457D01*
X191658857Y-138587219D01*
X191706476Y-138539600D01*
X191801714Y-138491980D01*
X191992190Y-138491980D01*
X192087428Y-138539600D01*
X192135047Y-138587219D01*
X192182666Y-138682457D01*
X192182666Y-138730076D01*
X192135047Y-138825314D01*
X192087428Y-138872933D01*
X191992190Y-138920552D01*
X191801714Y-138920552D01*
X191706476Y-138968171D01*
X191658857Y-139015790D01*
X191611238Y-139111028D01*
X191611238Y-139301504D01*
X191658857Y-139396742D01*
X191706476Y-139444361D01*
X191801714Y-139491980D01*
X191992190Y-139491980D01*
X192087428Y-139444361D01*
X192135047Y-139396742D01*
X192182666Y-139301504D01*
X192182666Y-139111028D01*
X192135047Y-139015790D01*
X192087428Y-138968171D01*
X191992190Y-138920552D01*
%TO.C,K3*%
X197061200Y-69549733D02*
X197013580Y-69644971D01*
X197013580Y-69787828D01*
X197061200Y-69930685D01*
X197156438Y-70025923D01*
X197251676Y-70073542D01*
X197442152Y-70121161D01*
X197585009Y-70121161D01*
X197775485Y-70073542D01*
X197870723Y-70025923D01*
X197965961Y-69930685D01*
X198013580Y-69787828D01*
X198013580Y-69692590D01*
X197965961Y-69549733D01*
X197918342Y-69502114D01*
X197585009Y-69502114D01*
X197585009Y-69692590D01*
X197013580Y-68597352D02*
X197013580Y-69073542D01*
X197489771Y-69121161D01*
X197442152Y-69073542D01*
X197394533Y-68978304D01*
X197394533Y-68740209D01*
X197442152Y-68644971D01*
X197489771Y-68597352D01*
X197585009Y-68549733D01*
X197823104Y-68549733D01*
X197918342Y-68597352D01*
X197965961Y-68644971D01*
X198013580Y-68740209D01*
X198013580Y-68978304D01*
X197965961Y-69073542D01*
X197918342Y-69121161D01*
X198108819Y-67454495D02*
X198061200Y-67549733D01*
X197965961Y-67644971D01*
X197823104Y-67787828D01*
X197775485Y-67883066D01*
X197775485Y-67978304D01*
X198013580Y-67930685D02*
X197965961Y-68025923D01*
X197870723Y-68121161D01*
X197680247Y-68168780D01*
X197346914Y-68168780D01*
X197156438Y-68121161D01*
X197061200Y-68025923D01*
X197013580Y-67930685D01*
X197013580Y-67740209D01*
X197061200Y-67644971D01*
X197156438Y-67549733D01*
X197346914Y-67502114D01*
X197680247Y-67502114D01*
X197870723Y-67549733D01*
X197965961Y-67644971D01*
X198013580Y-67740209D01*
X198013580Y-67930685D01*
X197632628Y-67073542D02*
X197632628Y-66311638D01*
X198013580Y-65311638D02*
X198013580Y-65883066D01*
X198013580Y-65597352D02*
X197013580Y-65597352D01*
X197156438Y-65692590D01*
X197251676Y-65787828D01*
X197299295Y-65883066D01*
X189238380Y-69165695D02*
X188238380Y-69165695D01*
X189238380Y-68594266D02*
X188666952Y-69022838D01*
X188238380Y-68594266D02*
X188809809Y-69165695D01*
X188238380Y-68260933D02*
X188238380Y-67641885D01*
X188619333Y-67975219D01*
X188619333Y-67832361D01*
X188666952Y-67737123D01*
X188714571Y-67689504D01*
X188809809Y-67641885D01*
X189047904Y-67641885D01*
X189143142Y-67689504D01*
X189190761Y-67737123D01*
X189238380Y-67832361D01*
X189238380Y-68118076D01*
X189190761Y-68213314D01*
X189143142Y-68260933D01*
%TO.C,R7*%
X138255180Y-82503828D02*
X138255180Y-83075257D01*
X138255180Y-82789542D02*
X137255180Y-82789542D01*
X137398038Y-82884780D01*
X137493276Y-82980019D01*
X137540895Y-83075257D01*
X137255180Y-81884780D02*
X137255180Y-81789542D01*
X137302800Y-81694304D01*
X137350419Y-81646685D01*
X137445657Y-81599066D01*
X137636133Y-81551447D01*
X137874228Y-81551447D01*
X138064704Y-81599066D01*
X138159942Y-81646685D01*
X138207561Y-81694304D01*
X138255180Y-81789542D01*
X138255180Y-81884780D01*
X138207561Y-81980019D01*
X138159942Y-82027638D01*
X138064704Y-82075257D01*
X137874228Y-82122876D01*
X137636133Y-82122876D01*
X137445657Y-82075257D01*
X137350419Y-82027638D01*
X137302800Y-81980019D01*
X137255180Y-81884780D01*
X138255180Y-80360971D02*
X137255180Y-80360971D01*
X138255180Y-79789542D02*
X137683752Y-80218114D01*
X137255180Y-79789542D02*
X137826609Y-80360971D01*
X135885180Y-81599066D02*
X135408990Y-81932400D01*
X135885180Y-82170495D02*
X134885180Y-82170495D01*
X134885180Y-81789542D01*
X134932800Y-81694304D01*
X134980419Y-81646685D01*
X135075657Y-81599066D01*
X135218514Y-81599066D01*
X135313752Y-81646685D01*
X135361371Y-81694304D01*
X135408990Y-81789542D01*
X135408990Y-82170495D01*
X134885180Y-81265733D02*
X134885180Y-80599066D01*
X135885180Y-81027638D01*
%TO.C,J12*%
X128781276Y-47102380D02*
X128781276Y-47816666D01*
X128733657Y-47959523D01*
X128638419Y-48054761D01*
X128495561Y-48102380D01*
X128400323Y-48102380D01*
X129781276Y-48102380D02*
X129209847Y-48102380D01*
X129495561Y-48102380D02*
X129495561Y-47102380D01*
X129400323Y-47245238D01*
X129305085Y-47340476D01*
X129209847Y-47388095D01*
X130162228Y-47197619D02*
X130209847Y-47150000D01*
X130305085Y-47102380D01*
X130543180Y-47102380D01*
X130638419Y-47150000D01*
X130686038Y-47197619D01*
X130733657Y-47292857D01*
X130733657Y-47388095D01*
X130686038Y-47530952D01*
X130114609Y-48102380D01*
X130733657Y-48102380D01*
%TO.C,K2*%
X175217200Y-70464133D02*
X175169580Y-70559371D01*
X175169580Y-70702228D01*
X175217200Y-70845085D01*
X175312438Y-70940323D01*
X175407676Y-70987942D01*
X175598152Y-71035561D01*
X175741009Y-71035561D01*
X175931485Y-70987942D01*
X176026723Y-70940323D01*
X176121961Y-70845085D01*
X176169580Y-70702228D01*
X176169580Y-70606990D01*
X176121961Y-70464133D01*
X176074342Y-70416514D01*
X175741009Y-70416514D01*
X175741009Y-70606990D01*
X175169580Y-69511752D02*
X175169580Y-69987942D01*
X175645771Y-70035561D01*
X175598152Y-69987942D01*
X175550533Y-69892704D01*
X175550533Y-69654609D01*
X175598152Y-69559371D01*
X175645771Y-69511752D01*
X175741009Y-69464133D01*
X175979104Y-69464133D01*
X176074342Y-69511752D01*
X176121961Y-69559371D01*
X176169580Y-69654609D01*
X176169580Y-69892704D01*
X176121961Y-69987942D01*
X176074342Y-70035561D01*
X176264819Y-68368895D02*
X176217200Y-68464133D01*
X176121961Y-68559371D01*
X175979104Y-68702228D01*
X175931485Y-68797466D01*
X175931485Y-68892704D01*
X176169580Y-68845085D02*
X176121961Y-68940323D01*
X176026723Y-69035561D01*
X175836247Y-69083180D01*
X175502914Y-69083180D01*
X175312438Y-69035561D01*
X175217200Y-68940323D01*
X175169580Y-68845085D01*
X175169580Y-68654609D01*
X175217200Y-68559371D01*
X175312438Y-68464133D01*
X175502914Y-68416514D01*
X175836247Y-68416514D01*
X176026723Y-68464133D01*
X176121961Y-68559371D01*
X176169580Y-68654609D01*
X176169580Y-68845085D01*
X175788628Y-67987942D02*
X175788628Y-67226038D01*
X176169580Y-66226038D02*
X176169580Y-66797466D01*
X176169580Y-66511752D02*
X175169580Y-66511752D01*
X175312438Y-66606990D01*
X175407676Y-66702228D01*
X175455295Y-66797466D01*
X168498780Y-69114895D02*
X167498780Y-69114895D01*
X168498780Y-68543466D02*
X167927352Y-68972038D01*
X167498780Y-68543466D02*
X168070209Y-69114895D01*
X167594019Y-68162514D02*
X167546400Y-68114895D01*
X167498780Y-68019657D01*
X167498780Y-67781561D01*
X167546400Y-67686323D01*
X167594019Y-67638704D01*
X167689257Y-67591085D01*
X167784495Y-67591085D01*
X167927352Y-67638704D01*
X168498780Y-68210133D01*
X168498780Y-67591085D01*
%TO.C,J16*%
X180851276Y-47102380D02*
X180851276Y-47816666D01*
X180803657Y-47959523D01*
X180708419Y-48054761D01*
X180565561Y-48102380D01*
X180470323Y-48102380D01*
X181851276Y-48102380D02*
X181279847Y-48102380D01*
X181565561Y-48102380D02*
X181565561Y-47102380D01*
X181470323Y-47245238D01*
X181375085Y-47340476D01*
X181279847Y-47388095D01*
X182708419Y-47102380D02*
X182517942Y-47102380D01*
X182422704Y-47150000D01*
X182375085Y-47197619D01*
X182279847Y-47340476D01*
X182232228Y-47530952D01*
X182232228Y-47911904D01*
X182279847Y-48007142D01*
X182327466Y-48054761D01*
X182422704Y-48102380D01*
X182613180Y-48102380D01*
X182708419Y-48054761D01*
X182756038Y-48007142D01*
X182803657Y-47911904D01*
X182803657Y-47673809D01*
X182756038Y-47578571D01*
X182708419Y-47530952D01*
X182613180Y-47483333D01*
X182422704Y-47483333D01*
X182327466Y-47530952D01*
X182279847Y-47578571D01*
X182232228Y-47673809D01*
%TO.C,U7*%
X151817866Y-132423980D02*
X151817866Y-131423980D01*
X152151200Y-132138266D01*
X152484533Y-131423980D01*
X152484533Y-132423980D01*
X153151200Y-131423980D02*
X153341676Y-131423980D01*
X153436914Y-131471600D01*
X153532152Y-131566838D01*
X153579771Y-131757314D01*
X153579771Y-132090647D01*
X153532152Y-132281123D01*
X153436914Y-132376361D01*
X153341676Y-132423980D01*
X153151200Y-132423980D01*
X153055961Y-132376361D01*
X152960723Y-132281123D01*
X152913104Y-132090647D01*
X152913104Y-131757314D01*
X152960723Y-131566838D01*
X153055961Y-131471600D01*
X153151200Y-131423980D01*
X154579771Y-132328742D02*
X154532152Y-132376361D01*
X154389295Y-132423980D01*
X154294057Y-132423980D01*
X154151200Y-132376361D01*
X154055961Y-132281123D01*
X154008342Y-132185885D01*
X153960723Y-131995409D01*
X153960723Y-131852552D01*
X154008342Y-131662076D01*
X154055961Y-131566838D01*
X154151200Y-131471600D01*
X154294057Y-131423980D01*
X154389295Y-131423980D01*
X154532152Y-131471600D01*
X154579771Y-131519219D01*
X154913104Y-131423980D02*
X155532152Y-131423980D01*
X155198819Y-131804933D01*
X155341676Y-131804933D01*
X155436914Y-131852552D01*
X155484533Y-131900171D01*
X155532152Y-131995409D01*
X155532152Y-132233504D01*
X155484533Y-132328742D01*
X155436914Y-132376361D01*
X155341676Y-132423980D01*
X155055961Y-132423980D01*
X154960723Y-132376361D01*
X154913104Y-132328742D01*
X156151200Y-131423980D02*
X156246438Y-131423980D01*
X156341676Y-131471600D01*
X156389295Y-131519219D01*
X156436914Y-131614457D01*
X156484533Y-131804933D01*
X156484533Y-132043028D01*
X156436914Y-132233504D01*
X156389295Y-132328742D01*
X156341676Y-132376361D01*
X156246438Y-132423980D01*
X156151200Y-132423980D01*
X156055961Y-132376361D01*
X156008342Y-132328742D01*
X155960723Y-132233504D01*
X155913104Y-132043028D01*
X155913104Y-131804933D01*
X155960723Y-131614457D01*
X156008342Y-131519219D01*
X156055961Y-131471600D01*
X156151200Y-131423980D01*
X157341676Y-131423980D02*
X157151200Y-131423980D01*
X157055961Y-131471600D01*
X157008342Y-131519219D01*
X156913104Y-131662076D01*
X156865485Y-131852552D01*
X156865485Y-132233504D01*
X156913104Y-132328742D01*
X156960723Y-132376361D01*
X157055961Y-132423980D01*
X157246438Y-132423980D01*
X157341676Y-132376361D01*
X157389295Y-132328742D01*
X157436914Y-132233504D01*
X157436914Y-131995409D01*
X157389295Y-131900171D01*
X157341676Y-131852552D01*
X157246438Y-131804933D01*
X157055961Y-131804933D01*
X156960723Y-131852552D01*
X156913104Y-131900171D01*
X156865485Y-131995409D01*
X157770247Y-131423980D02*
X158389295Y-131423980D01*
X158055961Y-131804933D01*
X158198819Y-131804933D01*
X158294057Y-131852552D01*
X158341676Y-131900171D01*
X158389295Y-131995409D01*
X158389295Y-132233504D01*
X158341676Y-132328742D01*
X158294057Y-132376361D01*
X158198819Y-132423980D01*
X157913104Y-132423980D01*
X157817866Y-132376361D01*
X157770247Y-132328742D01*
X158817866Y-132423980D02*
X158817866Y-131423980D01*
X159151200Y-132138266D01*
X159484533Y-131423980D01*
X159484533Y-132423980D01*
X154889295Y-126553980D02*
X154889295Y-127363504D01*
X154936914Y-127458742D01*
X154984533Y-127506361D01*
X155079771Y-127553980D01*
X155270247Y-127553980D01*
X155365485Y-127506361D01*
X155413104Y-127458742D01*
X155460723Y-127363504D01*
X155460723Y-126553980D01*
X155841676Y-126553980D02*
X156508342Y-126553980D01*
X156079771Y-127553980D01*
%TO.C,D1*%
X172471009Y-83611980D02*
X172471009Y-82611980D01*
X172709104Y-82611980D01*
X172851961Y-82659600D01*
X172947200Y-82754838D01*
X172994819Y-82850076D01*
X173042438Y-83040552D01*
X173042438Y-83183409D01*
X172994819Y-83373885D01*
X172947200Y-83469123D01*
X172851961Y-83564361D01*
X172709104Y-83611980D01*
X172471009Y-83611980D01*
X173471009Y-83611980D02*
X173471009Y-82611980D01*
X174137676Y-82611980D02*
X174328152Y-82611980D01*
X174423390Y-82659600D01*
X174518628Y-82754838D01*
X174566247Y-82945314D01*
X174566247Y-83278647D01*
X174518628Y-83469123D01*
X174423390Y-83564361D01*
X174328152Y-83611980D01*
X174137676Y-83611980D01*
X174042438Y-83564361D01*
X173947200Y-83469123D01*
X173899580Y-83278647D01*
X173899580Y-82945314D01*
X173947200Y-82754838D01*
X174042438Y-82659600D01*
X174137676Y-82611980D01*
X174994819Y-83611980D02*
X174994819Y-82611980D01*
X175232914Y-82611980D01*
X175375771Y-82659600D01*
X175471009Y-82754838D01*
X175518628Y-82850076D01*
X175566247Y-83040552D01*
X175566247Y-83183409D01*
X175518628Y-83373885D01*
X175471009Y-83469123D01*
X175375771Y-83564361D01*
X175232914Y-83611980D01*
X174994819Y-83611980D01*
X175994819Y-83088171D02*
X176328152Y-83088171D01*
X176471009Y-83611980D02*
X175994819Y-83611980D01*
X175994819Y-82611980D01*
X176471009Y-82611980D01*
X173759904Y-78551180D02*
X173759904Y-77551180D01*
X173998000Y-77551180D01*
X174140857Y-77598800D01*
X174236095Y-77694038D01*
X174283714Y-77789276D01*
X174331333Y-77979752D01*
X174331333Y-78122609D01*
X174283714Y-78313085D01*
X174236095Y-78408323D01*
X174140857Y-78503561D01*
X173998000Y-78551180D01*
X173759904Y-78551180D01*
X175283714Y-78551180D02*
X174712285Y-78551180D01*
X174998000Y-78551180D02*
X174998000Y-77551180D01*
X174902761Y-77694038D01*
X174807523Y-77789276D01*
X174712285Y-77836895D01*
X177429904Y-80735466D02*
X177906095Y-80735466D01*
X177334666Y-81021180D02*
X177668000Y-80021180D01*
X178001333Y-81021180D01*
%TO.C,D2*%
X153518980Y-66695390D02*
X152518980Y-66695390D01*
X152518980Y-66457295D01*
X152566600Y-66314438D01*
X152661838Y-66219200D01*
X152757076Y-66171580D01*
X152947552Y-66123961D01*
X153090409Y-66123961D01*
X153280885Y-66171580D01*
X153376123Y-66219200D01*
X153471361Y-66314438D01*
X153518980Y-66457295D01*
X153518980Y-66695390D01*
X153518980Y-65695390D02*
X152518980Y-65695390D01*
X152518980Y-65028723D02*
X152518980Y-64838247D01*
X152566600Y-64743009D01*
X152661838Y-64647771D01*
X152852314Y-64600152D01*
X153185647Y-64600152D01*
X153376123Y-64647771D01*
X153471361Y-64743009D01*
X153518980Y-64838247D01*
X153518980Y-65028723D01*
X153471361Y-65123961D01*
X153376123Y-65219200D01*
X153185647Y-65266819D01*
X152852314Y-65266819D01*
X152661838Y-65219200D01*
X152566600Y-65123961D01*
X152518980Y-65028723D01*
X153518980Y-64171580D02*
X152518980Y-64171580D01*
X152518980Y-63933485D01*
X152566600Y-63790628D01*
X152661838Y-63695390D01*
X152757076Y-63647771D01*
X152947552Y-63600152D01*
X153090409Y-63600152D01*
X153280885Y-63647771D01*
X153376123Y-63695390D01*
X153471361Y-63790628D01*
X153518980Y-63933485D01*
X153518980Y-64171580D01*
X152995171Y-63171580D02*
X152995171Y-62838247D01*
X153518980Y-62695390D02*
X153518980Y-63171580D01*
X152518980Y-63171580D01*
X152518980Y-62695390D01*
X149874266Y-61787295D02*
X149874266Y-61311104D01*
X150159980Y-61882533D02*
X149159980Y-61549200D01*
X150159980Y-61215866D01*
X147689980Y-65457295D02*
X146689980Y-65457295D01*
X146689980Y-65219200D01*
X146737600Y-65076342D01*
X146832838Y-64981104D01*
X146928076Y-64933485D01*
X147118552Y-64885866D01*
X147261409Y-64885866D01*
X147451885Y-64933485D01*
X147547123Y-64981104D01*
X147642361Y-65076342D01*
X147689980Y-65219200D01*
X147689980Y-65457295D01*
X146785219Y-64504914D02*
X146737600Y-64457295D01*
X146689980Y-64362057D01*
X146689980Y-64123961D01*
X146737600Y-64028723D01*
X146785219Y-63981104D01*
X146880457Y-63933485D01*
X146975695Y-63933485D01*
X147118552Y-63981104D01*
X147689980Y-64552533D01*
X147689980Y-63933485D01*
%TO.C,J1*%
X200010780Y-90046133D02*
X200725066Y-90046133D01*
X200867923Y-90093752D01*
X200963161Y-90188990D01*
X201010780Y-90331847D01*
X201010780Y-90427085D01*
X201010780Y-89046133D02*
X201010780Y-89617561D01*
X201010780Y-89331847D02*
X200010780Y-89331847D01*
X200153638Y-89427085D01*
X200248876Y-89522323D01*
X200296495Y-89617561D01*
%TO.C,J2*%
X188372952Y-101909619D02*
X188420571Y-101862000D01*
X188515809Y-101814380D01*
X188753904Y-101814380D01*
X188849142Y-101862000D01*
X188896761Y-101909619D01*
X188944380Y-102004857D01*
X188944380Y-102100095D01*
X188896761Y-102242952D01*
X188325333Y-102814380D01*
X188944380Y-102814380D01*
X189325333Y-101909619D02*
X189372952Y-101862000D01*
X189468190Y-101814380D01*
X189706285Y-101814380D01*
X189801523Y-101862000D01*
X189849142Y-101909619D01*
X189896761Y-102004857D01*
X189896761Y-102100095D01*
X189849142Y-102242952D01*
X189277714Y-102814380D01*
X189896761Y-102814380D01*
X190515809Y-101814380D02*
X190611047Y-101814380D01*
X190706285Y-101862000D01*
X190753904Y-101909619D01*
X190801523Y-102004857D01*
X190849142Y-102195333D01*
X190849142Y-102433428D01*
X190801523Y-102623904D01*
X190753904Y-102719142D01*
X190706285Y-102766761D01*
X190611047Y-102814380D01*
X190515809Y-102814380D01*
X190420571Y-102766761D01*
X190372952Y-102719142D01*
X190325333Y-102623904D01*
X190277714Y-102433428D01*
X190277714Y-102195333D01*
X190325333Y-102004857D01*
X190372952Y-101909619D01*
X190420571Y-101862000D01*
X190515809Y-101814380D01*
X191182476Y-102147714D02*
X191420571Y-102814380D01*
X191658666Y-102147714D01*
X189557066Y-96581980D02*
X189557066Y-97296266D01*
X189509447Y-97439123D01*
X189414209Y-97534361D01*
X189271352Y-97581980D01*
X189176114Y-97581980D01*
X189985638Y-96677219D02*
X190033257Y-96629600D01*
X190128495Y-96581980D01*
X190366590Y-96581980D01*
X190461828Y-96629600D01*
X190509447Y-96677219D01*
X190557066Y-96772457D01*
X190557066Y-96867695D01*
X190509447Y-97010552D01*
X189938019Y-97581980D01*
X190557066Y-97581980D01*
%TO.C,J5*%
X204165771Y-126083295D02*
X204165771Y-125749961D01*
X204689580Y-125607104D02*
X204689580Y-126083295D01*
X203689580Y-126083295D01*
X203689580Y-125607104D01*
X204689580Y-125178533D02*
X203689580Y-125178533D01*
X204689580Y-124607104D01*
X203689580Y-124607104D01*
X203689580Y-124273771D02*
X203689580Y-123702342D01*
X204689580Y-123988057D02*
X203689580Y-123988057D01*
X204689580Y-122797580D02*
X204213390Y-123130914D01*
X204689580Y-123369009D02*
X203689580Y-123369009D01*
X203689580Y-122988057D01*
X203737200Y-122892819D01*
X203784819Y-122845200D01*
X203880057Y-122797580D01*
X204022914Y-122797580D01*
X204118152Y-122845200D01*
X204165771Y-122892819D01*
X204213390Y-122988057D01*
X204213390Y-123369009D01*
X204403866Y-122416628D02*
X204403866Y-121940438D01*
X204689580Y-122511866D02*
X203689580Y-122178533D01*
X204689580Y-121845200D01*
X204689580Y-121511866D02*
X203689580Y-121511866D01*
X203689580Y-121273771D01*
X203737200Y-121130914D01*
X203832438Y-121035676D01*
X203927676Y-120988057D01*
X204118152Y-120940438D01*
X204261009Y-120940438D01*
X204451485Y-120988057D01*
X204546723Y-121035676D01*
X204641961Y-121130914D01*
X204689580Y-121273771D01*
X204689580Y-121511866D01*
X204403866Y-120559485D02*
X204403866Y-120083295D01*
X204689580Y-120654723D02*
X203689580Y-120321390D01*
X204689580Y-119988057D01*
X204689580Y-118892819D02*
X203689580Y-118892819D01*
X203689580Y-118511866D01*
X203737200Y-118416628D01*
X203784819Y-118369009D01*
X203880057Y-118321390D01*
X204022914Y-118321390D01*
X204118152Y-118369009D01*
X204165771Y-118416628D01*
X204213390Y-118511866D01*
X204213390Y-118892819D01*
X203689580Y-117988057D02*
X203689580Y-117321390D01*
X204689580Y-117988057D01*
X204689580Y-117321390D01*
X204165771Y-116940438D02*
X204165771Y-116607104D01*
X204689580Y-116464247D02*
X204689580Y-116940438D01*
X203689580Y-116940438D01*
X203689580Y-116464247D01*
X204689580Y-116035676D02*
X203689580Y-116035676D01*
X204403866Y-115702342D01*
X203689580Y-115369009D01*
X204689580Y-115369009D01*
X137842666Y-95616780D02*
X137842666Y-96331066D01*
X137795047Y-96473923D01*
X137699809Y-96569161D01*
X137556952Y-96616780D01*
X137461714Y-96616780D01*
X138795047Y-95616780D02*
X138318857Y-95616780D01*
X138271238Y-96092971D01*
X138318857Y-96045352D01*
X138414095Y-95997733D01*
X138652190Y-95997733D01*
X138747428Y-96045352D01*
X138795047Y-96092971D01*
X138842666Y-96188209D01*
X138842666Y-96426304D01*
X138795047Y-96521542D01*
X138747428Y-96569161D01*
X138652190Y-96616780D01*
X138414095Y-96616780D01*
X138318857Y-96569161D01*
X138271238Y-96521542D01*
%TO.C,J17*%
X193551276Y-47102380D02*
X193551276Y-47816666D01*
X193503657Y-47959523D01*
X193408419Y-48054761D01*
X193265561Y-48102380D01*
X193170323Y-48102380D01*
X194551276Y-48102380D02*
X193979847Y-48102380D01*
X194265561Y-48102380D02*
X194265561Y-47102380D01*
X194170323Y-47245238D01*
X194075085Y-47340476D01*
X193979847Y-47388095D01*
X194884609Y-47102380D02*
X195551276Y-47102380D01*
X195122704Y-48102380D01*
%TO.C,J7*%
X125341619Y-93822780D02*
X125341619Y-92822780D01*
X125579714Y-92822780D01*
X125722571Y-92870400D01*
X125817809Y-92965638D01*
X125865428Y-93060876D01*
X125913047Y-93251352D01*
X125913047Y-93394209D01*
X125865428Y-93584685D01*
X125817809Y-93679923D01*
X125722571Y-93775161D01*
X125579714Y-93822780D01*
X125341619Y-93822780D01*
X126294000Y-93537066D02*
X126770190Y-93537066D01*
X126198761Y-93822780D02*
X126532095Y-92822780D01*
X126865428Y-93822780D01*
X127055904Y-92822780D02*
X127627333Y-92822780D01*
X127341619Y-93822780D02*
X127341619Y-92822780D01*
X128151142Y-92822780D02*
X128341619Y-92822780D01*
X128436857Y-92870400D01*
X128532095Y-92965638D01*
X128579714Y-93156114D01*
X128579714Y-93489447D01*
X128532095Y-93679923D01*
X128436857Y-93775161D01*
X128341619Y-93822780D01*
X128151142Y-93822780D01*
X128055904Y-93775161D01*
X127960666Y-93679923D01*
X127913047Y-93489447D01*
X127913047Y-93156114D01*
X127960666Y-92965638D01*
X128055904Y-92870400D01*
X128151142Y-92822780D01*
X128960666Y-93775161D02*
X129103523Y-93822780D01*
X129341619Y-93822780D01*
X129436857Y-93775161D01*
X129484476Y-93727542D01*
X129532095Y-93632304D01*
X129532095Y-93537066D01*
X129484476Y-93441828D01*
X129436857Y-93394209D01*
X129341619Y-93346590D01*
X129151142Y-93298971D01*
X129055904Y-93251352D01*
X129008285Y-93203733D01*
X128960666Y-93108495D01*
X128960666Y-93013257D01*
X129008285Y-92918019D01*
X129055904Y-92870400D01*
X129151142Y-92822780D01*
X129389238Y-92822780D01*
X129532095Y-92870400D01*
X130722571Y-93822780D02*
X130722571Y-92822780D01*
X131103523Y-92822780D01*
X131198761Y-92870400D01*
X131246380Y-92918019D01*
X131294000Y-93013257D01*
X131294000Y-93156114D01*
X131246380Y-93251352D01*
X131198761Y-93298971D01*
X131103523Y-93346590D01*
X130722571Y-93346590D01*
X131627333Y-92822780D02*
X132294000Y-92822780D01*
X131627333Y-93822780D01*
X132294000Y-93822780D01*
X132674952Y-93298971D02*
X133008285Y-93298971D01*
X133151142Y-93822780D02*
X132674952Y-93822780D01*
X132674952Y-92822780D01*
X133151142Y-92822780D01*
X133579714Y-93822780D02*
X133579714Y-92822780D01*
X133913047Y-93537066D01*
X134246380Y-92822780D01*
X134246380Y-93822780D01*
X130984666Y-97089980D02*
X130984666Y-97804266D01*
X130937047Y-97947123D01*
X130841809Y-98042361D01*
X130698952Y-98089980D01*
X130603714Y-98089980D01*
X131365619Y-97089980D02*
X132032285Y-97089980D01*
X131603714Y-98089980D01*
%TO.C,R1*%
X136661923Y-140777980D02*
X136471447Y-140777980D01*
X136376209Y-140825600D01*
X136328590Y-140873219D01*
X136233352Y-141016076D01*
X136185733Y-141206552D01*
X136185733Y-141587504D01*
X136233352Y-141682742D01*
X136280971Y-141730361D01*
X136376209Y-141777980D01*
X136566685Y-141777980D01*
X136661923Y-141730361D01*
X136709542Y-141682742D01*
X136757161Y-141587504D01*
X136757161Y-141349409D01*
X136709542Y-141254171D01*
X136661923Y-141206552D01*
X136566685Y-141158933D01*
X136376209Y-141158933D01*
X136280971Y-141206552D01*
X136233352Y-141254171D01*
X136185733Y-141349409D01*
X137376209Y-140777980D02*
X137471447Y-140777980D01*
X137566685Y-140825600D01*
X137614304Y-140873219D01*
X137661923Y-140968457D01*
X137709542Y-141158933D01*
X137709542Y-141397028D01*
X137661923Y-141587504D01*
X137614304Y-141682742D01*
X137566685Y-141730361D01*
X137471447Y-141777980D01*
X137376209Y-141777980D01*
X137280971Y-141730361D01*
X137233352Y-141682742D01*
X137185733Y-141587504D01*
X137138114Y-141397028D01*
X137138114Y-141158933D01*
X137185733Y-140968457D01*
X137233352Y-140873219D01*
X137280971Y-140825600D01*
X137376209Y-140777980D01*
X138328590Y-140777980D02*
X138423828Y-140777980D01*
X138519066Y-140825600D01*
X138566685Y-140873219D01*
X138614304Y-140968457D01*
X138661923Y-141158933D01*
X138661923Y-141397028D01*
X138614304Y-141587504D01*
X138566685Y-141682742D01*
X138519066Y-141730361D01*
X138423828Y-141777980D01*
X138328590Y-141777980D01*
X138233352Y-141730361D01*
X138185733Y-141682742D01*
X138138114Y-141587504D01*
X138090495Y-141397028D01*
X138090495Y-141158933D01*
X138138114Y-140968457D01*
X138185733Y-140873219D01*
X138233352Y-140825600D01*
X138328590Y-140777980D01*
X140042876Y-140777980D02*
X140233352Y-140777980D01*
X140328590Y-140825600D01*
X140423828Y-140920838D01*
X140471447Y-141111314D01*
X140471447Y-141444647D01*
X140423828Y-141635123D01*
X140328590Y-141730361D01*
X140233352Y-141777980D01*
X140042876Y-141777980D01*
X139947638Y-141730361D01*
X139852400Y-141635123D01*
X139804780Y-141444647D01*
X139804780Y-141111314D01*
X139852400Y-140920838D01*
X139947638Y-140825600D01*
X140042876Y-140777980D01*
X140900019Y-141777980D02*
X140900019Y-140777980D01*
X141328590Y-141777980D02*
X141328590Y-141254171D01*
X141280971Y-141158933D01*
X141185733Y-141111314D01*
X141042876Y-141111314D01*
X140947638Y-141158933D01*
X140900019Y-141206552D01*
X141804780Y-141777980D02*
X141804780Y-141111314D01*
X141804780Y-141206552D02*
X141852400Y-141158933D01*
X141947638Y-141111314D01*
X142090495Y-141111314D01*
X142185733Y-141158933D01*
X142233352Y-141254171D01*
X142233352Y-141777980D01*
X142233352Y-141254171D02*
X142280971Y-141158933D01*
X142376209Y-141111314D01*
X142519066Y-141111314D01*
X142614304Y-141158933D01*
X142661923Y-141254171D01*
X142661923Y-141777980D01*
X143090495Y-141730361D02*
X143185733Y-141777980D01*
X143376209Y-141777980D01*
X143471447Y-141730361D01*
X143519066Y-141635123D01*
X143519066Y-141587504D01*
X143471447Y-141492266D01*
X143376209Y-141444647D01*
X143233352Y-141444647D01*
X143138114Y-141397028D01*
X143090495Y-141301790D01*
X143090495Y-141254171D01*
X143138114Y-141158933D01*
X143233352Y-141111314D01*
X143376209Y-141111314D01*
X143471447Y-141158933D01*
X136891733Y-138882380D02*
X136558400Y-138406190D01*
X136320304Y-138882380D02*
X136320304Y-137882380D01*
X136701257Y-137882380D01*
X136796495Y-137930000D01*
X136844114Y-137977619D01*
X136891733Y-138072857D01*
X136891733Y-138215714D01*
X136844114Y-138310952D01*
X136796495Y-138358571D01*
X136701257Y-138406190D01*
X136320304Y-138406190D01*
X137844114Y-138882380D02*
X137272685Y-138882380D01*
X137558400Y-138882380D02*
X137558400Y-137882380D01*
X137463161Y-138025238D01*
X137367923Y-138120476D01*
X137272685Y-138168095D01*
%TO.C,R2*%
X137210800Y-132403942D02*
X137258419Y-132451561D01*
X137210800Y-132499180D01*
X137163180Y-132451561D01*
X137210800Y-132403942D01*
X137210800Y-132499180D01*
X137254734Y-134778181D02*
X136921401Y-134301991D01*
X136683305Y-134778181D02*
X136683305Y-133778181D01*
X137064258Y-133778181D01*
X137159496Y-133825801D01*
X137207115Y-133873420D01*
X137254734Y-133968658D01*
X137254734Y-134111515D01*
X137207115Y-134206753D01*
X137159496Y-134254372D01*
X137064258Y-134301991D01*
X136683305Y-134301991D01*
X137635686Y-133873420D02*
X137683305Y-133825801D01*
X137778543Y-133778181D01*
X138016639Y-133778181D01*
X138111877Y-133825801D01*
X138159496Y-133873420D01*
X138207115Y-133968658D01*
X138207115Y-134063896D01*
X138159496Y-134206753D01*
X137588067Y-134778181D01*
X138207115Y-134778181D01*
%TO.C,R3*%
X137871200Y-128677942D02*
X137918819Y-128725561D01*
X137871200Y-128773180D01*
X137823580Y-128725561D01*
X137871200Y-128677942D01*
X137871200Y-128773180D01*
X136993333Y-130957580D02*
X136660000Y-130481390D01*
X136421904Y-130957580D02*
X136421904Y-129957580D01*
X136802857Y-129957580D01*
X136898095Y-130005200D01*
X136945714Y-130052819D01*
X136993333Y-130148057D01*
X136993333Y-130290914D01*
X136945714Y-130386152D01*
X136898095Y-130433771D01*
X136802857Y-130481390D01*
X136421904Y-130481390D01*
X137326666Y-129957580D02*
X137945714Y-129957580D01*
X137612380Y-130338533D01*
X137755238Y-130338533D01*
X137850476Y-130386152D01*
X137898095Y-130433771D01*
X137945714Y-130529009D01*
X137945714Y-130767104D01*
X137898095Y-130862342D01*
X137850476Y-130909961D01*
X137755238Y-130957580D01*
X137469523Y-130957580D01*
X137374285Y-130909961D01*
X137326666Y-130862342D01*
%TO.C,R5*%
X144189542Y-97485200D02*
X144237161Y-97437580D01*
X144284780Y-97485200D01*
X144237161Y-97532819D01*
X144189542Y-97485200D01*
X144284780Y-97485200D01*
X146654780Y-97651866D02*
X146178590Y-97985200D01*
X146654780Y-98223295D02*
X145654780Y-98223295D01*
X145654780Y-97842342D01*
X145702400Y-97747104D01*
X145750019Y-97699485D01*
X145845257Y-97651866D01*
X145988114Y-97651866D01*
X146083352Y-97699485D01*
X146130971Y-97747104D01*
X146178590Y-97842342D01*
X146178590Y-98223295D01*
X145654780Y-96747104D02*
X145654780Y-97223295D01*
X146130971Y-97270914D01*
X146083352Y-97223295D01*
X146035733Y-97128057D01*
X146035733Y-96889961D01*
X146083352Y-96794723D01*
X146130971Y-96747104D01*
X146226209Y-96699485D01*
X146464304Y-96699485D01*
X146559542Y-96747104D01*
X146607161Y-96794723D01*
X146654780Y-96889961D01*
X146654780Y-97128057D01*
X146607161Y-97223295D01*
X146559542Y-97270914D01*
%TO.C,R6*%
X152673142Y-97383600D02*
X152720761Y-97335980D01*
X152768380Y-97383600D01*
X152720761Y-97431219D01*
X152673142Y-97383600D01*
X152768380Y-97383600D01*
X155138380Y-97550266D02*
X154662190Y-97883600D01*
X155138380Y-98121695D02*
X154138380Y-98121695D01*
X154138380Y-97740742D01*
X154186000Y-97645504D01*
X154233619Y-97597885D01*
X154328857Y-97550266D01*
X154471714Y-97550266D01*
X154566952Y-97597885D01*
X154614571Y-97645504D01*
X154662190Y-97740742D01*
X154662190Y-98121695D01*
X154138380Y-96693123D02*
X154138380Y-96883600D01*
X154186000Y-96978838D01*
X154233619Y-97026457D01*
X154376476Y-97121695D01*
X154566952Y-97169314D01*
X154947904Y-97169314D01*
X155043142Y-97121695D01*
X155090761Y-97074076D01*
X155138380Y-96978838D01*
X155138380Y-96788361D01*
X155090761Y-96693123D01*
X155043142Y-96645504D01*
X154947904Y-96597885D01*
X154709809Y-96597885D01*
X154614571Y-96645504D01*
X154566952Y-96693123D01*
X154519333Y-96788361D01*
X154519333Y-96978838D01*
X154566952Y-97074076D01*
X154614571Y-97121695D01*
X154709809Y-97169314D01*
%TO.C,R8*%
X166365180Y-98048628D02*
X166365180Y-98620057D01*
X166365180Y-98334342D02*
X165365180Y-98334342D01*
X165508038Y-98429580D01*
X165603276Y-98524819D01*
X165650895Y-98620057D01*
X165365180Y-97429580D02*
X165365180Y-97334342D01*
X165412800Y-97239104D01*
X165460419Y-97191485D01*
X165555657Y-97143866D01*
X165746133Y-97096247D01*
X165984228Y-97096247D01*
X166174704Y-97143866D01*
X166269942Y-97191485D01*
X166317561Y-97239104D01*
X166365180Y-97334342D01*
X166365180Y-97429580D01*
X166317561Y-97524819D01*
X166269942Y-97572438D01*
X166174704Y-97620057D01*
X165984228Y-97667676D01*
X165746133Y-97667676D01*
X165555657Y-97620057D01*
X165460419Y-97572438D01*
X165412800Y-97524819D01*
X165365180Y-97429580D01*
X166365180Y-95905771D02*
X165365180Y-95905771D01*
X166365180Y-95334342D02*
X165793752Y-95762914D01*
X165365180Y-95334342D02*
X165936609Y-95905771D01*
X163825180Y-97550266D02*
X163348990Y-97883600D01*
X163825180Y-98121695D02*
X162825180Y-98121695D01*
X162825180Y-97740742D01*
X162872800Y-97645504D01*
X162920419Y-97597885D01*
X163015657Y-97550266D01*
X163158514Y-97550266D01*
X163253752Y-97597885D01*
X163301371Y-97645504D01*
X163348990Y-97740742D01*
X163348990Y-98121695D01*
X163253752Y-96978838D02*
X163206133Y-97074076D01*
X163158514Y-97121695D01*
X163063276Y-97169314D01*
X163015657Y-97169314D01*
X162920419Y-97121695D01*
X162872800Y-97074076D01*
X162825180Y-96978838D01*
X162825180Y-96788361D01*
X162872800Y-96693123D01*
X162920419Y-96645504D01*
X163015657Y-96597885D01*
X163063276Y-96597885D01*
X163158514Y-96645504D01*
X163206133Y-96693123D01*
X163253752Y-96788361D01*
X163253752Y-96978838D01*
X163301371Y-97074076D01*
X163348990Y-97121695D01*
X163444228Y-97169314D01*
X163634704Y-97169314D01*
X163729942Y-97121695D01*
X163777561Y-97074076D01*
X163825180Y-96978838D01*
X163825180Y-96788361D01*
X163777561Y-96693123D01*
X163729942Y-96645504D01*
X163634704Y-96597885D01*
X163444228Y-96597885D01*
X163348990Y-96645504D01*
X163301371Y-96693123D01*
X163253752Y-96788361D01*
%TO.C,Interno*%
X83834552Y-67660780D02*
X83834552Y-66660780D01*
X84072647Y-66660780D01*
X84215504Y-66708400D01*
X84310742Y-66803638D01*
X84358361Y-66898876D01*
X84405980Y-67089352D01*
X84405980Y-67232209D01*
X84358361Y-67422685D01*
X84310742Y-67517923D01*
X84215504Y-67613161D01*
X84072647Y-67660780D01*
X83834552Y-67660780D01*
X84834552Y-67660780D02*
X84834552Y-66660780D01*
X84834552Y-67136971D02*
X85405980Y-67136971D01*
X85405980Y-67660780D02*
X85405980Y-66660780D01*
X85739314Y-66660780D02*
X86310742Y-66660780D01*
X86025028Y-67660780D02*
X86025028Y-66660780D01*
X87167885Y-67660780D02*
X86596457Y-67660780D01*
X86882171Y-67660780D02*
X86882171Y-66660780D01*
X86786933Y-66803638D01*
X86691695Y-66898876D01*
X86596457Y-66946495D01*
X88120266Y-67660780D02*
X87548838Y-67660780D01*
X87834552Y-67660780D02*
X87834552Y-66660780D01*
X87739314Y-66803638D01*
X87644076Y-66898876D01*
X87548838Y-66946495D01*
X83471047Y-69641980D02*
X83471047Y-68641980D01*
X83947238Y-68975314D02*
X83947238Y-69641980D01*
X83947238Y-69070552D02*
X83994857Y-69022933D01*
X84090095Y-68975314D01*
X84232952Y-68975314D01*
X84328190Y-69022933D01*
X84375809Y-69118171D01*
X84375809Y-69641980D01*
X84709142Y-68975314D02*
X85090095Y-68975314D01*
X84852000Y-68641980D02*
X84852000Y-69499123D01*
X84899619Y-69594361D01*
X84994857Y-69641980D01*
X85090095Y-69641980D01*
X85804380Y-69594361D02*
X85709142Y-69641980D01*
X85518666Y-69641980D01*
X85423428Y-69594361D01*
X85375809Y-69499123D01*
X85375809Y-69118171D01*
X85423428Y-69022933D01*
X85518666Y-68975314D01*
X85709142Y-68975314D01*
X85804380Y-69022933D01*
X85852000Y-69118171D01*
X85852000Y-69213409D01*
X85375809Y-69308647D01*
X86280571Y-69641980D02*
X86280571Y-68975314D01*
X86280571Y-69165790D02*
X86328190Y-69070552D01*
X86375809Y-69022933D01*
X86471047Y-68975314D01*
X86566285Y-68975314D01*
X86899619Y-68975314D02*
X86899619Y-69641980D01*
X86899619Y-69070552D02*
X86947238Y-69022933D01*
X87042476Y-68975314D01*
X87185333Y-68975314D01*
X87280571Y-69022933D01*
X87328190Y-69118171D01*
X87328190Y-69641980D01*
X87947238Y-69641980D02*
X87852000Y-69594361D01*
X87804380Y-69546742D01*
X87756761Y-69451504D01*
X87756761Y-69165790D01*
X87804380Y-69070552D01*
X87852000Y-69022933D01*
X87947238Y-68975314D01*
X88090095Y-68975314D01*
X88185333Y-69022933D01*
X88232952Y-69070552D01*
X88280571Y-69165790D01*
X88280571Y-69451504D01*
X88232952Y-69546742D01*
X88185333Y-69594361D01*
X88090095Y-69641980D01*
X87947238Y-69641980D01*
%TO.C,U1*%
X97009665Y-105948096D02*
X97343347Y-105948096D01*
X97486354Y-106472454D02*
X97009665Y-106472454D01*
X97009665Y-105471407D01*
X97486354Y-105471407D01*
X97867705Y-106424785D02*
X98010712Y-106472454D01*
X98249056Y-106472454D01*
X98344394Y-106424785D01*
X98392063Y-106377116D01*
X98439732Y-106281778D01*
X98439732Y-106186441D01*
X98392063Y-106091103D01*
X98344394Y-106043434D01*
X98249056Y-105995765D01*
X98058381Y-105948096D01*
X97963043Y-105900427D01*
X97915374Y-105852758D01*
X97867705Y-105757421D01*
X97867705Y-105662083D01*
X97915374Y-105566745D01*
X97963043Y-105519076D01*
X98058381Y-105471407D01*
X98296725Y-105471407D01*
X98439732Y-105519076D01*
X98868752Y-106472454D02*
X98868752Y-105471407D01*
X99250103Y-105471407D01*
X99345441Y-105519076D01*
X99393110Y-105566745D01*
X99440779Y-105662083D01*
X99440779Y-105805089D01*
X99393110Y-105900427D01*
X99345441Y-105948096D01*
X99250103Y-105995765D01*
X98868752Y-105995765D01*
X99774461Y-105471407D02*
X100394157Y-105471407D01*
X100060475Y-105852758D01*
X100203481Y-105852758D01*
X100298819Y-105900427D01*
X100346488Y-105948096D01*
X100394157Y-106043434D01*
X100394157Y-106281778D01*
X100346488Y-106377116D01*
X100298819Y-106424785D01*
X100203481Y-106472454D01*
X99917468Y-106472454D01*
X99822130Y-106424785D01*
X99774461Y-106377116D01*
X100775508Y-105566745D02*
X100823177Y-105519076D01*
X100918515Y-105471407D01*
X101156859Y-105471407D01*
X101252197Y-105519076D01*
X101299866Y-105566745D01*
X101347535Y-105662083D01*
X101347535Y-105757421D01*
X101299866Y-105900427D01*
X100727839Y-106472454D01*
X101347535Y-106472454D01*
X101776555Y-106091103D02*
X102539258Y-106091103D01*
X103015947Y-106472454D02*
X103015947Y-105471407D01*
X103254291Y-105471407D01*
X103397298Y-105519076D01*
X103492636Y-105614414D01*
X103540305Y-105709752D01*
X103587974Y-105900427D01*
X103587974Y-106043434D01*
X103540305Y-106234110D01*
X103492636Y-106329447D01*
X103397298Y-106424785D01*
X103254291Y-106472454D01*
X103015947Y-106472454D01*
X104016994Y-105948096D02*
X104350676Y-105948096D01*
X104493683Y-106472454D02*
X104016994Y-106472454D01*
X104016994Y-105471407D01*
X104493683Y-105471407D01*
X104779696Y-105471407D02*
X105113378Y-106472454D01*
X105447061Y-105471407D01*
X105780743Y-106472454D02*
X105780743Y-105471407D01*
X106352770Y-106472454D02*
X105923750Y-105900427D01*
X106352770Y-105471407D02*
X105780743Y-106043434D01*
X106781790Y-106472454D02*
X106781790Y-105471407D01*
X107115472Y-105471407D02*
X107687499Y-105471407D01*
X107401486Y-106472454D02*
X107401486Y-105471407D01*
X108593209Y-106377116D02*
X108545540Y-106424785D01*
X108402533Y-106472454D01*
X108307195Y-106472454D01*
X108164188Y-106424785D01*
X108068851Y-106329447D01*
X108021182Y-106234110D01*
X107973513Y-106043434D01*
X107973513Y-105900427D01*
X108021182Y-105709752D01*
X108068851Y-105614414D01*
X108164188Y-105519076D01*
X108307195Y-105471407D01*
X108402533Y-105471407D01*
X108545540Y-105519076D01*
X108593209Y-105566745D01*
X109022229Y-106091103D02*
X109784931Y-106091103D01*
X110166282Y-105471407D02*
X110785978Y-105471407D01*
X110452296Y-105852758D01*
X110595303Y-105852758D01*
X110690640Y-105900427D01*
X110738309Y-105948096D01*
X110785978Y-106043434D01*
X110785978Y-106281778D01*
X110738309Y-106377116D01*
X110690640Y-106424785D01*
X110595303Y-106472454D01*
X110309289Y-106472454D01*
X110213951Y-106424785D01*
X110166282Y-106377116D01*
X111167329Y-105566745D02*
X111214998Y-105519076D01*
X111310336Y-105471407D01*
X111548681Y-105471407D01*
X111644018Y-105519076D01*
X111691687Y-105566745D01*
X111739356Y-105662083D01*
X111739356Y-105757421D01*
X111691687Y-105900427D01*
X111119660Y-106472454D01*
X111739356Y-106472454D01*
X112168376Y-106472454D02*
X112168376Y-105471407D01*
X112406721Y-105471407D01*
X112549728Y-105519076D01*
X112645065Y-105614414D01*
X112692734Y-105709752D01*
X112740403Y-105900427D01*
X112740403Y-106043434D01*
X112692734Y-106234110D01*
X112645065Y-106329447D01*
X112549728Y-106424785D01*
X112406721Y-106472454D01*
X112168376Y-106472454D01*
%TO.C,U2*%
X128813942Y-125470742D02*
X128766323Y-125518361D01*
X128623466Y-125565980D01*
X128528228Y-125565980D01*
X128385371Y-125518361D01*
X128290133Y-125423123D01*
X128242514Y-125327885D01*
X128194895Y-125137409D01*
X128194895Y-124994552D01*
X128242514Y-124804076D01*
X128290133Y-124708838D01*
X128385371Y-124613600D01*
X128528228Y-124565980D01*
X128623466Y-124565980D01*
X128766323Y-124613600D01*
X128813942Y-124661219D01*
X129385371Y-125565980D02*
X129290133Y-125518361D01*
X129242514Y-125470742D01*
X129194895Y-125375504D01*
X129194895Y-125089790D01*
X129242514Y-124994552D01*
X129290133Y-124946933D01*
X129385371Y-124899314D01*
X129528228Y-124899314D01*
X129623466Y-124946933D01*
X129671085Y-124994552D01*
X129718704Y-125089790D01*
X129718704Y-125375504D01*
X129671085Y-125470742D01*
X129623466Y-125518361D01*
X129528228Y-125565980D01*
X129385371Y-125565980D01*
X130147276Y-124899314D02*
X130147276Y-125565980D01*
X130147276Y-124994552D02*
X130194895Y-124946933D01*
X130290133Y-124899314D01*
X130432990Y-124899314D01*
X130528228Y-124946933D01*
X130575847Y-125042171D01*
X130575847Y-125565980D01*
X130956800Y-124899314D02*
X131194895Y-125565980D01*
X131432990Y-124899314D01*
X132194895Y-125518361D02*
X132099657Y-125565980D01*
X131909180Y-125565980D01*
X131813942Y-125518361D01*
X131766323Y-125423123D01*
X131766323Y-125042171D01*
X131813942Y-124946933D01*
X131909180Y-124899314D01*
X132099657Y-124899314D01*
X132194895Y-124946933D01*
X132242514Y-125042171D01*
X132242514Y-125137409D01*
X131766323Y-125232647D01*
X132671085Y-125565980D02*
X132671085Y-124899314D01*
X132671085Y-125089790D02*
X132718704Y-124994552D01*
X132766323Y-124946933D01*
X132861561Y-124899314D01*
X132956800Y-124899314D01*
X133242514Y-125518361D02*
X133337752Y-125565980D01*
X133528228Y-125565980D01*
X133623466Y-125518361D01*
X133671085Y-125423123D01*
X133671085Y-125375504D01*
X133623466Y-125280266D01*
X133528228Y-125232647D01*
X133385371Y-125232647D01*
X133290133Y-125185028D01*
X133242514Y-125089790D01*
X133242514Y-125042171D01*
X133290133Y-124946933D01*
X133385371Y-124899314D01*
X133528228Y-124899314D01*
X133623466Y-124946933D01*
X134242514Y-125565980D02*
X134147276Y-125518361D01*
X134099657Y-125470742D01*
X134052038Y-125375504D01*
X134052038Y-125089790D01*
X134099657Y-124994552D01*
X134147276Y-124946933D01*
X134242514Y-124899314D01*
X134385371Y-124899314D01*
X134480609Y-124946933D01*
X134528228Y-124994552D01*
X134575847Y-125089790D01*
X134575847Y-125375504D01*
X134528228Y-125470742D01*
X134480609Y-125518361D01*
X134385371Y-125565980D01*
X134242514Y-125565980D01*
X135004419Y-125565980D02*
X135004419Y-124899314D01*
X135004419Y-125089790D02*
X135052038Y-124994552D01*
X135099657Y-124946933D01*
X135194895Y-124899314D01*
X135290133Y-124899314D01*
X135385371Y-125661219D02*
X136147276Y-125661219D01*
X136718704Y-125042171D02*
X136861561Y-125089790D01*
X136909180Y-125137409D01*
X136956800Y-125232647D01*
X136956800Y-125375504D01*
X136909180Y-125470742D01*
X136861561Y-125518361D01*
X136766323Y-125565980D01*
X136385371Y-125565980D01*
X136385371Y-124565980D01*
X136718704Y-124565980D01*
X136813942Y-124613600D01*
X136861561Y-124661219D01*
X136909180Y-124756457D01*
X136909180Y-124851695D01*
X136861561Y-124946933D01*
X136813942Y-124994552D01*
X136718704Y-125042171D01*
X136385371Y-125042171D01*
X137385371Y-125565980D02*
X137385371Y-124899314D01*
X137385371Y-124565980D02*
X137337752Y-124613600D01*
X137385371Y-124661219D01*
X137432990Y-124613600D01*
X137385371Y-124565980D01*
X137385371Y-124661219D01*
X138290133Y-125565980D02*
X138290133Y-124565980D01*
X138290133Y-125518361D02*
X138194895Y-125565980D01*
X138004419Y-125565980D01*
X137909180Y-125518361D01*
X137861561Y-125470742D01*
X137813942Y-125375504D01*
X137813942Y-125089790D01*
X137861561Y-124994552D01*
X137909180Y-124946933D01*
X138004419Y-124899314D01*
X138194895Y-124899314D01*
X138290133Y-124946933D01*
X138766323Y-125565980D02*
X138766323Y-124899314D01*
X138766323Y-124565980D02*
X138718704Y-124613600D01*
X138766323Y-124661219D01*
X138813942Y-124613600D01*
X138766323Y-124565980D01*
X138766323Y-124661219D01*
X139242514Y-125565980D02*
X139242514Y-124899314D01*
X139242514Y-125089790D02*
X139290133Y-124994552D01*
X139337752Y-124946933D01*
X139432990Y-124899314D01*
X139528228Y-124899314D01*
X140242514Y-125518361D02*
X140147276Y-125565980D01*
X139956800Y-125565980D01*
X139861561Y-125518361D01*
X139813942Y-125423123D01*
X139813942Y-125042171D01*
X139861561Y-124946933D01*
X139956800Y-124899314D01*
X140147276Y-124899314D01*
X140242514Y-124946933D01*
X140290133Y-125042171D01*
X140290133Y-125137409D01*
X139813942Y-125232647D01*
X141147276Y-125518361D02*
X141052038Y-125565980D01*
X140861561Y-125565980D01*
X140766323Y-125518361D01*
X140718704Y-125470742D01*
X140671085Y-125375504D01*
X140671085Y-125089790D01*
X140718704Y-124994552D01*
X140766323Y-124946933D01*
X140861561Y-124899314D01*
X141052038Y-124899314D01*
X141147276Y-124946933D01*
X142004419Y-125518361D02*
X141909180Y-125565980D01*
X141718704Y-125565980D01*
X141623466Y-125518361D01*
X141575847Y-125470742D01*
X141528228Y-125375504D01*
X141528228Y-125089790D01*
X141575847Y-124994552D01*
X141623466Y-124946933D01*
X141718704Y-124899314D01*
X141909180Y-124899314D01*
X142004419Y-124946933D01*
X142432990Y-125565980D02*
X142432990Y-124899314D01*
X142432990Y-124565980D02*
X142385371Y-124613600D01*
X142432990Y-124661219D01*
X142480609Y-124613600D01*
X142432990Y-124565980D01*
X142432990Y-124661219D01*
X143052038Y-125565980D02*
X142956800Y-125518361D01*
X142909180Y-125470742D01*
X142861561Y-125375504D01*
X142861561Y-125089790D01*
X142909180Y-124994552D01*
X142956800Y-124946933D01*
X143052038Y-124899314D01*
X143194895Y-124899314D01*
X143290133Y-124946933D01*
X143337752Y-124994552D01*
X143385371Y-125089790D01*
X143385371Y-125375504D01*
X143337752Y-125470742D01*
X143290133Y-125518361D01*
X143194895Y-125565980D01*
X143052038Y-125565980D01*
X143813942Y-124899314D02*
X143813942Y-125565980D01*
X143813942Y-124994552D02*
X143861561Y-124946933D01*
X143956800Y-124899314D01*
X144099657Y-124899314D01*
X144194895Y-124946933D01*
X144242514Y-125042171D01*
X144242514Y-125565980D01*
X145147276Y-125565980D02*
X145147276Y-125042171D01*
X145099657Y-124946933D01*
X145004419Y-124899314D01*
X144813942Y-124899314D01*
X144718704Y-124946933D01*
X145147276Y-125518361D02*
X145052038Y-125565980D01*
X144813942Y-125565980D01*
X144718704Y-125518361D01*
X144671085Y-125423123D01*
X144671085Y-125327885D01*
X144718704Y-125232647D01*
X144813942Y-125185028D01*
X145052038Y-125185028D01*
X145147276Y-125137409D01*
X145766323Y-125565980D02*
X145671085Y-125518361D01*
X145623466Y-125423123D01*
X145623466Y-124565980D01*
X136194895Y-115885980D02*
X136194895Y-116695504D01*
X136242514Y-116790742D01*
X136290133Y-116838361D01*
X136385371Y-116885980D01*
X136575847Y-116885980D01*
X136671085Y-116838361D01*
X136718704Y-116790742D01*
X136766323Y-116695504D01*
X136766323Y-115885980D01*
X137194895Y-115981219D02*
X137242514Y-115933600D01*
X137337752Y-115885980D01*
X137575847Y-115885980D01*
X137671085Y-115933600D01*
X137718704Y-115981219D01*
X137766323Y-116076457D01*
X137766323Y-116171695D01*
X137718704Y-116314552D01*
X137147276Y-116885980D01*
X137766323Y-116885980D01*
%TO.C,U3*%
X172747466Y-110986380D02*
X172747466Y-109986380D01*
X173080800Y-110700666D01*
X173414133Y-109986380D01*
X173414133Y-110986380D01*
X174080800Y-109986380D02*
X174271276Y-109986380D01*
X174366514Y-110034000D01*
X174461752Y-110129238D01*
X174509371Y-110319714D01*
X174509371Y-110653047D01*
X174461752Y-110843523D01*
X174366514Y-110938761D01*
X174271276Y-110986380D01*
X174080800Y-110986380D01*
X173985561Y-110938761D01*
X173890323Y-110843523D01*
X173842704Y-110653047D01*
X173842704Y-110319714D01*
X173890323Y-110129238D01*
X173985561Y-110034000D01*
X174080800Y-109986380D01*
X175509371Y-110891142D02*
X175461752Y-110938761D01*
X175318895Y-110986380D01*
X175223657Y-110986380D01*
X175080800Y-110938761D01*
X174985561Y-110843523D01*
X174937942Y-110748285D01*
X174890323Y-110557809D01*
X174890323Y-110414952D01*
X174937942Y-110224476D01*
X174985561Y-110129238D01*
X175080800Y-110034000D01*
X175223657Y-109986380D01*
X175318895Y-109986380D01*
X175461752Y-110034000D01*
X175509371Y-110081619D01*
X175842704Y-109986380D02*
X176461752Y-109986380D01*
X176128419Y-110367333D01*
X176271276Y-110367333D01*
X176366514Y-110414952D01*
X176414133Y-110462571D01*
X176461752Y-110557809D01*
X176461752Y-110795904D01*
X176414133Y-110891142D01*
X176366514Y-110938761D01*
X176271276Y-110986380D01*
X175985561Y-110986380D01*
X175890323Y-110938761D01*
X175842704Y-110891142D01*
X177080800Y-109986380D02*
X177176038Y-109986380D01*
X177271276Y-110034000D01*
X177318895Y-110081619D01*
X177366514Y-110176857D01*
X177414133Y-110367333D01*
X177414133Y-110605428D01*
X177366514Y-110795904D01*
X177318895Y-110891142D01*
X177271276Y-110938761D01*
X177176038Y-110986380D01*
X177080800Y-110986380D01*
X176985561Y-110938761D01*
X176937942Y-110891142D01*
X176890323Y-110795904D01*
X176842704Y-110605428D01*
X176842704Y-110367333D01*
X176890323Y-110176857D01*
X176937942Y-110081619D01*
X176985561Y-110034000D01*
X177080800Y-109986380D01*
X178271276Y-109986380D02*
X178080800Y-109986380D01*
X177985561Y-110034000D01*
X177937942Y-110081619D01*
X177842704Y-110224476D01*
X177795085Y-110414952D01*
X177795085Y-110795904D01*
X177842704Y-110891142D01*
X177890323Y-110938761D01*
X177985561Y-110986380D01*
X178176038Y-110986380D01*
X178271276Y-110938761D01*
X178318895Y-110891142D01*
X178366514Y-110795904D01*
X178366514Y-110557809D01*
X178318895Y-110462571D01*
X178271276Y-110414952D01*
X178176038Y-110367333D01*
X177985561Y-110367333D01*
X177890323Y-110414952D01*
X177842704Y-110462571D01*
X177795085Y-110557809D01*
X178699847Y-109986380D02*
X179318895Y-109986380D01*
X178985561Y-110367333D01*
X179128419Y-110367333D01*
X179223657Y-110414952D01*
X179271276Y-110462571D01*
X179318895Y-110557809D01*
X179318895Y-110795904D01*
X179271276Y-110891142D01*
X179223657Y-110938761D01*
X179128419Y-110986380D01*
X178842704Y-110986380D01*
X178747466Y-110938761D01*
X178699847Y-110891142D01*
X179747466Y-110986380D02*
X179747466Y-109986380D01*
X180080800Y-110700666D01*
X180414133Y-109986380D01*
X180414133Y-110986380D01*
X175818895Y-105116380D02*
X175818895Y-105925904D01*
X175866514Y-106021142D01*
X175914133Y-106068761D01*
X176009371Y-106116380D01*
X176199847Y-106116380D01*
X176295085Y-106068761D01*
X176342704Y-106021142D01*
X176390323Y-105925904D01*
X176390323Y-105116380D01*
X176771276Y-105116380D02*
X177390323Y-105116380D01*
X177056990Y-105497333D01*
X177199847Y-105497333D01*
X177295085Y-105544952D01*
X177342704Y-105592571D01*
X177390323Y-105687809D01*
X177390323Y-105925904D01*
X177342704Y-106021142D01*
X177295085Y-106068761D01*
X177199847Y-106116380D01*
X176914133Y-106116380D01*
X176818895Y-106068761D01*
X176771276Y-106021142D01*
%TO.C,U4*%
X172442666Y-121806780D02*
X172442666Y-120806780D01*
X172776000Y-121521066D01*
X173109333Y-120806780D01*
X173109333Y-121806780D01*
X173776000Y-120806780D02*
X173966476Y-120806780D01*
X174061714Y-120854400D01*
X174156952Y-120949638D01*
X174204571Y-121140114D01*
X174204571Y-121473447D01*
X174156952Y-121663923D01*
X174061714Y-121759161D01*
X173966476Y-121806780D01*
X173776000Y-121806780D01*
X173680761Y-121759161D01*
X173585523Y-121663923D01*
X173537904Y-121473447D01*
X173537904Y-121140114D01*
X173585523Y-120949638D01*
X173680761Y-120854400D01*
X173776000Y-120806780D01*
X175204571Y-121711542D02*
X175156952Y-121759161D01*
X175014095Y-121806780D01*
X174918857Y-121806780D01*
X174776000Y-121759161D01*
X174680761Y-121663923D01*
X174633142Y-121568685D01*
X174585523Y-121378209D01*
X174585523Y-121235352D01*
X174633142Y-121044876D01*
X174680761Y-120949638D01*
X174776000Y-120854400D01*
X174918857Y-120806780D01*
X175014095Y-120806780D01*
X175156952Y-120854400D01*
X175204571Y-120902019D01*
X175537904Y-120806780D02*
X176156952Y-120806780D01*
X175823619Y-121187733D01*
X175966476Y-121187733D01*
X176061714Y-121235352D01*
X176109333Y-121282971D01*
X176156952Y-121378209D01*
X176156952Y-121616304D01*
X176109333Y-121711542D01*
X176061714Y-121759161D01*
X175966476Y-121806780D01*
X175680761Y-121806780D01*
X175585523Y-121759161D01*
X175537904Y-121711542D01*
X176776000Y-120806780D02*
X176871238Y-120806780D01*
X176966476Y-120854400D01*
X177014095Y-120902019D01*
X177061714Y-120997257D01*
X177109333Y-121187733D01*
X177109333Y-121425828D01*
X177061714Y-121616304D01*
X177014095Y-121711542D01*
X176966476Y-121759161D01*
X176871238Y-121806780D01*
X176776000Y-121806780D01*
X176680761Y-121759161D01*
X176633142Y-121711542D01*
X176585523Y-121616304D01*
X176537904Y-121425828D01*
X176537904Y-121187733D01*
X176585523Y-120997257D01*
X176633142Y-120902019D01*
X176680761Y-120854400D01*
X176776000Y-120806780D01*
X177966476Y-120806780D02*
X177776000Y-120806780D01*
X177680761Y-120854400D01*
X177633142Y-120902019D01*
X177537904Y-121044876D01*
X177490285Y-121235352D01*
X177490285Y-121616304D01*
X177537904Y-121711542D01*
X177585523Y-121759161D01*
X177680761Y-121806780D01*
X177871238Y-121806780D01*
X177966476Y-121759161D01*
X178014095Y-121711542D01*
X178061714Y-121616304D01*
X178061714Y-121378209D01*
X178014095Y-121282971D01*
X177966476Y-121235352D01*
X177871238Y-121187733D01*
X177680761Y-121187733D01*
X177585523Y-121235352D01*
X177537904Y-121282971D01*
X177490285Y-121378209D01*
X178395047Y-120806780D02*
X179014095Y-120806780D01*
X178680761Y-121187733D01*
X178823619Y-121187733D01*
X178918857Y-121235352D01*
X178966476Y-121282971D01*
X179014095Y-121378209D01*
X179014095Y-121616304D01*
X178966476Y-121711542D01*
X178918857Y-121759161D01*
X178823619Y-121806780D01*
X178537904Y-121806780D01*
X178442666Y-121759161D01*
X178395047Y-121711542D01*
X179442666Y-121806780D02*
X179442666Y-120806780D01*
X179776000Y-121521066D01*
X180109333Y-120806780D01*
X180109333Y-121806780D01*
X175514095Y-115936780D02*
X175514095Y-116746304D01*
X175561714Y-116841542D01*
X175609333Y-116889161D01*
X175704571Y-116936780D01*
X175895047Y-116936780D01*
X175990285Y-116889161D01*
X176037904Y-116841542D01*
X176085523Y-116746304D01*
X176085523Y-115936780D01*
X176990285Y-116270114D02*
X176990285Y-116936780D01*
X176752190Y-115889161D02*
X176514095Y-116603447D01*
X177133142Y-116603447D01*
%TO.C,U5*%
X172036266Y-132779580D02*
X172036266Y-131779580D01*
X172369600Y-132493866D01*
X172702933Y-131779580D01*
X172702933Y-132779580D01*
X173369600Y-131779580D02*
X173560076Y-131779580D01*
X173655314Y-131827200D01*
X173750552Y-131922438D01*
X173798171Y-132112914D01*
X173798171Y-132446247D01*
X173750552Y-132636723D01*
X173655314Y-132731961D01*
X173560076Y-132779580D01*
X173369600Y-132779580D01*
X173274361Y-132731961D01*
X173179123Y-132636723D01*
X173131504Y-132446247D01*
X173131504Y-132112914D01*
X173179123Y-131922438D01*
X173274361Y-131827200D01*
X173369600Y-131779580D01*
X174798171Y-132684342D02*
X174750552Y-132731961D01*
X174607695Y-132779580D01*
X174512457Y-132779580D01*
X174369600Y-132731961D01*
X174274361Y-132636723D01*
X174226742Y-132541485D01*
X174179123Y-132351009D01*
X174179123Y-132208152D01*
X174226742Y-132017676D01*
X174274361Y-131922438D01*
X174369600Y-131827200D01*
X174512457Y-131779580D01*
X174607695Y-131779580D01*
X174750552Y-131827200D01*
X174798171Y-131874819D01*
X175131504Y-131779580D02*
X175750552Y-131779580D01*
X175417219Y-132160533D01*
X175560076Y-132160533D01*
X175655314Y-132208152D01*
X175702933Y-132255771D01*
X175750552Y-132351009D01*
X175750552Y-132589104D01*
X175702933Y-132684342D01*
X175655314Y-132731961D01*
X175560076Y-132779580D01*
X175274361Y-132779580D01*
X175179123Y-132731961D01*
X175131504Y-132684342D01*
X176369600Y-131779580D02*
X176464838Y-131779580D01*
X176560076Y-131827200D01*
X176607695Y-131874819D01*
X176655314Y-131970057D01*
X176702933Y-132160533D01*
X176702933Y-132398628D01*
X176655314Y-132589104D01*
X176607695Y-132684342D01*
X176560076Y-132731961D01*
X176464838Y-132779580D01*
X176369600Y-132779580D01*
X176274361Y-132731961D01*
X176226742Y-132684342D01*
X176179123Y-132589104D01*
X176131504Y-132398628D01*
X176131504Y-132160533D01*
X176179123Y-131970057D01*
X176226742Y-131874819D01*
X176274361Y-131827200D01*
X176369600Y-131779580D01*
X177560076Y-131779580D02*
X177369600Y-131779580D01*
X177274361Y-131827200D01*
X177226742Y-131874819D01*
X177131504Y-132017676D01*
X177083885Y-132208152D01*
X177083885Y-132589104D01*
X177131504Y-132684342D01*
X177179123Y-132731961D01*
X177274361Y-132779580D01*
X177464838Y-132779580D01*
X177560076Y-132731961D01*
X177607695Y-132684342D01*
X177655314Y-132589104D01*
X177655314Y-132351009D01*
X177607695Y-132255771D01*
X177560076Y-132208152D01*
X177464838Y-132160533D01*
X177274361Y-132160533D01*
X177179123Y-132208152D01*
X177131504Y-132255771D01*
X177083885Y-132351009D01*
X177988647Y-131779580D02*
X178607695Y-131779580D01*
X178274361Y-132160533D01*
X178417219Y-132160533D01*
X178512457Y-132208152D01*
X178560076Y-132255771D01*
X178607695Y-132351009D01*
X178607695Y-132589104D01*
X178560076Y-132684342D01*
X178512457Y-132731961D01*
X178417219Y-132779580D01*
X178131504Y-132779580D01*
X178036266Y-132731961D01*
X177988647Y-132684342D01*
X179036266Y-132779580D02*
X179036266Y-131779580D01*
X179369600Y-132493866D01*
X179702933Y-131779580D01*
X179702933Y-132779580D01*
X174969494Y-126728179D02*
X174969494Y-127537703D01*
X175017113Y-127632941D01*
X175064732Y-127680560D01*
X175159970Y-127728179D01*
X175350446Y-127728179D01*
X175445684Y-127680560D01*
X175493303Y-127632941D01*
X175540922Y-127537703D01*
X175540922Y-126728179D01*
X176493303Y-126728179D02*
X176017113Y-126728179D01*
X175969494Y-127204370D01*
X176017113Y-127156751D01*
X176112351Y-127109132D01*
X176350446Y-127109132D01*
X176445684Y-127156751D01*
X176493303Y-127204370D01*
X176540922Y-127299608D01*
X176540922Y-127537703D01*
X176493303Y-127632941D01*
X176445684Y-127680560D01*
X176350446Y-127728179D01*
X176112351Y-127728179D01*
X176017113Y-127680560D01*
X175969494Y-127632941D01*
%TO.C,U6*%
X151360666Y-121197180D02*
X151360666Y-120197180D01*
X151694000Y-120911466D01*
X152027333Y-120197180D01*
X152027333Y-121197180D01*
X152694000Y-120197180D02*
X152884476Y-120197180D01*
X152979714Y-120244800D01*
X153074952Y-120340038D01*
X153122571Y-120530514D01*
X153122571Y-120863847D01*
X153074952Y-121054323D01*
X152979714Y-121149561D01*
X152884476Y-121197180D01*
X152694000Y-121197180D01*
X152598761Y-121149561D01*
X152503523Y-121054323D01*
X152455904Y-120863847D01*
X152455904Y-120530514D01*
X152503523Y-120340038D01*
X152598761Y-120244800D01*
X152694000Y-120197180D01*
X154122571Y-121101942D02*
X154074952Y-121149561D01*
X153932095Y-121197180D01*
X153836857Y-121197180D01*
X153694000Y-121149561D01*
X153598761Y-121054323D01*
X153551142Y-120959085D01*
X153503523Y-120768609D01*
X153503523Y-120625752D01*
X153551142Y-120435276D01*
X153598761Y-120340038D01*
X153694000Y-120244800D01*
X153836857Y-120197180D01*
X153932095Y-120197180D01*
X154074952Y-120244800D01*
X154122571Y-120292419D01*
X154455904Y-120197180D02*
X155074952Y-120197180D01*
X154741619Y-120578133D01*
X154884476Y-120578133D01*
X154979714Y-120625752D01*
X155027333Y-120673371D01*
X155074952Y-120768609D01*
X155074952Y-121006704D01*
X155027333Y-121101942D01*
X154979714Y-121149561D01*
X154884476Y-121197180D01*
X154598761Y-121197180D01*
X154503523Y-121149561D01*
X154455904Y-121101942D01*
X155694000Y-120197180D02*
X155789238Y-120197180D01*
X155884476Y-120244800D01*
X155932095Y-120292419D01*
X155979714Y-120387657D01*
X156027333Y-120578133D01*
X156027333Y-120816228D01*
X155979714Y-121006704D01*
X155932095Y-121101942D01*
X155884476Y-121149561D01*
X155789238Y-121197180D01*
X155694000Y-121197180D01*
X155598761Y-121149561D01*
X155551142Y-121101942D01*
X155503523Y-121006704D01*
X155455904Y-120816228D01*
X155455904Y-120578133D01*
X155503523Y-120387657D01*
X155551142Y-120292419D01*
X155598761Y-120244800D01*
X155694000Y-120197180D01*
X156884476Y-120197180D02*
X156694000Y-120197180D01*
X156598761Y-120244800D01*
X156551142Y-120292419D01*
X156455904Y-120435276D01*
X156408285Y-120625752D01*
X156408285Y-121006704D01*
X156455904Y-121101942D01*
X156503523Y-121149561D01*
X156598761Y-121197180D01*
X156789238Y-121197180D01*
X156884476Y-121149561D01*
X156932095Y-121101942D01*
X156979714Y-121006704D01*
X156979714Y-120768609D01*
X156932095Y-120673371D01*
X156884476Y-120625752D01*
X156789238Y-120578133D01*
X156598761Y-120578133D01*
X156503523Y-120625752D01*
X156455904Y-120673371D01*
X156408285Y-120768609D01*
X157313047Y-120197180D02*
X157932095Y-120197180D01*
X157598761Y-120578133D01*
X157741619Y-120578133D01*
X157836857Y-120625752D01*
X157884476Y-120673371D01*
X157932095Y-120768609D01*
X157932095Y-121006704D01*
X157884476Y-121101942D01*
X157836857Y-121149561D01*
X157741619Y-121197180D01*
X157455904Y-121197180D01*
X157360666Y-121149561D01*
X157313047Y-121101942D01*
X158360666Y-121197180D02*
X158360666Y-120197180D01*
X158694000Y-120911466D01*
X159027333Y-120197180D01*
X159027333Y-121197180D01*
X154577494Y-115876179D02*
X154577494Y-116685703D01*
X154625113Y-116780941D01*
X154672732Y-116828560D01*
X154767970Y-116876179D01*
X154958446Y-116876179D01*
X155053684Y-116828560D01*
X155101303Y-116780941D01*
X155148922Y-116685703D01*
X155148922Y-115876179D01*
X156053684Y-115876179D02*
X155863208Y-115876179D01*
X155767970Y-115923799D01*
X155720351Y-115971418D01*
X155625113Y-116114275D01*
X155577494Y-116304751D01*
X155577494Y-116685703D01*
X155625113Y-116780941D01*
X155672732Y-116828560D01*
X155767970Y-116876179D01*
X155958446Y-116876179D01*
X156053684Y-116828560D01*
X156101303Y-116780941D01*
X156148922Y-116685703D01*
X156148922Y-116447608D01*
X156101303Y-116352370D01*
X156053684Y-116304751D01*
X155958446Y-116257132D01*
X155767970Y-116257132D01*
X155672732Y-116304751D01*
X155625113Y-116352370D01*
X155577494Y-116447608D01*
%TO.C,U8*%
X148312666Y-144158780D02*
X148312666Y-143158780D01*
X148646000Y-143873066D01*
X148979333Y-143158780D01*
X148979333Y-144158780D01*
X149646000Y-143158780D02*
X149836476Y-143158780D01*
X149931714Y-143206400D01*
X150026952Y-143301638D01*
X150074571Y-143492114D01*
X150074571Y-143825447D01*
X150026952Y-144015923D01*
X149931714Y-144111161D01*
X149836476Y-144158780D01*
X149646000Y-144158780D01*
X149550761Y-144111161D01*
X149455523Y-144015923D01*
X149407904Y-143825447D01*
X149407904Y-143492114D01*
X149455523Y-143301638D01*
X149550761Y-143206400D01*
X149646000Y-143158780D01*
X151074571Y-144063542D02*
X151026952Y-144111161D01*
X150884095Y-144158780D01*
X150788857Y-144158780D01*
X150646000Y-144111161D01*
X150550761Y-144015923D01*
X150503142Y-143920685D01*
X150455523Y-143730209D01*
X150455523Y-143587352D01*
X150503142Y-143396876D01*
X150550761Y-143301638D01*
X150646000Y-143206400D01*
X150788857Y-143158780D01*
X150884095Y-143158780D01*
X151026952Y-143206400D01*
X151074571Y-143254019D01*
X151407904Y-143158780D02*
X152026952Y-143158780D01*
X151693619Y-143539733D01*
X151836476Y-143539733D01*
X151931714Y-143587352D01*
X151979333Y-143634971D01*
X152026952Y-143730209D01*
X152026952Y-143968304D01*
X151979333Y-144063542D01*
X151931714Y-144111161D01*
X151836476Y-144158780D01*
X151550761Y-144158780D01*
X151455523Y-144111161D01*
X151407904Y-144063542D01*
X152646000Y-143158780D02*
X152741238Y-143158780D01*
X152836476Y-143206400D01*
X152884095Y-143254019D01*
X152931714Y-143349257D01*
X152979333Y-143539733D01*
X152979333Y-143777828D01*
X152931714Y-143968304D01*
X152884095Y-144063542D01*
X152836476Y-144111161D01*
X152741238Y-144158780D01*
X152646000Y-144158780D01*
X152550761Y-144111161D01*
X152503142Y-144063542D01*
X152455523Y-143968304D01*
X152407904Y-143777828D01*
X152407904Y-143539733D01*
X152455523Y-143349257D01*
X152503142Y-143254019D01*
X152550761Y-143206400D01*
X152646000Y-143158780D01*
X153836476Y-143158780D02*
X153646000Y-143158780D01*
X153550761Y-143206400D01*
X153503142Y-143254019D01*
X153407904Y-143396876D01*
X153360285Y-143587352D01*
X153360285Y-143968304D01*
X153407904Y-144063542D01*
X153455523Y-144111161D01*
X153550761Y-144158780D01*
X153741238Y-144158780D01*
X153836476Y-144111161D01*
X153884095Y-144063542D01*
X153931714Y-143968304D01*
X153931714Y-143730209D01*
X153884095Y-143634971D01*
X153836476Y-143587352D01*
X153741238Y-143539733D01*
X153550761Y-143539733D01*
X153455523Y-143587352D01*
X153407904Y-143634971D01*
X153360285Y-143730209D01*
X154265047Y-143158780D02*
X154884095Y-143158780D01*
X154550761Y-143539733D01*
X154693619Y-143539733D01*
X154788857Y-143587352D01*
X154836476Y-143634971D01*
X154884095Y-143730209D01*
X154884095Y-143968304D01*
X154836476Y-144063542D01*
X154788857Y-144111161D01*
X154693619Y-144158780D01*
X154407904Y-144158780D01*
X154312666Y-144111161D01*
X154265047Y-144063542D01*
X155312666Y-144158780D02*
X155312666Y-143158780D01*
X155646000Y-143873066D01*
X155979333Y-143158780D01*
X155979333Y-144158780D01*
X151384095Y-138288780D02*
X151384095Y-139098304D01*
X151431714Y-139193542D01*
X151479333Y-139241161D01*
X151574571Y-139288780D01*
X151765047Y-139288780D01*
X151860285Y-139241161D01*
X151907904Y-139193542D01*
X151955523Y-139098304D01*
X151955523Y-138288780D01*
X152574571Y-138717352D02*
X152479333Y-138669733D01*
X152431714Y-138622114D01*
X152384095Y-138526876D01*
X152384095Y-138479257D01*
X152431714Y-138384019D01*
X152479333Y-138336400D01*
X152574571Y-138288780D01*
X152765047Y-138288780D01*
X152860285Y-138336400D01*
X152907904Y-138384019D01*
X152955523Y-138479257D01*
X152955523Y-138526876D01*
X152907904Y-138622114D01*
X152860285Y-138669733D01*
X152765047Y-138717352D01*
X152574571Y-138717352D01*
X152479333Y-138764971D01*
X152431714Y-138812590D01*
X152384095Y-138907828D01*
X152384095Y-139098304D01*
X152431714Y-139193542D01*
X152479333Y-139241161D01*
X152574571Y-139288780D01*
X152765047Y-139288780D01*
X152860285Y-139241161D01*
X152907904Y-139193542D01*
X152955523Y-139098304D01*
X152955523Y-138907828D01*
X152907904Y-138812590D01*
X152860285Y-138764971D01*
X152765047Y-138717352D01*
%TO.C,F1*%
X187554876Y-78565771D02*
X187221542Y-78565771D01*
X187221542Y-79089580D02*
X187221542Y-78089580D01*
X187697733Y-78089580D01*
X188078685Y-78089580D02*
X188078685Y-78899104D01*
X188126304Y-78994342D01*
X188173923Y-79041961D01*
X188269161Y-79089580D01*
X188459638Y-79089580D01*
X188554876Y-79041961D01*
X188602495Y-78994342D01*
X188650114Y-78899104D01*
X188650114Y-78089580D01*
X189078685Y-79041961D02*
X189221542Y-79089580D01*
X189459638Y-79089580D01*
X189554876Y-79041961D01*
X189602495Y-78994342D01*
X189650114Y-78899104D01*
X189650114Y-78803866D01*
X189602495Y-78708628D01*
X189554876Y-78661009D01*
X189459638Y-78613390D01*
X189269161Y-78565771D01*
X189173923Y-78518152D01*
X189126304Y-78470533D01*
X189078685Y-78375295D01*
X189078685Y-78280057D01*
X189126304Y-78184819D01*
X189173923Y-78137200D01*
X189269161Y-78089580D01*
X189507257Y-78089580D01*
X189650114Y-78137200D01*
X190078685Y-78565771D02*
X190412019Y-78565771D01*
X190554876Y-79089580D02*
X190078685Y-79089580D01*
X190078685Y-78089580D01*
X190554876Y-78089580D01*
X188531066Y-81065771D02*
X188197733Y-81065771D01*
X188197733Y-81589580D02*
X188197733Y-80589580D01*
X188673923Y-80589580D01*
X189578685Y-81589580D02*
X189007257Y-81589580D01*
X189292971Y-81589580D02*
X189292971Y-80589580D01*
X189197733Y-80732438D01*
X189102495Y-80827676D01*
X189007257Y-80875295D01*
%TO.C,F2*%
X187758076Y-84356971D02*
X187424742Y-84356971D01*
X187424742Y-84880780D02*
X187424742Y-83880780D01*
X187900933Y-83880780D01*
X188281885Y-83880780D02*
X188281885Y-84690304D01*
X188329504Y-84785542D01*
X188377123Y-84833161D01*
X188472361Y-84880780D01*
X188662838Y-84880780D01*
X188758076Y-84833161D01*
X188805695Y-84785542D01*
X188853314Y-84690304D01*
X188853314Y-83880780D01*
X189281885Y-84833161D02*
X189424742Y-84880780D01*
X189662838Y-84880780D01*
X189758076Y-84833161D01*
X189805695Y-84785542D01*
X189853314Y-84690304D01*
X189853314Y-84595066D01*
X189805695Y-84499828D01*
X189758076Y-84452209D01*
X189662838Y-84404590D01*
X189472361Y-84356971D01*
X189377123Y-84309352D01*
X189329504Y-84261733D01*
X189281885Y-84166495D01*
X189281885Y-84071257D01*
X189329504Y-83976019D01*
X189377123Y-83928400D01*
X189472361Y-83880780D01*
X189710457Y-83880780D01*
X189853314Y-83928400D01*
X190281885Y-84356971D02*
X190615219Y-84356971D01*
X190758076Y-84880780D02*
X190281885Y-84880780D01*
X190281885Y-83880780D01*
X190758076Y-83880780D01*
X188734266Y-86856971D02*
X188400933Y-86856971D01*
X188400933Y-87380780D02*
X188400933Y-86380780D01*
X188877123Y-86380780D01*
X189210457Y-86476019D02*
X189258076Y-86428400D01*
X189353314Y-86380780D01*
X189591409Y-86380780D01*
X189686647Y-86428400D01*
X189734266Y-86476019D01*
X189781885Y-86571257D01*
X189781885Y-86666495D01*
X189734266Y-86809352D01*
X189162838Y-87380780D01*
X189781885Y-87380780D01*
%TO.C,F3*%
X187859676Y-90402171D02*
X187526342Y-90402171D01*
X187526342Y-90925980D02*
X187526342Y-89925980D01*
X188002533Y-89925980D01*
X188383485Y-89925980D02*
X188383485Y-90735504D01*
X188431104Y-90830742D01*
X188478723Y-90878361D01*
X188573961Y-90925980D01*
X188764438Y-90925980D01*
X188859676Y-90878361D01*
X188907295Y-90830742D01*
X188954914Y-90735504D01*
X188954914Y-89925980D01*
X189383485Y-90878361D02*
X189526342Y-90925980D01*
X189764438Y-90925980D01*
X189859676Y-90878361D01*
X189907295Y-90830742D01*
X189954914Y-90735504D01*
X189954914Y-90640266D01*
X189907295Y-90545028D01*
X189859676Y-90497409D01*
X189764438Y-90449790D01*
X189573961Y-90402171D01*
X189478723Y-90354552D01*
X189431104Y-90306933D01*
X189383485Y-90211695D01*
X189383485Y-90116457D01*
X189431104Y-90021219D01*
X189478723Y-89973600D01*
X189573961Y-89925980D01*
X189812057Y-89925980D01*
X189954914Y-89973600D01*
X190383485Y-90402171D02*
X190716819Y-90402171D01*
X190859676Y-90925980D02*
X190383485Y-90925980D01*
X190383485Y-89925980D01*
X190859676Y-89925980D01*
X188845866Y-92689371D02*
X188512533Y-92689371D01*
X188512533Y-93213180D02*
X188512533Y-92213180D01*
X188988723Y-92213180D01*
X189274438Y-92213180D02*
X189893485Y-92213180D01*
X189560152Y-92594133D01*
X189703009Y-92594133D01*
X189798247Y-92641752D01*
X189845866Y-92689371D01*
X189893485Y-92784609D01*
X189893485Y-93022704D01*
X189845866Y-93117942D01*
X189798247Y-93165561D01*
X189703009Y-93213180D01*
X189417295Y-93213180D01*
X189322057Y-93165561D01*
X189274438Y-93117942D01*
%TO.C,U9*%
X101178742Y-80004742D02*
X101131123Y-80052361D01*
X100988266Y-80099980D01*
X100893028Y-80099980D01*
X100750171Y-80052361D01*
X100654933Y-79957123D01*
X100607314Y-79861885D01*
X100559695Y-79671409D01*
X100559695Y-79528552D01*
X100607314Y-79338076D01*
X100654933Y-79242838D01*
X100750171Y-79147600D01*
X100893028Y-79099980D01*
X100988266Y-79099980D01*
X101131123Y-79147600D01*
X101178742Y-79195219D01*
X101750171Y-80099980D02*
X101654933Y-80052361D01*
X101607314Y-80004742D01*
X101559695Y-79909504D01*
X101559695Y-79623790D01*
X101607314Y-79528552D01*
X101654933Y-79480933D01*
X101750171Y-79433314D01*
X101893028Y-79433314D01*
X101988266Y-79480933D01*
X102035885Y-79528552D01*
X102083504Y-79623790D01*
X102083504Y-79909504D01*
X102035885Y-80004742D01*
X101988266Y-80052361D01*
X101893028Y-80099980D01*
X101750171Y-80099980D01*
X102512076Y-79433314D02*
X102512076Y-80099980D01*
X102512076Y-79528552D02*
X102559695Y-79480933D01*
X102654933Y-79433314D01*
X102797790Y-79433314D01*
X102893028Y-79480933D01*
X102940647Y-79576171D01*
X102940647Y-80099980D01*
X103321600Y-79433314D02*
X103559695Y-80099980D01*
X103797790Y-79433314D01*
X104559695Y-80052361D02*
X104464457Y-80099980D01*
X104273980Y-80099980D01*
X104178742Y-80052361D01*
X104131123Y-79957123D01*
X104131123Y-79576171D01*
X104178742Y-79480933D01*
X104273980Y-79433314D01*
X104464457Y-79433314D01*
X104559695Y-79480933D01*
X104607314Y-79576171D01*
X104607314Y-79671409D01*
X104131123Y-79766647D01*
X105035885Y-80099980D02*
X105035885Y-79433314D01*
X105035885Y-79623790D02*
X105083504Y-79528552D01*
X105131123Y-79480933D01*
X105226361Y-79433314D01*
X105321600Y-79433314D01*
X105607314Y-80052361D02*
X105702552Y-80099980D01*
X105893028Y-80099980D01*
X105988266Y-80052361D01*
X106035885Y-79957123D01*
X106035885Y-79909504D01*
X105988266Y-79814266D01*
X105893028Y-79766647D01*
X105750171Y-79766647D01*
X105654933Y-79719028D01*
X105607314Y-79623790D01*
X105607314Y-79576171D01*
X105654933Y-79480933D01*
X105750171Y-79433314D01*
X105893028Y-79433314D01*
X105988266Y-79480933D01*
X106607314Y-80099980D02*
X106512076Y-80052361D01*
X106464457Y-80004742D01*
X106416838Y-79909504D01*
X106416838Y-79623790D01*
X106464457Y-79528552D01*
X106512076Y-79480933D01*
X106607314Y-79433314D01*
X106750171Y-79433314D01*
X106845409Y-79480933D01*
X106893028Y-79528552D01*
X106940647Y-79623790D01*
X106940647Y-79909504D01*
X106893028Y-80004742D01*
X106845409Y-80052361D01*
X106750171Y-80099980D01*
X106607314Y-80099980D01*
X107369219Y-80099980D02*
X107369219Y-79433314D01*
X107369219Y-79623790D02*
X107416838Y-79528552D01*
X107464457Y-79480933D01*
X107559695Y-79433314D01*
X107654933Y-79433314D01*
X107750171Y-80195219D02*
X108512076Y-80195219D01*
X109083504Y-79576171D02*
X109226361Y-79623790D01*
X109273980Y-79671409D01*
X109321600Y-79766647D01*
X109321600Y-79909504D01*
X109273980Y-80004742D01*
X109226361Y-80052361D01*
X109131123Y-80099980D01*
X108750171Y-80099980D01*
X108750171Y-79099980D01*
X109083504Y-79099980D01*
X109178742Y-79147600D01*
X109226361Y-79195219D01*
X109273980Y-79290457D01*
X109273980Y-79385695D01*
X109226361Y-79480933D01*
X109178742Y-79528552D01*
X109083504Y-79576171D01*
X108750171Y-79576171D01*
X109750171Y-80099980D02*
X109750171Y-79433314D01*
X109750171Y-79099980D02*
X109702552Y-79147600D01*
X109750171Y-79195219D01*
X109797790Y-79147600D01*
X109750171Y-79099980D01*
X109750171Y-79195219D01*
X110654933Y-80099980D02*
X110654933Y-79099980D01*
X110654933Y-80052361D02*
X110559695Y-80099980D01*
X110369219Y-80099980D01*
X110273980Y-80052361D01*
X110226361Y-80004742D01*
X110178742Y-79909504D01*
X110178742Y-79623790D01*
X110226361Y-79528552D01*
X110273980Y-79480933D01*
X110369219Y-79433314D01*
X110559695Y-79433314D01*
X110654933Y-79480933D01*
X111131123Y-80099980D02*
X111131123Y-79433314D01*
X111131123Y-79099980D02*
X111083504Y-79147600D01*
X111131123Y-79195219D01*
X111178742Y-79147600D01*
X111131123Y-79099980D01*
X111131123Y-79195219D01*
X111607314Y-80099980D02*
X111607314Y-79433314D01*
X111607314Y-79623790D02*
X111654933Y-79528552D01*
X111702552Y-79480933D01*
X111797790Y-79433314D01*
X111893028Y-79433314D01*
X112607314Y-80052361D02*
X112512076Y-80099980D01*
X112321600Y-80099980D01*
X112226361Y-80052361D01*
X112178742Y-79957123D01*
X112178742Y-79576171D01*
X112226361Y-79480933D01*
X112321600Y-79433314D01*
X112512076Y-79433314D01*
X112607314Y-79480933D01*
X112654933Y-79576171D01*
X112654933Y-79671409D01*
X112178742Y-79766647D01*
X113512076Y-80052361D02*
X113416838Y-80099980D01*
X113226361Y-80099980D01*
X113131123Y-80052361D01*
X113083504Y-80004742D01*
X113035885Y-79909504D01*
X113035885Y-79623790D01*
X113083504Y-79528552D01*
X113131123Y-79480933D01*
X113226361Y-79433314D01*
X113416838Y-79433314D01*
X113512076Y-79480933D01*
X114369219Y-80052361D02*
X114273980Y-80099980D01*
X114083504Y-80099980D01*
X113988266Y-80052361D01*
X113940647Y-80004742D01*
X113893028Y-79909504D01*
X113893028Y-79623790D01*
X113940647Y-79528552D01*
X113988266Y-79480933D01*
X114083504Y-79433314D01*
X114273980Y-79433314D01*
X114369219Y-79480933D01*
X114797790Y-80099980D02*
X114797790Y-79433314D01*
X114797790Y-79099980D02*
X114750171Y-79147600D01*
X114797790Y-79195219D01*
X114845409Y-79147600D01*
X114797790Y-79099980D01*
X114797790Y-79195219D01*
X115416838Y-80099980D02*
X115321600Y-80052361D01*
X115273980Y-80004742D01*
X115226361Y-79909504D01*
X115226361Y-79623790D01*
X115273980Y-79528552D01*
X115321600Y-79480933D01*
X115416838Y-79433314D01*
X115559695Y-79433314D01*
X115654933Y-79480933D01*
X115702552Y-79528552D01*
X115750171Y-79623790D01*
X115750171Y-79909504D01*
X115702552Y-80004742D01*
X115654933Y-80052361D01*
X115559695Y-80099980D01*
X115416838Y-80099980D01*
X116178742Y-79433314D02*
X116178742Y-80099980D01*
X116178742Y-79528552D02*
X116226361Y-79480933D01*
X116321600Y-79433314D01*
X116464457Y-79433314D01*
X116559695Y-79480933D01*
X116607314Y-79576171D01*
X116607314Y-80099980D01*
X117512076Y-80099980D02*
X117512076Y-79576171D01*
X117464457Y-79480933D01*
X117369219Y-79433314D01*
X117178742Y-79433314D01*
X117083504Y-79480933D01*
X117512076Y-80052361D02*
X117416838Y-80099980D01*
X117178742Y-80099980D01*
X117083504Y-80052361D01*
X117035885Y-79957123D01*
X117035885Y-79861885D01*
X117083504Y-79766647D01*
X117178742Y-79719028D01*
X117416838Y-79719028D01*
X117512076Y-79671409D01*
X118131123Y-80099980D02*
X118035885Y-80052361D01*
X117988266Y-79957123D01*
X117988266Y-79099980D01*
X108559695Y-70419980D02*
X108559695Y-71229504D01*
X108607314Y-71324742D01*
X108654933Y-71372361D01*
X108750171Y-71419980D01*
X108940647Y-71419980D01*
X109035885Y-71372361D01*
X109083504Y-71324742D01*
X109131123Y-71229504D01*
X109131123Y-70419980D01*
X109654933Y-71419980D02*
X109845409Y-71419980D01*
X109940647Y-71372361D01*
X109988266Y-71324742D01*
X110083504Y-71181885D01*
X110131123Y-70991409D01*
X110131123Y-70610457D01*
X110083504Y-70515219D01*
X110035885Y-70467600D01*
X109940647Y-70419980D01*
X109750171Y-70419980D01*
X109654933Y-70467600D01*
X109607314Y-70515219D01*
X109559695Y-70610457D01*
X109559695Y-70848552D01*
X109607314Y-70943790D01*
X109654933Y-70991409D01*
X109750171Y-71039028D01*
X109940647Y-71039028D01*
X110035885Y-70991409D01*
X110083504Y-70943790D01*
X110131123Y-70848552D01*
%TO.C,J3*%
X96151771Y-143216380D02*
X95675580Y-143216380D01*
X95627961Y-143692571D01*
X95675580Y-143644952D01*
X95770819Y-143597333D01*
X96008914Y-143597333D01*
X96104152Y-143644952D01*
X96151771Y-143692571D01*
X96199390Y-143787809D01*
X96199390Y-144025904D01*
X96151771Y-144121142D01*
X96104152Y-144168761D01*
X96008914Y-144216380D01*
X95770819Y-144216380D01*
X95675580Y-144168761D01*
X95627961Y-144121142D01*
X97247009Y-143216380D02*
X97580342Y-144216380D01*
X97913676Y-143216380D01*
X101560380Y-143538533D02*
X102274666Y-143538533D01*
X102417523Y-143586152D01*
X102512761Y-143681390D01*
X102560380Y-143824247D01*
X102560380Y-143919485D01*
X101560380Y-143157580D02*
X101560380Y-142538533D01*
X101941333Y-142871866D01*
X101941333Y-142729009D01*
X101988952Y-142633771D01*
X102036571Y-142586152D01*
X102131809Y-142538533D01*
X102369904Y-142538533D01*
X102465142Y-142586152D01*
X102512761Y-142633771D01*
X102560380Y-142729009D01*
X102560380Y-143014723D01*
X102512761Y-143109961D01*
X102465142Y-143157580D01*
%TO.C,Q1*%
X154806971Y-86439142D02*
X154854590Y-86296285D01*
X154902209Y-86248666D01*
X154997447Y-86201047D01*
X155140304Y-86201047D01*
X155235542Y-86248666D01*
X155283161Y-86296285D01*
X155330780Y-86391523D01*
X155330780Y-86772476D01*
X154330780Y-86772476D01*
X154330780Y-86439142D01*
X154378400Y-86343904D01*
X154426019Y-86296285D01*
X154521257Y-86248666D01*
X154616495Y-86248666D01*
X154711733Y-86296285D01*
X154759352Y-86343904D01*
X154806971Y-86439142D01*
X154806971Y-86772476D01*
X155235542Y-85201047D02*
X155283161Y-85248666D01*
X155330780Y-85391523D01*
X155330780Y-85486761D01*
X155283161Y-85629619D01*
X155187923Y-85724857D01*
X155092685Y-85772476D01*
X154902209Y-85820095D01*
X154759352Y-85820095D01*
X154568876Y-85772476D01*
X154473638Y-85724857D01*
X154378400Y-85629619D01*
X154330780Y-85486761D01*
X154330780Y-85391523D01*
X154378400Y-85248666D01*
X154426019Y-85201047D01*
X154330780Y-84296285D02*
X154330780Y-84772476D01*
X154806971Y-84820095D01*
X154759352Y-84772476D01*
X154711733Y-84677238D01*
X154711733Y-84439142D01*
X154759352Y-84343904D01*
X154806971Y-84296285D01*
X154902209Y-84248666D01*
X155140304Y-84248666D01*
X155235542Y-84296285D01*
X155283161Y-84343904D01*
X155330780Y-84439142D01*
X155330780Y-84677238D01*
X155283161Y-84772476D01*
X155235542Y-84820095D01*
X154664114Y-83391523D02*
X155330780Y-83391523D01*
X154283161Y-83629619D02*
X154997447Y-83867714D01*
X154997447Y-83248666D01*
X154759352Y-82724857D02*
X154711733Y-82820095D01*
X154664114Y-82867714D01*
X154568876Y-82915333D01*
X154521257Y-82915333D01*
X154426019Y-82867714D01*
X154378400Y-82820095D01*
X154330780Y-82724857D01*
X154330780Y-82534380D01*
X154378400Y-82439142D01*
X154426019Y-82391523D01*
X154521257Y-82343904D01*
X154568876Y-82343904D01*
X154664114Y-82391523D01*
X154711733Y-82439142D01*
X154759352Y-82534380D01*
X154759352Y-82724857D01*
X154806971Y-82820095D01*
X154854590Y-82867714D01*
X154949828Y-82915333D01*
X155140304Y-82915333D01*
X155235542Y-82867714D01*
X155283161Y-82820095D01*
X155330780Y-82724857D01*
X155330780Y-82534380D01*
X155283161Y-82439142D01*
X155235542Y-82391523D01*
X155140304Y-82343904D01*
X154949828Y-82343904D01*
X154854590Y-82391523D01*
X154806971Y-82439142D01*
X154759352Y-82534380D01*
X161046019Y-84677238D02*
X160998400Y-84772476D01*
X160903161Y-84867714D01*
X160760304Y-85010571D01*
X160712685Y-85105809D01*
X160712685Y-85201047D01*
X160950780Y-85153428D02*
X160903161Y-85248666D01*
X160807923Y-85343904D01*
X160617447Y-85391523D01*
X160284114Y-85391523D01*
X160093638Y-85343904D01*
X159998400Y-85248666D01*
X159950780Y-85153428D01*
X159950780Y-84962952D01*
X159998400Y-84867714D01*
X160093638Y-84772476D01*
X160284114Y-84724857D01*
X160617447Y-84724857D01*
X160807923Y-84772476D01*
X160903161Y-84867714D01*
X160950780Y-84962952D01*
X160950780Y-85153428D01*
X160950780Y-83772476D02*
X160950780Y-84343904D01*
X160950780Y-84058190D02*
X159950780Y-84058190D01*
X160093638Y-84153428D01*
X160188876Y-84248666D01*
X160236495Y-84343904D01*
%TO.C,Q3*%
X171523257Y-92293771D02*
X171666114Y-92341390D01*
X171713733Y-92389009D01*
X171761352Y-92484247D01*
X171761352Y-92627104D01*
X171713733Y-92722342D01*
X171666114Y-92769961D01*
X171570876Y-92817580D01*
X171189923Y-92817580D01*
X171189923Y-91817580D01*
X171523257Y-91817580D01*
X171618495Y-91865200D01*
X171666114Y-91912819D01*
X171713733Y-92008057D01*
X171713733Y-92103295D01*
X171666114Y-92198533D01*
X171618495Y-92246152D01*
X171523257Y-92293771D01*
X171189923Y-92293771D01*
X172761352Y-92722342D02*
X172713733Y-92769961D01*
X172570876Y-92817580D01*
X172475638Y-92817580D01*
X172332780Y-92769961D01*
X172237542Y-92674723D01*
X172189923Y-92579485D01*
X172142304Y-92389009D01*
X172142304Y-92246152D01*
X172189923Y-92055676D01*
X172237542Y-91960438D01*
X172332780Y-91865200D01*
X172475638Y-91817580D01*
X172570876Y-91817580D01*
X172713733Y-91865200D01*
X172761352Y-91912819D01*
X173666114Y-91817580D02*
X173189923Y-91817580D01*
X173142304Y-92293771D01*
X173189923Y-92246152D01*
X173285161Y-92198533D01*
X173523257Y-92198533D01*
X173618495Y-92246152D01*
X173666114Y-92293771D01*
X173713733Y-92389009D01*
X173713733Y-92627104D01*
X173666114Y-92722342D01*
X173618495Y-92769961D01*
X173523257Y-92817580D01*
X173285161Y-92817580D01*
X173189923Y-92769961D01*
X173142304Y-92722342D01*
X174570876Y-92150914D02*
X174570876Y-92817580D01*
X174332780Y-91769961D02*
X174094685Y-92484247D01*
X174713733Y-92484247D01*
X175237542Y-92246152D02*
X175142304Y-92198533D01*
X175094685Y-92150914D01*
X175047066Y-92055676D01*
X175047066Y-92008057D01*
X175094685Y-91912819D01*
X175142304Y-91865200D01*
X175237542Y-91817580D01*
X175428019Y-91817580D01*
X175523257Y-91865200D01*
X175570876Y-91912819D01*
X175618495Y-92008057D01*
X175618495Y-92055676D01*
X175570876Y-92150914D01*
X175523257Y-92198533D01*
X175428019Y-92246152D01*
X175237542Y-92246152D01*
X175142304Y-92293771D01*
X175094685Y-92341390D01*
X175047066Y-92436628D01*
X175047066Y-92627104D01*
X175094685Y-92722342D01*
X175142304Y-92769961D01*
X175237542Y-92817580D01*
X175428019Y-92817580D01*
X175523257Y-92769961D01*
X175570876Y-92722342D01*
X175618495Y-92627104D01*
X175618495Y-92436628D01*
X175570876Y-92341390D01*
X175523257Y-92293771D01*
X175428019Y-92246152D01*
X173285161Y-87292819D02*
X173189923Y-87245200D01*
X173094685Y-87149961D01*
X172951828Y-87007104D01*
X172856590Y-86959485D01*
X172761352Y-86959485D01*
X172808971Y-87197580D02*
X172713733Y-87149961D01*
X172618495Y-87054723D01*
X172570876Y-86864247D01*
X172570876Y-86530914D01*
X172618495Y-86340438D01*
X172713733Y-86245200D01*
X172808971Y-86197580D01*
X172999447Y-86197580D01*
X173094685Y-86245200D01*
X173189923Y-86340438D01*
X173237542Y-86530914D01*
X173237542Y-86864247D01*
X173189923Y-87054723D01*
X173094685Y-87149961D01*
X172999447Y-87197580D01*
X172808971Y-87197580D01*
X173570876Y-86197580D02*
X174189923Y-86197580D01*
X173856590Y-86578533D01*
X173999447Y-86578533D01*
X174094685Y-86626152D01*
X174142304Y-86673771D01*
X174189923Y-86769009D01*
X174189923Y-87007104D01*
X174142304Y-87102342D01*
X174094685Y-87149961D01*
X173999447Y-87197580D01*
X173713733Y-87197580D01*
X173618495Y-87149961D01*
X173570876Y-87102342D01*
%TO.C,J13*%
X141786076Y-47102380D02*
X141786076Y-47816666D01*
X141738457Y-47959523D01*
X141643219Y-48054761D01*
X141500361Y-48102380D01*
X141405123Y-48102380D01*
X142786076Y-48102380D02*
X142214647Y-48102380D01*
X142500361Y-48102380D02*
X142500361Y-47102380D01*
X142405123Y-47245238D01*
X142309885Y-47340476D01*
X142214647Y-47388095D01*
X143119409Y-47102380D02*
X143738457Y-47102380D01*
X143405123Y-47483333D01*
X143547980Y-47483333D01*
X143643219Y-47530952D01*
X143690838Y-47578571D01*
X143738457Y-47673809D01*
X143738457Y-47911904D01*
X143690838Y-48007142D01*
X143643219Y-48054761D01*
X143547980Y-48102380D01*
X143262266Y-48102380D01*
X143167028Y-48054761D01*
X143119409Y-48007142D01*
%TO.C,J14*%
X154994076Y-47102380D02*
X154994076Y-47816666D01*
X154946457Y-47959523D01*
X154851219Y-48054761D01*
X154708361Y-48102380D01*
X154613123Y-48102380D01*
X155994076Y-48102380D02*
X155422647Y-48102380D01*
X155708361Y-48102380D02*
X155708361Y-47102380D01*
X155613123Y-47245238D01*
X155517885Y-47340476D01*
X155422647Y-47388095D01*
X156851219Y-47435714D02*
X156851219Y-48102380D01*
X156613123Y-47054761D02*
X156375028Y-47769047D01*
X156994076Y-47769047D01*
%TO.C,J15*%
X167795676Y-47102380D02*
X167795676Y-47816666D01*
X167748057Y-47959523D01*
X167652819Y-48054761D01*
X167509961Y-48102380D01*
X167414723Y-48102380D01*
X168795676Y-48102380D02*
X168224247Y-48102380D01*
X168509961Y-48102380D02*
X168509961Y-47102380D01*
X168414723Y-47245238D01*
X168319485Y-47340476D01*
X168224247Y-47388095D01*
X169700438Y-47102380D02*
X169224247Y-47102380D01*
X169176628Y-47578571D01*
X169224247Y-47530952D01*
X169319485Y-47483333D01*
X169557580Y-47483333D01*
X169652819Y-47530952D01*
X169700438Y-47578571D01*
X169748057Y-47673809D01*
X169748057Y-47911904D01*
X169700438Y-48007142D01*
X169652819Y-48054761D01*
X169557580Y-48102380D01*
X169319485Y-48102380D01*
X169224247Y-48054761D01*
X169176628Y-48007142D01*
%TO.C,J11*%
X106172076Y-47102380D02*
X106172076Y-47816666D01*
X106124457Y-47959523D01*
X106029219Y-48054761D01*
X105886361Y-48102380D01*
X105791123Y-48102380D01*
X107172076Y-48102380D02*
X106600647Y-48102380D01*
X106886361Y-48102380D02*
X106886361Y-47102380D01*
X106791123Y-47245238D01*
X106695885Y-47340476D01*
X106600647Y-47388095D01*
X108124457Y-48102380D02*
X107553028Y-48102380D01*
X107838742Y-48102380D02*
X107838742Y-47102380D01*
X107743504Y-47245238D01*
X107648266Y-47340476D01*
X107553028Y-47388095D01*
%TO.C,R4*%
X91609942Y-64199180D02*
X91133752Y-64199180D01*
X91086133Y-64675371D01*
X91133752Y-64627752D01*
X91228990Y-64580133D01*
X91467085Y-64580133D01*
X91562323Y-64627752D01*
X91609942Y-64675371D01*
X91657561Y-64770609D01*
X91657561Y-65008704D01*
X91609942Y-65103942D01*
X91562323Y-65151561D01*
X91467085Y-65199180D01*
X91228990Y-65199180D01*
X91133752Y-65151561D01*
X91086133Y-65103942D01*
X92848038Y-65199180D02*
X92848038Y-64199180D01*
X93419466Y-65199180D02*
X92990895Y-64627752D01*
X93419466Y-64199180D02*
X92848038Y-64770609D01*
X92086133Y-59759180D02*
X91752800Y-59282990D01*
X91514704Y-59759180D02*
X91514704Y-58759180D01*
X91895657Y-58759180D01*
X91990895Y-58806800D01*
X92038514Y-58854419D01*
X92086133Y-58949657D01*
X92086133Y-59092514D01*
X92038514Y-59187752D01*
X91990895Y-59235371D01*
X91895657Y-59282990D01*
X91514704Y-59282990D01*
X92943276Y-59092514D02*
X92943276Y-59759180D01*
X92705180Y-58711561D02*
X92467085Y-59425847D01*
X93086133Y-59425847D01*
%TO.C,R9*%
X124325142Y-58735980D02*
X123848952Y-58735980D01*
X123801333Y-59212171D01*
X123848952Y-59164552D01*
X123944190Y-59116933D01*
X124182285Y-59116933D01*
X124277523Y-59164552D01*
X124325142Y-59212171D01*
X124372761Y-59307409D01*
X124372761Y-59545504D01*
X124325142Y-59640742D01*
X124277523Y-59688361D01*
X124182285Y-59735980D01*
X123944190Y-59735980D01*
X123848952Y-59688361D01*
X123801333Y-59640742D01*
X125563238Y-59735980D02*
X125563238Y-58735980D01*
X126134666Y-59735980D02*
X125706095Y-59164552D01*
X126134666Y-58735980D02*
X125563238Y-59307409D01*
X123734533Y-65351580D02*
X123401200Y-64875390D01*
X123163104Y-65351580D02*
X123163104Y-64351580D01*
X123544057Y-64351580D01*
X123639295Y-64399200D01*
X123686914Y-64446819D01*
X123734533Y-64542057D01*
X123734533Y-64684914D01*
X123686914Y-64780152D01*
X123639295Y-64827771D01*
X123544057Y-64875390D01*
X123163104Y-64875390D01*
X124210723Y-65351580D02*
X124401200Y-65351580D01*
X124496438Y-65303961D01*
X124544057Y-65256342D01*
X124639295Y-65113485D01*
X124686914Y-64923009D01*
X124686914Y-64542057D01*
X124639295Y-64446819D01*
X124591676Y-64399200D01*
X124496438Y-64351580D01*
X124305961Y-64351580D01*
X124210723Y-64399200D01*
X124163104Y-64446819D01*
X124115485Y-64542057D01*
X124115485Y-64780152D01*
X124163104Y-64875390D01*
X124210723Y-64923009D01*
X124305961Y-64970628D01*
X124496438Y-64970628D01*
X124591676Y-64923009D01*
X124639295Y-64875390D01*
X124686914Y-64780152D01*
%TO.C,R10*%
X129151142Y-67117980D02*
X128674952Y-67117980D01*
X128627333Y-67594171D01*
X128674952Y-67546552D01*
X128770190Y-67498933D01*
X129008285Y-67498933D01*
X129103523Y-67546552D01*
X129151142Y-67594171D01*
X129198761Y-67689409D01*
X129198761Y-67927504D01*
X129151142Y-68022742D01*
X129103523Y-68070361D01*
X129008285Y-68117980D01*
X128770190Y-68117980D01*
X128674952Y-68070361D01*
X128627333Y-68022742D01*
X130389238Y-68117980D02*
X130389238Y-67117980D01*
X130960666Y-68117980D02*
X130532095Y-67546552D01*
X130960666Y-67117980D02*
X130389238Y-67689409D01*
X123105942Y-70787180D02*
X122772609Y-70310990D01*
X122534514Y-70787180D02*
X122534514Y-69787180D01*
X122915466Y-69787180D01*
X123010704Y-69834800D01*
X123058323Y-69882419D01*
X123105942Y-69977657D01*
X123105942Y-70120514D01*
X123058323Y-70215752D01*
X123010704Y-70263371D01*
X122915466Y-70310990D01*
X122534514Y-70310990D01*
X124058323Y-70787180D02*
X123486895Y-70787180D01*
X123772609Y-70787180D02*
X123772609Y-69787180D01*
X123677371Y-69930038D01*
X123582133Y-70025276D01*
X123486895Y-70072895D01*
X124677371Y-69787180D02*
X124772609Y-69787180D01*
X124867847Y-69834800D01*
X124915466Y-69882419D01*
X124963085Y-69977657D01*
X125010704Y-70168133D01*
X125010704Y-70406228D01*
X124963085Y-70596704D01*
X124915466Y-70691942D01*
X124867847Y-70739561D01*
X124772609Y-70787180D01*
X124677371Y-70787180D01*
X124582133Y-70739561D01*
X124534514Y-70691942D01*
X124486895Y-70596704D01*
X124439276Y-70406228D01*
X124439276Y-70168133D01*
X124486895Y-69977657D01*
X124534514Y-69882419D01*
X124582133Y-69834800D01*
X124677371Y-69787180D01*
%TO.C,R11*%
X127423942Y-75855580D02*
X126947752Y-75855580D01*
X126900133Y-76331771D01*
X126947752Y-76284152D01*
X127042990Y-76236533D01*
X127281085Y-76236533D01*
X127376323Y-76284152D01*
X127423942Y-76331771D01*
X127471561Y-76427009D01*
X127471561Y-76665104D01*
X127423942Y-76760342D01*
X127376323Y-76807961D01*
X127281085Y-76855580D01*
X127042990Y-76855580D01*
X126947752Y-76807961D01*
X126900133Y-76760342D01*
X128662038Y-76855580D02*
X128662038Y-75855580D01*
X129233466Y-76855580D02*
X128804895Y-76284152D01*
X129233466Y-75855580D02*
X128662038Y-76427009D01*
X122902742Y-82420380D02*
X122569409Y-81944190D01*
X122331314Y-82420380D02*
X122331314Y-81420380D01*
X122712266Y-81420380D01*
X122807504Y-81468000D01*
X122855123Y-81515619D01*
X122902742Y-81610857D01*
X122902742Y-81753714D01*
X122855123Y-81848952D01*
X122807504Y-81896571D01*
X122712266Y-81944190D01*
X122331314Y-81944190D01*
X123855123Y-82420380D02*
X123283695Y-82420380D01*
X123569409Y-82420380D02*
X123569409Y-81420380D01*
X123474171Y-81563238D01*
X123378933Y-81658476D01*
X123283695Y-81706095D01*
X124807504Y-82420380D02*
X124236076Y-82420380D01*
X124521790Y-82420380D02*
X124521790Y-81420380D01*
X124426552Y-81563238D01*
X124331314Y-81658476D01*
X124236076Y-81706095D01*
%TO.C,R12*%
X119651542Y-70165980D02*
X119175352Y-70165980D01*
X119127733Y-70642171D01*
X119175352Y-70594552D01*
X119270590Y-70546933D01*
X119508685Y-70546933D01*
X119603923Y-70594552D01*
X119651542Y-70642171D01*
X119699161Y-70737409D01*
X119699161Y-70975504D01*
X119651542Y-71070742D01*
X119603923Y-71118361D01*
X119508685Y-71165980D01*
X119270590Y-71165980D01*
X119175352Y-71118361D01*
X119127733Y-71070742D01*
X120889638Y-71165980D02*
X120889638Y-70165980D01*
X121461066Y-71165980D02*
X121032495Y-70594552D01*
X121461066Y-70165980D02*
X120889638Y-70737409D01*
X122953542Y-76578380D02*
X122620209Y-76102190D01*
X122382114Y-76578380D02*
X122382114Y-75578380D01*
X122763066Y-75578380D01*
X122858304Y-75626000D01*
X122905923Y-75673619D01*
X122953542Y-75768857D01*
X122953542Y-75911714D01*
X122905923Y-76006952D01*
X122858304Y-76054571D01*
X122763066Y-76102190D01*
X122382114Y-76102190D01*
X123905923Y-76578380D02*
X123334495Y-76578380D01*
X123620209Y-76578380D02*
X123620209Y-75578380D01*
X123524971Y-75721238D01*
X123429733Y-75816476D01*
X123334495Y-75864095D01*
X124286876Y-75673619D02*
X124334495Y-75626000D01*
X124429733Y-75578380D01*
X124667828Y-75578380D01*
X124763066Y-75626000D01*
X124810685Y-75673619D01*
X124858304Y-75768857D01*
X124858304Y-75864095D01*
X124810685Y-76006952D01*
X124239257Y-76578380D01*
X124858304Y-76578380D01*
%TO.C,R14*%
X146619980Y-74302857D02*
X146619980Y-74779047D01*
X147096171Y-74826666D01*
X147048552Y-74779047D01*
X147000933Y-74683809D01*
X147000933Y-74445714D01*
X147048552Y-74350476D01*
X147096171Y-74302857D01*
X147191409Y-74255238D01*
X147429504Y-74255238D01*
X147524742Y-74302857D01*
X147572361Y-74350476D01*
X147619980Y-74445714D01*
X147619980Y-74683809D01*
X147572361Y-74779047D01*
X147524742Y-74826666D01*
X147619980Y-73064761D02*
X146619980Y-73064761D01*
X147619980Y-72493333D02*
X147048552Y-72921904D01*
X146619980Y-72493333D02*
X147191409Y-73064761D01*
X152981580Y-75725257D02*
X152505390Y-76058590D01*
X152981580Y-76296685D02*
X151981580Y-76296685D01*
X151981580Y-75915733D01*
X152029200Y-75820495D01*
X152076819Y-75772876D01*
X152172057Y-75725257D01*
X152314914Y-75725257D01*
X152410152Y-75772876D01*
X152457771Y-75820495D01*
X152505390Y-75915733D01*
X152505390Y-76296685D01*
X152981580Y-74772876D02*
X152981580Y-75344304D01*
X152981580Y-75058590D02*
X151981580Y-75058590D01*
X152124438Y-75153828D01*
X152219676Y-75249066D01*
X152267295Y-75344304D01*
X152314914Y-73915733D02*
X152981580Y-73915733D01*
X151933961Y-74153828D02*
X152648247Y-74391923D01*
X152648247Y-73772876D01*
%TO.C,R15*%
X167803580Y-82786457D02*
X167803580Y-83262647D01*
X168279771Y-83310266D01*
X168232152Y-83262647D01*
X168184533Y-83167409D01*
X168184533Y-82929314D01*
X168232152Y-82834076D01*
X168279771Y-82786457D01*
X168375009Y-82738838D01*
X168613104Y-82738838D01*
X168708342Y-82786457D01*
X168755961Y-82834076D01*
X168803580Y-82929314D01*
X168803580Y-83167409D01*
X168755961Y-83262647D01*
X168708342Y-83310266D01*
X168803580Y-81548361D02*
X167803580Y-81548361D01*
X168803580Y-80976933D02*
X168232152Y-81405504D01*
X167803580Y-80976933D02*
X168375009Y-81548361D01*
X163289580Y-82380057D02*
X162813390Y-82713390D01*
X163289580Y-82951485D02*
X162289580Y-82951485D01*
X162289580Y-82570533D01*
X162337200Y-82475295D01*
X162384819Y-82427676D01*
X162480057Y-82380057D01*
X162622914Y-82380057D01*
X162718152Y-82427676D01*
X162765771Y-82475295D01*
X162813390Y-82570533D01*
X162813390Y-82951485D01*
X163289580Y-81427676D02*
X163289580Y-81999104D01*
X163289580Y-81713390D02*
X162289580Y-81713390D01*
X162432438Y-81808628D01*
X162527676Y-81903866D01*
X162575295Y-81999104D01*
X162289580Y-80522914D02*
X162289580Y-80999104D01*
X162765771Y-81046723D01*
X162718152Y-80999104D01*
X162670533Y-80903866D01*
X162670533Y-80665771D01*
X162718152Y-80570533D01*
X162765771Y-80522914D01*
X162861009Y-80475295D01*
X163099104Y-80475295D01*
X163194342Y-80522914D01*
X163241961Y-80570533D01*
X163289580Y-80665771D01*
X163289580Y-80903866D01*
X163241961Y-80999104D01*
X163194342Y-81046723D01*
%TD*%
M02*
