%TF.GenerationSoftware,KiCad,Pcbnew,(5.1.9)-1*%
%TF.CreationDate,2021-11-17T10:25:34-03:00*%
%TF.ProjectId,MODULO-IoT,4d4f4455-4c4f-42d4-996f-542e6b696361,rev?*%
%TF.SameCoordinates,Original*%
%TF.FileFunction,Copper,L2,Bot*%
%TF.FilePolarity,Positive*%
%FSLAX46Y46*%
G04 Gerber Fmt 4.6, Leading zero omitted, Abs format (unit mm)*
G04 Created by KiCad (PCBNEW (5.1.9)-1) date 2021-11-17 10:25:34*
%MOMM*%
%LPD*%
G01*
G04 APERTURE LIST*
%TA.AperFunction,NonConductor*%
%ADD10C,0.125000*%
%TD*%
%TA.AperFunction,ComponentPad*%
%ADD11O,1.700000X1.700000*%
%TD*%
%TA.AperFunction,ComponentPad*%
%ADD12R,1.700000X1.700000*%
%TD*%
%TA.AperFunction,ComponentPad*%
%ADD13O,1.800000X1.800000*%
%TD*%
%TA.AperFunction,ComponentPad*%
%ADD14R,1.800000X1.800000*%
%TD*%
%TA.AperFunction,ComponentPad*%
%ADD15C,2.600000*%
%TD*%
%TA.AperFunction,ComponentPad*%
%ADD16R,2.600000X2.600000*%
%TD*%
%TA.AperFunction,ComponentPad*%
%ADD17O,2.500000X2.500000*%
%TD*%
%TA.AperFunction,ComponentPad*%
%ADD18R,2.500000X2.500000*%
%TD*%
%TA.AperFunction,ComponentPad*%
%ADD19O,1.600000X1.600000*%
%TD*%
%TA.AperFunction,ComponentPad*%
%ADD20C,1.600000*%
%TD*%
%TA.AperFunction,ComponentPad*%
%ADD21R,1.600000X1.600000*%
%TD*%
%TA.AperFunction,ComponentPad*%
%ADD22R,1.500000X1.500000*%
%TD*%
%TA.AperFunction,ComponentPad*%
%ADD23C,1.500000*%
%TD*%
%TA.AperFunction,ComponentPad*%
%ADD24R,1.560000X1.560000*%
%TD*%
%TA.AperFunction,ComponentPad*%
%ADD25C,1.560000*%
%TD*%
%TA.AperFunction,ComponentPad*%
%ADD26R,2.400000X1.600000*%
%TD*%
%TA.AperFunction,ComponentPad*%
%ADD27O,2.400000X1.600000*%
%TD*%
%TA.AperFunction,ComponentPad*%
%ADD28C,2.010000*%
%TD*%
%TA.AperFunction,ViaPad*%
%ADD29C,4.000000*%
%TD*%
%TA.AperFunction,ViaPad*%
%ADD30C,2.000000*%
%TD*%
%TA.AperFunction,Conductor*%
%ADD31C,0.500000*%
%TD*%
%TA.AperFunction,Conductor*%
%ADD32C,2.000000*%
%TD*%
%TA.AperFunction,Conductor*%
%ADD33C,1.000000*%
%TD*%
%TA.AperFunction,Conductor*%
%ADD34C,0.250000*%
%TD*%
%TA.AperFunction,Conductor*%
%ADD35C,3.000000*%
%TD*%
G04 APERTURE END LIST*
D10*
X125952266Y-100200666D02*
X125618933Y-100200666D01*
X125585600Y-100534000D01*
X125618933Y-100500666D01*
X125685600Y-100467333D01*
X125852266Y-100467333D01*
X125918933Y-100500666D01*
X125952266Y-100534000D01*
X125985600Y-100600666D01*
X125985600Y-100767333D01*
X125952266Y-100834000D01*
X125918933Y-100867333D01*
X125852266Y-100900666D01*
X125685600Y-100900666D01*
X125618933Y-100867333D01*
X125585600Y-100834000D01*
X126185600Y-100200666D02*
X126418933Y-100900666D01*
X126652266Y-100200666D01*
D11*
%TO.P,J4,2*%
%TO.N,Net-(J3-Pad2)*%
X86055200Y-127762000D03*
D12*
%TO.P,J4,1*%
%TO.N,Net-(D3-Pad1)*%
X86055200Y-130302000D03*
%TD*%
D13*
%TO.P,D3,2*%
%TO.N,Net-(D1-Pad2)*%
X94335600Y-144576800D03*
D14*
%TO.P,D3,1*%
%TO.N,Net-(D3-Pad1)*%
X94335600Y-142036800D03*
%TD*%
D15*
%TO.P,J10,2*%
%TO.N,Net-(J10-Pad2)*%
X168554400Y-143052800D03*
D16*
%TO.P,J10,1*%
%TO.N,Net-(J10-Pad1)*%
X163474400Y-143052800D03*
%TD*%
D15*
%TO.P,J9,2*%
%TO.N,Net-(J10-Pad2)*%
X181203600Y-143002000D03*
D16*
%TO.P,J9,1*%
%TO.N,Net-(J9-Pad1)*%
X176123600Y-143002000D03*
%TD*%
D15*
%TO.P,J8,2*%
%TO.N,Net-(J10-Pad2)*%
X193903600Y-143002000D03*
D16*
%TO.P,J8,1*%
%TO.N,Net-(J8-Pad1)*%
X188823600Y-143002000D03*
%TD*%
D17*
%TO.P,K3,5*%
%TO.N,Net-(D1-Pad2)*%
X182086000Y-62427600D03*
%TO.P,K3,4*%
%TO.N,Net-(K3-Pad4)*%
X194286000Y-62427600D03*
%TO.P,K3,3*%
%TO.N,Net-(J17-Pad1)*%
X194286000Y-74427600D03*
%TO.P,K3,2*%
%TO.N,Net-(D1-Pad1)*%
X182086000Y-74427600D03*
D18*
%TO.P,K3,1*%
%TO.N,Net-(J17-Pad2)*%
X180086000Y-68427600D03*
%TD*%
D19*
%TO.P,R7,2*%
%TO.N,Net-(J12-Pad2)*%
X135432800Y-76352400D03*
D20*
%TO.P,R7,1*%
%TO.N,GND*%
X135432800Y-86512400D03*
%TD*%
D15*
%TO.P,J12,2*%
%TO.N,Net-(J12-Pad2)*%
X127050800Y-50850000D03*
D16*
%TO.P,J12,1*%
%TO.N,Net-(Interno1-Pad1)*%
X132130800Y-50850000D03*
%TD*%
D17*
%TO.P,K2,5*%
%TO.N,Net-(D1-Pad2)*%
X159276800Y-62376800D03*
%TO.P,K2,4*%
%TO.N,Net-(K2-Pad4)*%
X171476800Y-62376800D03*
%TO.P,K2,3*%
%TO.N,Net-(J16-Pad1)*%
X171476800Y-74376800D03*
%TO.P,K2,2*%
%TO.N,Net-(D2-Pad1)*%
X159276800Y-74376800D03*
D18*
%TO.P,K2,1*%
%TO.N,Net-(J16-Pad2)*%
X157276800Y-68376800D03*
%TD*%
D15*
%TO.P,J16,2*%
%TO.N,Net-(J16-Pad2)*%
X179120800Y-50850000D03*
D16*
%TO.P,J16,1*%
%TO.N,Net-(J16-Pad1)*%
X184200800Y-50850000D03*
%TD*%
D19*
%TO.P,U7,6*%
%TO.N,Net-(J5-Pad1)*%
X159461200Y-124561600D03*
%TO.P,U7,3*%
%TO.N,Net-(U7-Pad3)*%
X151841200Y-129641600D03*
%TO.P,U7,5*%
%TO.N,Net-(U7-Pad5)*%
X159461200Y-127101600D03*
%TO.P,U7,2*%
%TO.N,GND*%
X151841200Y-127101600D03*
%TO.P,U7,4*%
%TO.N,Net-(J9-Pad1)*%
X159461200Y-129641600D03*
D21*
%TO.P,U7,1*%
%TO.N,Net-(R2-Pad1)*%
X151841200Y-124561600D03*
%TD*%
D14*
%TO.P,D1,1*%
%TO.N,Net-(D1-Pad1)*%
X173228000Y-80568800D03*
D13*
%TO.P,D1,2*%
%TO.N,Net-(D1-Pad2)*%
X175768000Y-80568800D03*
%TD*%
%TO.P,D2,2*%
%TO.N,Net-(D1-Pad2)*%
X149707600Y-63449200D03*
D14*
%TO.P,D2,1*%
%TO.N,Net-(D2-Pad1)*%
X149707600Y-65989200D03*
%TD*%
D16*
%TO.P,J1,1*%
%TO.N,Net-(J1-Pad1)*%
X204114400Y-97383600D03*
D15*
%TO.P,J1,2*%
%TO.N,Net-(F3-Pad1)*%
X204114400Y-92303600D03*
%TO.P,J1,3*%
%TO.N,Net-(F2-Pad1)*%
X204114400Y-87223600D03*
%TO.P,J1,4*%
%TO.N,Net-(F1-Pad1)*%
X204114400Y-82143600D03*
%TD*%
D11*
%TO.P,J2,2*%
%TO.N,Net-(J1-Pad1)*%
X190855600Y-99822000D03*
D12*
%TO.P,J2,1*%
%TO.N,Net-(F3-Pad2)*%
X188315600Y-99822000D03*
%TD*%
D15*
%TO.P,J5,4*%
%TO.N,Net-(J1-Pad1)*%
X198577200Y-112725200D03*
%TO.P,J5,3*%
%TO.N,Net-(J5-Pad3)*%
X198577200Y-117805200D03*
%TO.P,J5,2*%
%TO.N,Net-(J10-Pad2)*%
X198577200Y-122885200D03*
D16*
%TO.P,J5,1*%
%TO.N,Net-(J5-Pad1)*%
X198577200Y-127965200D03*
%TD*%
%TO.P,J17,1*%
%TO.N,Net-(J17-Pad1)*%
X196900800Y-50850000D03*
D15*
%TO.P,J17,2*%
%TO.N,Net-(J17-Pad2)*%
X191820800Y-50850000D03*
%TD*%
D12*
%TO.P,J7,1*%
%TO.N,GND*%
X135128000Y-97637600D03*
D11*
%TO.P,J7,2*%
%TO.N,Net-(J7-Pad2)*%
X132588000Y-97637600D03*
%TO.P,J7,3*%
%TO.N,Net-(J7-Pad3)*%
X130048000Y-97637600D03*
%TO.P,J7,4*%
%TO.N,Net-(D1-Pad2)*%
X127508000Y-97637600D03*
%TD*%
D19*
%TO.P,R1,2*%
%TO.N,Net-(R1-Pad2)*%
X132029200Y-138480800D03*
D20*
%TO.P,R1,1*%
%TO.N,Net-(R1-Pad1)*%
X142189200Y-138480800D03*
%TD*%
%TO.P,R2,1*%
%TO.N,Net-(R2-Pad1)*%
X142290800Y-134416800D03*
D19*
%TO.P,R2,2*%
%TO.N,Net-(R2-Pad2)*%
X132130800Y-134416800D03*
%TD*%
%TO.P,R3,2*%
%TO.N,Net-(R3-Pad2)*%
X132080000Y-130505200D03*
D20*
%TO.P,R3,1*%
%TO.N,Net-(R3-Pad1)*%
X142240000Y-130505200D03*
%TD*%
%TO.P,R5,1*%
%TO.N,Net-(J13-Pad2)*%
X146202400Y-92405200D03*
D19*
%TO.P,R5,2*%
%TO.N,GND*%
X146202400Y-102565200D03*
%TD*%
D20*
%TO.P,R6,1*%
%TO.N,Net-(J14-Pad2)*%
X154686000Y-92303600D03*
D19*
%TO.P,R6,2*%
%TO.N,GND*%
X154686000Y-102463600D03*
%TD*%
D20*
%TO.P,R8,1*%
%TO.N,Net-(J15-Pad2)*%
X163372800Y-92303600D03*
D19*
%TO.P,R8,2*%
%TO.N,GND*%
X163372800Y-102463600D03*
%TD*%
D22*
%TO.P,Interno,1*%
%TO.N,Net-(Interno1-Pad1)*%
X91694000Y-76149200D03*
D23*
%TO.P,Interno,2*%
%TO.N,Net-(Interno1-Pad2)*%
X91694000Y-73609200D03*
%TO.P,Interno,3*%
%TO.N,Net-(Interno1-Pad3)*%
X91694000Y-71069200D03*
%TO.P,Interno,4*%
%TO.N,N/C*%
X91694000Y-68529200D03*
%TD*%
D24*
%TO.P,U1,1*%
%TO.N,Net-(Interno1-Pad1)*%
X91186000Y-90476000D03*
D25*
%TO.P,U1,2*%
%TO.N,Net-(U1-Pad2)*%
X91186000Y-93016000D03*
%TO.P,U1,19*%
%TO.N,Net-(D1-Pad2)*%
X91186000Y-136196000D03*
%TO.P,U1,3*%
%TO.N,Net-(U1-Pad3)*%
X91186000Y-95556000D03*
%TO.P,U1,4*%
%TO.N,Net-(U1-Pad4)*%
X91186000Y-98096000D03*
%TO.P,U1,5*%
%TO.N,Net-(U1-Pad5)*%
X91186000Y-100636000D03*
%TO.P,U1,6*%
%TO.N,Net-(U1-Pad6)*%
X91186000Y-103176000D03*
%TO.P,U1,7*%
%TO.N,Net-(U1-Pad7)*%
X91186000Y-105716000D03*
%TO.P,U1,8*%
%TO.N,Net-(U1-Pad8)*%
X91186000Y-108256000D03*
%TO.P,U1,9*%
%TO.N,Net-(R14-Pad2)*%
X91186000Y-110796000D03*
%TO.P,U1,10*%
%TO.N,Net-(R15-Pad2)*%
X91186000Y-113336000D03*
%TO.P,U1,11*%
%TO.N,Net-(R3-Pad2)*%
X91186000Y-115876000D03*
%TO.P,U1,12*%
%TO.N,Net-(R2-Pad2)*%
X91186000Y-118416000D03*
%TO.P,U1,13*%
%TO.N,Net-(R1-Pad2)*%
X91186000Y-120956000D03*
%TO.P,U1,14*%
%TO.N,Net-(J3-Pad2)*%
X91186000Y-123496000D03*
%TO.P,U1,15*%
%TO.N,Net-(U1-Pad15)*%
X91186000Y-126036000D03*
%TO.P,U1,16*%
%TO.N,Net-(U1-Pad16)*%
X91186000Y-128576000D03*
%TO.P,U1,17*%
%TO.N,Net-(U1-Pad17)*%
X91186000Y-131116000D03*
%TO.P,U1,18*%
%TO.N,Net-(U1-Pad18)*%
X91186000Y-133656000D03*
%TO.P,U1,20*%
%TO.N,Net-(J11-Pad6)*%
X116586000Y-90476000D03*
%TO.P,U1,21*%
%TO.N,Net-(U1-Pad21)*%
X116586000Y-93016000D03*
%TO.P,U1,22*%
%TO.N,Net-(U1-Pad22)*%
X116586000Y-95556000D03*
%TO.P,U1,23*%
%TO.N,Net-(U1-Pad23)*%
X116586000Y-98096000D03*
%TO.P,U1,24*%
%TO.N,Net-(U1-Pad24)*%
X116586000Y-100636000D03*
%TO.P,U1,25*%
%TO.N,Net-(J12-Pad2)*%
X116586000Y-103176000D03*
%TO.P,U1,26*%
%TO.N,GND*%
X116586000Y-105716000D03*
%TO.P,U1,27*%
%TO.N,Net-(J13-Pad2)*%
X116586000Y-108256000D03*
%TO.P,U1,28*%
%TO.N,Net-(J14-Pad2)*%
X116586000Y-110796000D03*
%TO.P,U1,29*%
%TO.N,Net-(J15-Pad2)*%
X116586000Y-113336000D03*
%TO.P,U1,30*%
%TO.N,Net-(U1-Pad30)*%
X116586000Y-115876000D03*
%TO.P,U1,31*%
%TO.N,Net-(U1-Pad31)*%
X116586000Y-118416000D03*
%TO.P,U1,32*%
%TO.N,Net-(U1-Pad32)*%
X116586000Y-120956000D03*
%TO.P,U1,33*%
%TO.N,Net-(U1-Pad33)*%
X116586000Y-123496000D03*
%TO.P,U1,34*%
%TO.N,Net-(U1-Pad34)*%
X116586000Y-126036000D03*
%TO.P,U1,35*%
%TO.N,Net-(Interno1-Pad2)*%
X116586000Y-128576000D03*
%TO.P,U1,36*%
%TO.N,Net-(U1-Pad36)*%
X116586000Y-131116000D03*
%TO.P,U1,37*%
%TO.N,Net-(U1-Pad37)*%
X116586000Y-133656000D03*
%TO.P,U1,38*%
%TO.N,Net-(U1-Pad38)*%
X116586000Y-136196000D03*
%TD*%
D26*
%TO.P,U2,1*%
%TO.N,Net-(U1-Pad30)*%
X131876800Y-110083600D03*
D27*
%TO.P,U2,7*%
%TO.N,Net-(U2-Pad7)*%
X142036800Y-122783600D03*
%TO.P,U2,2*%
%TO.N,Net-(U1-Pad31)*%
X131876800Y-112623600D03*
%TO.P,U2,8*%
%TO.N,Net-(U2-Pad8)*%
X142036800Y-120243600D03*
%TO.P,U2,3*%
%TO.N,Net-(Interno1-Pad1)*%
X131876800Y-115163600D03*
%TO.P,U2,9*%
%TO.N,GND*%
X142036800Y-117703600D03*
%TO.P,U2,4*%
X131876800Y-117703600D03*
%TO.P,U2,10*%
%TO.N,Net-(D1-Pad2)*%
X142036800Y-115163600D03*
%TO.P,U2,5*%
%TO.N,Net-(U2-Pad5)*%
X131876800Y-120243600D03*
%TO.P,U2,11*%
%TO.N,Net-(J7-Pad3)*%
X142036800Y-112623600D03*
%TO.P,U2,6*%
%TO.N,Net-(U2-Pad6)*%
X131876800Y-122783600D03*
%TO.P,U2,12*%
%TO.N,Net-(J7-Pad2)*%
X142036800Y-110083600D03*
%TD*%
D19*
%TO.P,U3,6*%
%TO.N,Net-(J5-Pad3)*%
X180390800Y-103124000D03*
%TO.P,U3,3*%
%TO.N,Net-(U3-Pad3)*%
X172770800Y-108204000D03*
%TO.P,U3,5*%
%TO.N,Net-(U3-Pad5)*%
X180390800Y-105664000D03*
%TO.P,U3,2*%
%TO.N,GND*%
X172770800Y-105664000D03*
%TO.P,U3,4*%
%TO.N,Net-(F1-Pad2)*%
X180390800Y-108204000D03*
D21*
%TO.P,U3,1*%
%TO.N,Net-(R3-Pad1)*%
X172770800Y-103124000D03*
%TD*%
%TO.P,U4,1*%
%TO.N,Net-(R2-Pad1)*%
X172466000Y-113944400D03*
D19*
%TO.P,U4,4*%
%TO.N,Net-(F2-Pad2)*%
X180086000Y-119024400D03*
%TO.P,U4,2*%
%TO.N,GND*%
X172466000Y-116484400D03*
%TO.P,U4,5*%
%TO.N,Net-(U4-Pad5)*%
X180086000Y-116484400D03*
%TO.P,U4,3*%
%TO.N,Net-(U4-Pad3)*%
X172466000Y-119024400D03*
%TO.P,U4,6*%
%TO.N,Net-(J5-Pad3)*%
X180086000Y-113944400D03*
%TD*%
%TO.P,U5,6*%
%TO.N,Net-(J5-Pad3)*%
X179679600Y-124917200D03*
%TO.P,U5,3*%
%TO.N,Net-(U5-Pad3)*%
X172059600Y-129997200D03*
%TO.P,U5,5*%
%TO.N,Net-(U5-Pad5)*%
X179679600Y-127457200D03*
%TO.P,U5,2*%
%TO.N,GND*%
X172059600Y-127457200D03*
%TO.P,U5,4*%
%TO.N,Net-(F3-Pad2)*%
X179679600Y-129997200D03*
D21*
%TO.P,U5,1*%
%TO.N,Net-(R1-Pad1)*%
X172059600Y-124917200D03*
%TD*%
%TO.P,U6,1*%
%TO.N,Net-(R3-Pad1)*%
X151384000Y-113334800D03*
D19*
%TO.P,U6,4*%
%TO.N,Net-(J8-Pad1)*%
X159004000Y-118414800D03*
%TO.P,U6,2*%
%TO.N,GND*%
X151384000Y-115874800D03*
%TO.P,U6,5*%
%TO.N,Net-(U6-Pad5)*%
X159004000Y-115874800D03*
%TO.P,U6,3*%
%TO.N,Net-(U6-Pad3)*%
X151384000Y-118414800D03*
%TO.P,U6,6*%
%TO.N,Net-(J5-Pad1)*%
X159004000Y-113334800D03*
%TD*%
D21*
%TO.P,U8,1*%
%TO.N,Net-(R1-Pad1)*%
X148336000Y-136296400D03*
D19*
%TO.P,U8,4*%
%TO.N,Net-(J10-Pad1)*%
X155956000Y-141376400D03*
%TO.P,U8,2*%
%TO.N,GND*%
X148336000Y-138836400D03*
%TO.P,U8,5*%
%TO.N,Net-(U8-Pad5)*%
X155956000Y-138836400D03*
%TO.P,U8,3*%
%TO.N,Net-(U8-Pad3)*%
X148336000Y-141376400D03*
%TO.P,U8,6*%
%TO.N,Net-(J5-Pad1)*%
X155956000Y-136296400D03*
%TD*%
D28*
%TO.P,F1,1*%
%TO.N,Net-(F1-Pad1)*%
X191414400Y-81737200D03*
%TO.P,F1,2*%
%TO.N,Net-(F1-Pad2)*%
X186314400Y-80537200D03*
%TD*%
%TO.P,F2,2*%
%TO.N,Net-(F2-Pad2)*%
X186517600Y-86328400D03*
%TO.P,F2,1*%
%TO.N,Net-(F2-Pad1)*%
X191617600Y-87528400D03*
%TD*%
%TO.P,F3,1*%
%TO.N,Net-(F3-Pad1)*%
X191719200Y-93573600D03*
%TO.P,F3,2*%
%TO.N,Net-(F3-Pad2)*%
X186619200Y-92373600D03*
%TD*%
D26*
%TO.P,U9,1*%
%TO.N,Net-(Interno1-Pad2)*%
X104241600Y-64617600D03*
D27*
%TO.P,U9,7*%
%TO.N,Net-(J11-Pad5)*%
X114401600Y-77317600D03*
%TO.P,U9,2*%
%TO.N,Net-(U1-Pad34)*%
X104241600Y-67157600D03*
%TO.P,U9,8*%
%TO.N,Net-(J11-Pad4)*%
X114401600Y-74777600D03*
%TO.P,U9,3*%
%TO.N,Net-(Interno1-Pad1)*%
X104241600Y-69697600D03*
%TO.P,U9,9*%
%TO.N,Net-(J11-Pad6)*%
X114401600Y-72237600D03*
%TO.P,U9,4*%
X104241600Y-72237600D03*
%TO.P,U9,10*%
%TO.N,Net-(D1-Pad2)*%
X114401600Y-69697600D03*
%TO.P,U9,5*%
%TO.N,Net-(U1-Pad33)*%
X104241600Y-74777600D03*
%TO.P,U9,11*%
%TO.N,Net-(J11-Pad3)*%
X114401600Y-67157600D03*
%TO.P,U9,6*%
%TO.N,Net-(U1-Pad32)*%
X104241600Y-77317600D03*
%TO.P,U9,12*%
%TO.N,Net-(J11-Pad2)*%
X114401600Y-64617600D03*
%TD*%
D12*
%TO.P,J3,1*%
%TO.N,Net-(D1-Pad2)*%
X103378000Y-143205200D03*
D11*
%TO.P,J3,2*%
%TO.N,Net-(J3-Pad2)*%
X100838000Y-143205200D03*
%TD*%
D13*
%TO.P,Q1,3*%
%TO.N,GND*%
X157378400Y-87122000D03*
%TO.P,Q1,2*%
%TO.N,Net-(Q1-Pad2)*%
X157378400Y-84582000D03*
D14*
%TO.P,Q1,1*%
%TO.N,Net-(D2-Pad1)*%
X157378400Y-82042000D03*
%TD*%
%TO.P,Q3,1*%
%TO.N,Net-(D1-Pad1)*%
X170840400Y-89865200D03*
D13*
%TO.P,Q3,2*%
%TO.N,Net-(Q3-Pad2)*%
X173380400Y-89865200D03*
%TO.P,Q3,3*%
%TO.N,GND*%
X175920400Y-89865200D03*
%TD*%
D16*
%TO.P,J13,1*%
%TO.N,Net-(Interno1-Pad1)*%
X145135600Y-50850000D03*
D15*
%TO.P,J13,2*%
%TO.N,Net-(J13-Pad2)*%
X140055600Y-50850000D03*
%TD*%
%TO.P,J14,2*%
%TO.N,Net-(J14-Pad2)*%
X153263600Y-50850000D03*
D16*
%TO.P,J14,1*%
%TO.N,Net-(Interno1-Pad1)*%
X158343600Y-50850000D03*
%TD*%
%TO.P,J15,1*%
%TO.N,Net-(Interno1-Pad1)*%
X171145200Y-50850000D03*
D15*
%TO.P,J15,2*%
%TO.N,Net-(J15-Pad2)*%
X166065200Y-50850000D03*
%TD*%
D16*
%TO.P,J11,1*%
%TO.N,Net-(D1-Pad2)*%
X119481600Y-50850000D03*
D15*
%TO.P,J11,2*%
%TO.N,Net-(J11-Pad2)*%
X114481600Y-50850000D03*
%TO.P,J11,3*%
%TO.N,Net-(J11-Pad3)*%
X109481600Y-50850000D03*
%TO.P,J11,4*%
%TO.N,Net-(J11-Pad4)*%
X104481600Y-50850000D03*
%TO.P,J11,5*%
%TO.N,Net-(J11-Pad5)*%
X99481600Y-50850000D03*
%TO.P,J11,6*%
%TO.N,Net-(J11-Pad6)*%
X94481600Y-50850000D03*
%TD*%
D20*
%TO.P,R4,1*%
%TO.N,Net-(Interno1-Pad1)*%
X89712800Y-62026800D03*
D19*
%TO.P,R4,2*%
%TO.N,Net-(Interno1-Pad2)*%
X94792800Y-62026800D03*
%TD*%
%TO.P,R9,2*%
%TO.N,Net-(J11-Pad2)*%
X121361200Y-62179200D03*
D20*
%TO.P,R9,1*%
%TO.N,Net-(D1-Pad2)*%
X126441200Y-62179200D03*
%TD*%
%TO.P,R10,1*%
%TO.N,Net-(D1-Pad2)*%
X126288800Y-67614800D03*
D19*
%TO.P,R10,2*%
%TO.N,Net-(J11-Pad3)*%
X121208800Y-67614800D03*
%TD*%
%TO.P,R11,2*%
%TO.N,Net-(J11-Pad5)*%
X121005600Y-79248000D03*
D20*
%TO.P,R11,1*%
%TO.N,Net-(D1-Pad2)*%
X126085600Y-79248000D03*
%TD*%
%TO.P,R12,1*%
%TO.N,Net-(D1-Pad2)*%
X126136400Y-73406000D03*
D19*
%TO.P,R12,2*%
%TO.N,Net-(J11-Pad4)*%
X121056400Y-73406000D03*
%TD*%
D20*
%TO.P,R14,1*%
%TO.N,Net-(Q1-Pad2)*%
X149809200Y-72542400D03*
D19*
%TO.P,R14,2*%
%TO.N,Net-(R14-Pad2)*%
X149809200Y-77622400D03*
%TD*%
%TO.P,R15,2*%
%TO.N,Net-(R15-Pad2)*%
X165557200Y-79197200D03*
D20*
%TO.P,R15,1*%
%TO.N,Net-(Q3-Pad2)*%
X165557200Y-84277200D03*
%TD*%
D29*
%TO.N,*%
X194564000Y-106984800D03*
X194513200Y-132892800D03*
X125272800Y-106934000D03*
X125323600Y-132791200D03*
D30*
X180492400Y-96418400D03*
X183286400Y-81483200D03*
X185674000Y-96418400D03*
D29*
X203809600Y-138379200D03*
X204774800Y-56896000D03*
X85750400Y-56997600D03*
X149961600Y-83820000D03*
X85547200Y-138328400D03*
D30*
%TO.N,Net-(F2-Pad2)*%
X183235600Y-85394800D03*
%TD*%
D31*
%TO.N,*%
X92303600Y-52730400D02*
X93037399Y-51996601D01*
D32*
X92731599Y-51690801D02*
X92731599Y-51409600D01*
D31*
X92731599Y-51690801D02*
X93037399Y-51996601D01*
D33*
X92303600Y-67919600D02*
X91694000Y-68529200D01*
X92303600Y-51868800D02*
X92303600Y-67919600D01*
X92481599Y-51690801D02*
X92303600Y-51868800D01*
D31*
%TO.N,Net-(D1-Pad1)*%
X170840400Y-89865200D02*
X170840400Y-80721200D01*
X170992800Y-80568800D02*
X173228000Y-80568800D01*
X170840400Y-80721200D02*
X170992800Y-80568800D01*
X177083200Y-74427600D02*
X182086000Y-74427600D01*
X173228000Y-78282800D02*
X177083200Y-74427600D01*
X173228000Y-80568800D02*
X173228000Y-78282800D01*
%TO.N,Net-(D1-Pad2)*%
X158204400Y-63449200D02*
X159276800Y-62376800D01*
X149707600Y-63449200D02*
X158204400Y-63449200D01*
X115519200Y-69545200D02*
X120091200Y-69545200D01*
X124053600Y-70002400D02*
X123596400Y-69545200D01*
X121666000Y-69545200D02*
X122072400Y-69545200D01*
X121259600Y-69545200D02*
X121666000Y-69545200D01*
X123494800Y-69443600D02*
X123596400Y-69545200D01*
X123494800Y-59690000D02*
X123494800Y-69443600D01*
X119481600Y-50850800D02*
X119481600Y-58115200D01*
X126136400Y-70002400D02*
X126288800Y-70154800D01*
X124053600Y-70002400D02*
X126136400Y-70002400D01*
X126288800Y-67614800D02*
X126288800Y-70154800D01*
X127304800Y-97840800D02*
X127508000Y-97637600D01*
X126288800Y-62331600D02*
X126441200Y-62179200D01*
X126288800Y-63449200D02*
X126288800Y-62331600D01*
X126288800Y-63195200D02*
X126288800Y-63449200D01*
X126288800Y-63449200D02*
X126288800Y-67614800D01*
X123494800Y-59690000D02*
X122326400Y-59690000D01*
X120091200Y-69545200D02*
X121666000Y-69545200D01*
X126136400Y-79197200D02*
X126085600Y-79248000D01*
X126136400Y-73406000D02*
X126136400Y-79197200D01*
X126136400Y-70307200D02*
X126288800Y-70154800D01*
X126136400Y-73406000D02*
X126136400Y-70307200D01*
X120751600Y-58115200D02*
X122326400Y-59690000D01*
X119481600Y-58115200D02*
X120751600Y-58115200D01*
X122885200Y-99212400D02*
X122885200Y-69697600D01*
X126898400Y-99212400D02*
X122885200Y-99212400D01*
X127508000Y-98602800D02*
X126898400Y-99212400D01*
X127508000Y-97637600D02*
X127508000Y-98602800D01*
X122885200Y-69697600D02*
X123037600Y-69545200D01*
X123037600Y-69545200D02*
X121666000Y-69545200D01*
X123596400Y-69545200D02*
X123037600Y-69545200D01*
D33*
%TO.N,Net-(J3-Pad2)*%
X100787200Y-143154400D02*
X100838000Y-143205200D01*
X91186000Y-123496000D02*
X94183200Y-126493200D01*
X94183200Y-126493200D02*
X94183200Y-129743200D01*
X100838000Y-136398000D02*
X100838000Y-143205200D01*
X94183200Y-129743200D02*
X100838000Y-136398000D01*
X91186000Y-123496000D02*
X86511200Y-123496000D01*
X86055200Y-123952000D02*
X86055200Y-127762000D01*
X86511200Y-123496000D02*
X86055200Y-123952000D01*
%TO.N,GND*%
X151384000Y-115874800D02*
X155600400Y-115874800D01*
X172059600Y-127457200D02*
X169468800Y-127457200D01*
X169468800Y-127457200D02*
X169418000Y-127406400D01*
X169418000Y-127406400D02*
X169418000Y-116586000D01*
X169519600Y-116484400D02*
X172466000Y-116484400D01*
X169418000Y-116586000D02*
X169519600Y-116484400D01*
X155600400Y-115874800D02*
X155600400Y-109524800D01*
X155600400Y-109524800D02*
X155854400Y-109270800D01*
X155854400Y-109270800D02*
X169418000Y-109270800D01*
X169418000Y-109270800D02*
X169519600Y-109372400D01*
X169519600Y-110998000D02*
X175056800Y-110998000D01*
X169519600Y-109372400D02*
X169519600Y-110998000D01*
X169519600Y-110998000D02*
X169519600Y-116484400D01*
X175056800Y-110998000D02*
X175666400Y-110388400D01*
X175514000Y-105664000D02*
X172770800Y-105664000D01*
X175666400Y-105816400D02*
X175514000Y-105664000D01*
X175666400Y-110388400D02*
X175666400Y-105816400D01*
X142036800Y-117703600D02*
X146253200Y-117703600D01*
X148082000Y-115874800D02*
X151384000Y-115874800D01*
X146253200Y-117703600D02*
X148082000Y-115874800D01*
X116586000Y-105716000D02*
X119328000Y-105716000D01*
X119328000Y-105716000D02*
X121716800Y-103327200D01*
X121716800Y-103327200D02*
X133096000Y-103327200D01*
X133096000Y-103327200D02*
X133045200Y-103276400D01*
X131876800Y-117703600D02*
X135432800Y-117703600D01*
X135432800Y-117703600D02*
X142036800Y-117703600D01*
X133096000Y-103327200D02*
X133096000Y-105156000D01*
X135432800Y-107492800D02*
X135432800Y-117703600D01*
X133096000Y-105156000D02*
X135432800Y-107492800D01*
X135026400Y-97739200D02*
X135128000Y-97637600D01*
X135026400Y-103327200D02*
X135026400Y-97739200D01*
X133096000Y-103327200D02*
X135026400Y-103327200D01*
X141274800Y-97637600D02*
X135128000Y-97637600D01*
X146202400Y-102565200D02*
X141274800Y-97637600D01*
X154584400Y-102565200D02*
X154686000Y-102463600D01*
X146202400Y-102565200D02*
X154584400Y-102565200D01*
X154686000Y-102463600D02*
X163372800Y-102463600D01*
X175920400Y-105257600D02*
X175514000Y-105664000D01*
X135128000Y-86817200D02*
X135432800Y-86512400D01*
X135128000Y-97637600D02*
X135128000Y-86817200D01*
X157378400Y-87122000D02*
X163169600Y-87122000D01*
X170332400Y-94284800D02*
X175920400Y-94284800D01*
X163169600Y-87122000D02*
X170332400Y-94284800D01*
X175920400Y-94284800D02*
X175920400Y-105257600D01*
X175920400Y-89865200D02*
X175920400Y-94284800D01*
X155854400Y-116128800D02*
X155600400Y-115874800D01*
X155854400Y-126949200D02*
X155854400Y-116128800D01*
X155702000Y-127101600D02*
X155854400Y-126949200D01*
X151841200Y-127101600D02*
X155702000Y-127101600D01*
X155702000Y-130454400D02*
X155702000Y-127101600D01*
X153924000Y-132232400D02*
X155702000Y-130454400D01*
X151485600Y-138379200D02*
X151485600Y-132435600D01*
X151688800Y-132232400D02*
X153924000Y-132232400D01*
X151485600Y-132435600D02*
X151688800Y-132232400D01*
X151028400Y-138836400D02*
X151485600Y-138379200D01*
X148336000Y-138836400D02*
X151028400Y-138836400D01*
%TO.N,Net-(J5-Pad3)*%
X180390800Y-103124000D02*
X183540400Y-103124000D01*
X183540400Y-103124000D02*
X183743600Y-103327200D01*
X183743600Y-103327200D02*
X183743600Y-113741200D01*
X183540400Y-113944400D02*
X180086000Y-113944400D01*
X183743600Y-113741200D02*
X183540400Y-113944400D01*
X179679600Y-124917200D02*
X183337200Y-124917200D01*
X183540400Y-124714000D02*
X183540400Y-113944400D01*
X183337200Y-124917200D02*
X183540400Y-124714000D01*
X183540400Y-113944400D02*
X187147200Y-113944400D01*
X191008000Y-117805200D02*
X198577200Y-117805200D01*
X187147200Y-113944400D02*
X191008000Y-117805200D01*
%TO.N,Net-(J10-Pad2)*%
X202133200Y-122885200D02*
X198577200Y-122885200D01*
X202133200Y-132080000D02*
X202133200Y-122885200D01*
X202133200Y-132080000D02*
X201269600Y-132080000D01*
X193903600Y-139446000D02*
X193903600Y-143002000D01*
X201269600Y-132080000D02*
X193903600Y-139446000D01*
X181203600Y-143002000D02*
X181203600Y-139496800D01*
X181203600Y-139496800D02*
X181254400Y-139446000D01*
X168554400Y-143052800D02*
X168554400Y-139903200D01*
X169011600Y-139446000D02*
X181356000Y-139446000D01*
X168554400Y-139903200D02*
X169011600Y-139446000D01*
X181356000Y-139446000D02*
X193903600Y-139446000D01*
X181254400Y-139446000D02*
X181356000Y-139446000D01*
%TO.N,Net-(J5-Pad1)*%
X159004000Y-113334800D02*
X162153600Y-113334800D01*
X162153600Y-113334800D02*
X162915600Y-114096800D01*
X162915600Y-114096800D02*
X162915600Y-123952000D01*
X162306000Y-124561600D02*
X159461200Y-124561600D01*
X162661600Y-135382000D02*
X162661600Y-124206000D01*
X162661600Y-124206000D02*
X162306000Y-124561600D01*
X162915600Y-123952000D02*
X162661600Y-124206000D01*
X183032400Y-135382000D02*
X162661600Y-135382000D01*
X190449200Y-127965200D02*
X183032400Y-135382000D01*
X198577200Y-127965200D02*
X190449200Y-127965200D01*
X162661600Y-135382000D02*
X161899600Y-136144000D01*
X156108400Y-136144000D02*
X155956000Y-136296400D01*
X161899600Y-136144000D02*
X156108400Y-136144000D01*
D31*
%TO.N,Net-(Q1-Pad2)*%
X149809200Y-72542400D02*
X153416000Y-76149200D01*
X153416000Y-76149200D02*
X153416000Y-83820000D01*
X154178000Y-84582000D02*
X157378400Y-84582000D01*
X153416000Y-83820000D02*
X154178000Y-84582000D01*
%TO.N,Net-(R1-Pad2)*%
X91186000Y-120956000D02*
X107442000Y-137212000D01*
X107442000Y-137212000D02*
X107442000Y-143865600D01*
X107442000Y-143865600D02*
X107543600Y-143967200D01*
X107543600Y-143967200D02*
X131927600Y-143967200D01*
X132029200Y-143865600D02*
X132029200Y-138480800D01*
X131927600Y-143967200D02*
X132029200Y-143865600D01*
%TO.N,Net-(R2-Pad2)*%
X131876800Y-134670800D02*
X132130800Y-134416800D01*
X109676000Y-136906000D02*
X91186000Y-118416000D01*
X109676000Y-141832400D02*
X109676000Y-136906000D01*
X129641600Y-141732000D02*
X129387600Y-141986000D01*
X109829600Y-141986000D02*
X109676000Y-141832400D01*
X129641600Y-134416800D02*
X129641600Y-141732000D01*
X129387600Y-141986000D02*
X109829600Y-141986000D01*
X132130800Y-134416800D02*
X129641600Y-134416800D01*
%TO.N,Net-(R3-Pad2)*%
X91186000Y-115876000D02*
X111708000Y-136398000D01*
X111708000Y-136398000D02*
X111708000Y-139749600D01*
X111708000Y-139749600D02*
X111963200Y-140004800D01*
X111963200Y-140004800D02*
X126695200Y-140004800D01*
X126695200Y-140004800D02*
X127762000Y-138938000D01*
X127762000Y-138938000D02*
X127762000Y-134721600D01*
X127762000Y-134721600D02*
X128625600Y-133858000D01*
X128625600Y-133858000D02*
X128625600Y-130454400D01*
X132029200Y-130454400D02*
X132080000Y-130505200D01*
X128625600Y-130454400D02*
X132029200Y-130454400D01*
%TO.N,Net-(U1-Pad30)*%
X116586000Y-115876000D02*
X120394800Y-115876000D01*
X126187200Y-110083600D02*
X131876800Y-110083600D01*
X120394800Y-115876000D02*
X126187200Y-110083600D01*
%TO.N,Net-(U1-Pad31)*%
X116586000Y-118416000D02*
X122274400Y-118416000D01*
X122274400Y-118416000D02*
X127914400Y-112776000D01*
D33*
X131724400Y-112776000D02*
X131876800Y-112623600D01*
D31*
X127914400Y-112776000D02*
X131724400Y-112776000D01*
%TO.N,Net-(U1-Pad32)*%
X116586000Y-120956000D02*
X112472400Y-120956000D01*
X112472400Y-120956000D02*
X104241600Y-112725200D01*
X104241600Y-112725200D02*
X104241600Y-77317600D01*
%TO.N,Net-(U1-Pad33)*%
X101295200Y-74777600D02*
X104241600Y-74777600D01*
X100939600Y-75133200D02*
X101295200Y-74777600D01*
X100939600Y-112674400D02*
X100939600Y-75133200D01*
X111761200Y-123496000D02*
X100939600Y-112674400D01*
X116586000Y-123496000D02*
X111761200Y-123496000D01*
%TO.N,Net-(U1-Pad34)*%
X98755200Y-67157600D02*
X104241600Y-67157600D01*
X110590400Y-126036000D02*
X98755200Y-114200800D01*
X98755200Y-114200800D02*
X98755200Y-67157600D01*
X116586000Y-126036000D02*
X110590400Y-126036000D01*
%TO.N,Net-(J11-Pad2)*%
X114401600Y-50930800D02*
X114481600Y-50850800D01*
X114401600Y-64617600D02*
X114401600Y-50930800D01*
X121361200Y-63195200D02*
X121361200Y-62179200D01*
X119938800Y-64465200D02*
X121208800Y-63195200D01*
X115519200Y-64465200D02*
X119938800Y-64465200D01*
X121208800Y-62331600D02*
X121361200Y-62179200D01*
X121208800Y-63195200D02*
X121208800Y-62331600D01*
%TO.N,Net-(J13-Pad2)*%
X139547600Y-51155600D02*
X139700000Y-51003200D01*
X140258800Y-92405200D02*
X139547600Y-91694000D01*
X146202400Y-92405200D02*
X140258800Y-92405200D01*
X140055600Y-50850000D02*
X140055600Y-51003200D01*
X139547600Y-51511200D02*
X139547600Y-51155600D01*
X140055600Y-51003200D02*
X139547600Y-51511200D01*
X139547600Y-91694000D02*
X139547600Y-51511200D01*
%TO.N,Net-(J14-Pad2)*%
X142849600Y-58623200D02*
X150520400Y-50952400D01*
X142849600Y-89255600D02*
X142849600Y-58623200D01*
X143510000Y-89916000D02*
X142849600Y-89255600D01*
X152298400Y-89916000D02*
X143510000Y-89916000D01*
X154686000Y-92303600D02*
X152298400Y-89916000D01*
X151791200Y-50850000D02*
X151688800Y-50952400D01*
X153263600Y-50850000D02*
X151791200Y-50850000D01*
X151688800Y-50952400D02*
X152450800Y-50952400D01*
X150520400Y-50952400D02*
X151688800Y-50952400D01*
%TO.N,Net-(J15-Pad2)*%
X145694400Y-59232800D02*
X145694400Y-87528400D01*
X145694400Y-59232800D02*
X155600400Y-59232800D01*
X155600400Y-59232800D02*
X158750000Y-56083200D01*
X160477200Y-56083200D02*
X165557200Y-51003200D01*
X158750000Y-56083200D02*
X160477200Y-56083200D01*
X145694400Y-87528400D02*
X153517600Y-87528400D01*
X158292800Y-92303600D02*
X163372800Y-92303600D01*
X153517600Y-87528400D02*
X158292800Y-92303600D01*
D34*
%TO.N,Net-(J16-Pad2)*%
X162001200Y-67818000D02*
X163372800Y-67818000D01*
D35*
X163372800Y-67818000D02*
X166065200Y-65125600D01*
D34*
X179527200Y-51511200D02*
X179120800Y-51104800D01*
D35*
X179120800Y-51104800D02*
X172008800Y-58216800D01*
X172008800Y-58216800D02*
X166319200Y-58216800D01*
X166065200Y-58470800D02*
X166065200Y-60553600D01*
X166065200Y-60553600D02*
X166065200Y-65125600D01*
D31*
X157835600Y-67818000D02*
X157276800Y-68376800D01*
D35*
X163372800Y-67818000D02*
X157835600Y-67818000D01*
X179120800Y-50850000D02*
X179120800Y-51104800D01*
D31*
%TO.N,Net-(D2-Pad1)*%
X157327600Y-81991200D02*
X157378400Y-82042000D01*
X157327600Y-74218800D02*
X157327600Y-81991200D01*
X149707600Y-67970400D02*
X155555200Y-73818000D01*
X149707600Y-65989200D02*
X149707600Y-67970400D01*
X158718000Y-73818000D02*
X159276800Y-74376800D01*
X155555200Y-73818000D02*
X158718000Y-73818000D01*
%TO.N,Net-(Interno1-Pad1)*%
X94032000Y-90476000D02*
X94284800Y-90728800D01*
X94284800Y-90728800D02*
X94284800Y-116078000D01*
X94284800Y-116078000D02*
X113588800Y-135382000D01*
X113588800Y-135382000D02*
X113538000Y-135432800D01*
X113538000Y-135432800D02*
X113538000Y-138176000D01*
X113538000Y-138176000D02*
X120142000Y-138176000D01*
X120142000Y-138176000D02*
X120853200Y-137464800D01*
X120853200Y-137464800D02*
X120853200Y-122682000D01*
X120853200Y-122682000D02*
X128371600Y-115163600D01*
X128371600Y-115163600D02*
X131876800Y-115163600D01*
X93115200Y-90476000D02*
X94032000Y-90476000D01*
X91186000Y-90476000D02*
X93115200Y-90476000D01*
X91186000Y-77114400D02*
X91186000Y-90476000D01*
X92303600Y-75996800D02*
X91186000Y-77114400D01*
X90982800Y-76149200D02*
X91694000Y-76149200D01*
X89306400Y-74472800D02*
X90982800Y-76149200D01*
X89306400Y-62433200D02*
X89712800Y-62026800D01*
X89306400Y-74472800D02*
X89306400Y-62433200D01*
%TO.N,Net-(Interno1-Pad2)*%
X96570800Y-64820800D02*
X96774000Y-64617600D01*
X110031600Y-128576000D02*
X96570800Y-115115200D01*
X116586000Y-128576000D02*
X110031600Y-128576000D01*
X96570800Y-70662800D02*
X96570800Y-69951600D01*
X96570800Y-69951600D02*
X96570800Y-64820800D01*
X96570800Y-115115200D02*
X96570800Y-69951600D01*
X92913200Y-73609200D02*
X96570800Y-69951600D01*
X91694000Y-73609200D02*
X92913200Y-73609200D01*
X96774000Y-64414400D02*
X96774000Y-64617600D01*
X99110800Y-64617600D02*
X104241600Y-64617600D01*
X94792800Y-62026800D02*
X96824800Y-64058800D01*
X96824800Y-64617600D02*
X99110800Y-64617600D01*
X96824800Y-64058800D02*
X96824800Y-64617600D01*
X96774000Y-64617600D02*
X96824800Y-64617600D01*
%TO.N,Net-(J12-Pad2)*%
X135432800Y-59486800D02*
X135051800Y-59105800D01*
X135432800Y-76352400D02*
X135432800Y-59486800D01*
X135051800Y-59105800D02*
X134289800Y-58343800D01*
X135331200Y-59385200D02*
X135051800Y-59105800D01*
X134289800Y-58089000D02*
X134289800Y-58343800D01*
X127050800Y-50850000D02*
X134289800Y-58089000D01*
%TO.N,Net-(J11-Pad3)*%
X114401600Y-67157600D02*
X112268000Y-67157600D01*
X111252000Y-52621200D02*
X109481600Y-50850800D01*
X112268000Y-67157600D02*
X112268000Y-53594000D01*
X111295200Y-52621200D02*
X111252000Y-52621200D01*
X112268000Y-53594000D02*
X111295200Y-52621200D01*
X120599200Y-67005200D02*
X121208800Y-67614800D01*
X115519200Y-67005200D02*
X120599200Y-67005200D01*
%TO.N,Net-(J11-Pad4)*%
X110236000Y-72745600D02*
X112268000Y-74777600D01*
X110236000Y-56605200D02*
X110236000Y-72745600D01*
X104481600Y-50850800D02*
X110236000Y-56605200D01*
X112268000Y-74777600D02*
X112115600Y-74777600D01*
X114401600Y-74777600D02*
X112268000Y-74777600D01*
%TO.N,Net-(J11-Pad5)*%
X108204000Y-72745600D02*
X108204000Y-59573200D01*
X108204000Y-59573200D02*
X99481600Y-50850800D01*
X112776000Y-77317600D02*
X108204000Y-72745600D01*
X114401600Y-77317600D02*
X112776000Y-77317600D01*
%TO.N,Net-(J11-Pad6)*%
X104241600Y-72237600D02*
X106375200Y-72237600D01*
X106375200Y-72237600D02*
X106426000Y-72186800D01*
X106426000Y-62795200D02*
X94481600Y-50850800D01*
X106426000Y-72186800D02*
X106426000Y-62795200D01*
D33*
X114401600Y-72237600D02*
X117297200Y-72237600D01*
X117297200Y-72237600D02*
X117602000Y-72542400D01*
X117602000Y-89460000D02*
X116586000Y-90476000D01*
X117602000Y-72542400D02*
X117602000Y-89460000D01*
D35*
%TO.N,Net-(J17-Pad1)*%
X196900800Y-51206400D02*
X196900800Y-55676800D01*
X196900800Y-55676800D02*
X200101200Y-58877200D01*
X200101200Y-58877200D02*
X200101200Y-70104000D01*
X198609600Y-70104000D02*
X194286000Y-74427600D01*
X200101200Y-70104000D02*
X198609600Y-70104000D01*
X196900800Y-50850000D02*
X196900800Y-51206400D01*
%TO.N,Net-(J17-Pad2)*%
X191820800Y-51206400D02*
X191820800Y-55829200D01*
X191820800Y-55829200D02*
X189382400Y-58267600D01*
X189382400Y-61315600D02*
X182778400Y-67919600D01*
X189382400Y-58267600D02*
X189382400Y-61315600D01*
D31*
X182270400Y-68427600D02*
X182778400Y-67919600D01*
D35*
X180086000Y-68427600D02*
X182270400Y-68427600D01*
X191820800Y-50850000D02*
X191820800Y-51206400D01*
%TD*%
M02*
