M48
; DRILL file {KiCad (5.1.9)-1} date 11/17/21 10:25:49
; FORMAT={-:-/ absolute / inch / decimal}
; #@! TF.CreationDate,2021-11-17T10:25:49-03:00
; #@! TF.GenerationSoftware,Kicad,Pcbnew,(5.1.9)-1
; #@! TF.FileFunction,Plated,1,2,PTH
FMAT,2
INCH
T1C0.0315
T2C0.0354
T3C0.0394
T4C0.0398
T5C0.0409
T6C0.0512
T7C0.1299
%
G90
G05
T1
X3.532Y-2.442
X3.61Y-2.698
X3.61Y-2.798
X3.61Y-2.898
X3.61Y-2.998
X3.732Y-2.442
X4.104Y-2.544
X4.104Y-2.644
X4.104Y-2.744
X4.104Y-2.844
X4.104Y-2.944
X4.104Y-3.044
X4.504Y-2.544
X4.504Y-2.644
X4.504Y-2.744
X4.504Y-2.844
X4.504Y-2.944
X4.504Y-3.044
X4.764Y-3.12
X4.766Y-2.89
X4.772Y-2.662
X4.778Y-2.448
X4.964Y-3.12
X4.966Y-2.89
X4.972Y-2.662
X4.978Y-2.448
X5.192Y-4.334
X5.192Y-4.434
X5.192Y-4.534
X5.192Y-4.634
X5.192Y-4.734
X5.192Y-4.834
X5.198Y-5.452
X5.2Y-5.138
X5.202Y-5.292
X5.332Y-3.006
X5.332Y-3.406
X5.592Y-4.334
X5.592Y-4.434
X5.592Y-4.534
X5.592Y-4.634
X5.592Y-4.734
X5.592Y-4.834
X5.598Y-5.452
X5.6Y-5.138
X5.602Y-5.292
X5.756Y-3.638
X5.756Y-4.038
X5.84Y-5.366
X5.84Y-5.466
X5.84Y-5.566
X5.898Y-2.856
X5.898Y-3.056
X5.96Y-4.462
X5.96Y-4.562
X5.96Y-4.662
X5.978Y-4.904
X5.978Y-5.004
X5.978Y-5.104
X6.09Y-3.634
X6.09Y-4.034
X6.14Y-5.366
X6.14Y-5.466
X6.14Y-5.566
X6.26Y-4.462
X6.26Y-4.562
X6.26Y-4.662
X6.278Y-4.904
X6.278Y-5.004
X6.278Y-5.104
X6.432Y-3.634
X6.432Y-4.034
X6.518Y-3.118
X6.518Y-3.318
X6.774Y-4.918
X6.774Y-5.018
X6.774Y-5.118
X6.79Y-4.486
X6.79Y-4.586
X6.79Y-4.686
X6.802Y-4.06
X6.802Y-4.16
X6.802Y-4.26
X7.074Y-4.918
X7.074Y-5.018
X7.074Y-5.118
X7.09Y-4.486
X7.09Y-4.586
X7.09Y-4.686
X7.102Y-4.06
X7.102Y-4.16
X7.102Y-4.26
T2
X3.714Y-5.592
X3.714Y-5.692
X5.894Y-2.498
X5.894Y-2.598
X6.82Y-3.172
X6.92Y-3.172
T3
X3.388Y-5.03
X3.388Y-5.13
X3.97Y-5.638
X4.07Y-5.638
X5.02Y-3.844
X5.12Y-3.844
X5.22Y-3.844
X5.32Y-3.844
X6.196Y-3.23
X6.196Y-3.33
X6.196Y-3.43
X6.726Y-3.538
X6.826Y-3.538
X6.926Y-3.538
X7.106Y-3.796
X7.214Y-3.362
X7.216Y-3.208
X7.31Y-3.796
X7.414Y-3.93
X7.514Y-3.93
T4
X7.3352Y-3.1708
X7.3432Y-3.3988
X7.3472Y-3.6368
X7.536Y-3.218
X7.544Y-3.446
X7.548Y-3.684
T5
X3.59Y-3.562
X3.59Y-3.662
X3.59Y-3.762
X3.59Y-3.862
X3.59Y-3.962
X3.59Y-4.062
X3.59Y-4.162
X3.59Y-4.262
X3.59Y-4.362
X3.59Y-4.462
X3.59Y-4.562
X3.59Y-4.662
X3.59Y-4.762
X3.59Y-4.862
X3.59Y-4.962
X3.59Y-5.062
X3.59Y-5.162
X3.59Y-5.262
X3.59Y-5.362
X4.59Y-3.562
X4.59Y-3.662
X4.59Y-3.762
X4.59Y-3.862
X4.59Y-3.962
X4.59Y-4.062
X4.59Y-4.162
X4.59Y-4.262
X4.59Y-4.362
X4.59Y-4.462
X4.59Y-4.562
X4.59Y-4.662
X4.59Y-4.762
X4.59Y-4.862
X4.59Y-4.962
X4.59Y-5.062
X4.59Y-5.162
X4.59Y-5.262
X4.59Y-5.362
T6
X3.7197Y-2.002
X3.9166Y-2.002
X4.1134Y-2.002
X4.3103Y-2.002
X4.5071Y-2.002
X4.704Y-2.002
X5.002Y-2.002
X5.202Y-2.002
X5.514Y-2.002
X5.714Y-2.002
X6.034Y-2.002
X6.192Y-2.692
X6.234Y-2.002
X6.2707Y-2.4558
X6.2707Y-2.9282
X6.436Y-5.632
X6.538Y-2.002
X6.636Y-5.632
X6.738Y-2.002
X6.7511Y-2.4558
X6.7511Y-2.9282
X6.934Y-5.63
X7.052Y-2.002
X7.09Y-2.694
X7.134Y-5.63
X7.1687Y-2.4578
X7.1687Y-2.9302
X7.252Y-2.002
X7.434Y-5.63
X7.552Y-2.002
X7.634Y-5.63
X7.6491Y-2.4578
X7.6491Y-2.9302
X7.752Y-2.002
X7.818Y-4.438
X7.818Y-4.638
X7.818Y-4.838
X7.818Y-5.038
X8.036Y-3.234
X8.036Y-3.434
X8.036Y-3.634
X8.036Y-3.834
T7
X3.368Y-5.446
X3.376Y-2.244
X4.932Y-4.21
X4.934Y-5.228
X5.904Y-3.3
X7.658Y-5.232
X7.66Y-4.212
X8.024Y-5.448
X8.062Y-2.24
T0
M30
