%TF.GenerationSoftware,KiCad,Pcbnew,(5.1.9)-1*%
%TF.CreationDate,2021-11-17T10:25:35-03:00*%
%TF.ProjectId,MODULO-IoT,4d4f4455-4c4f-42d4-996f-542e6b696361,rev?*%
%TF.SameCoordinates,Original*%
%TF.FileFunction,Legend,Top*%
%TF.FilePolarity,Positive*%
%FSLAX46Y46*%
G04 Gerber Fmt 4.6, Leading zero omitted, Abs format (unit mm)*
G04 Created by KiCad (PCBNEW (5.1.9)-1) date 2021-11-17 10:25:35*
%MOMM*%
%LPD*%
G01*
G04 APERTURE LIST*
%ADD10C,0.120000*%
%ADD11C,0.127000*%
%ADD12C,0.150000*%
%ADD13C,0.250000*%
G04 APERTURE END LIST*
D10*
%TO.C,J4*%
X87385200Y-126432000D02*
X84725200Y-126432000D01*
X87385200Y-129032000D02*
X87385200Y-126432000D01*
X84725200Y-129032000D02*
X84725200Y-126432000D01*
X87385200Y-129032000D02*
X84725200Y-129032000D01*
X87385200Y-130302000D02*
X87385200Y-131632000D01*
X87385200Y-131632000D02*
X86055200Y-131632000D01*
%TO.C,D3*%
X93366734Y-143090650D02*
G75*
G02*
X95235600Y-143150039I968866J1053850D01*
G01*
%TO.C,J10*%
X170234400Y-143052800D02*
G75*
G03*
X170234400Y-143052800I-1680000J0D01*
G01*
X160874400Y-147152800D02*
X171154400Y-147152800D01*
X160874400Y-145652800D02*
X171154400Y-145652800D01*
X160874400Y-140751800D02*
X171154400Y-140751800D01*
X160874400Y-137791800D02*
X171154400Y-137791800D01*
X160874400Y-147712800D02*
X171154400Y-147712800D01*
X160874400Y-137791800D02*
X160874400Y-147712800D01*
X171154400Y-137791800D02*
X171154400Y-147712800D01*
X169829400Y-141983800D02*
X169782400Y-142029800D01*
X167520400Y-144291800D02*
X167485400Y-144326800D01*
X169624400Y-141777800D02*
X169589400Y-141813800D01*
X167327400Y-144075800D02*
X167280400Y-144121800D01*
X160634400Y-147212800D02*
X160634400Y-147952800D01*
X160634400Y-147952800D02*
X161134400Y-147952800D01*
X163503205Y-144733053D02*
G75*
G02*
X162790400Y-144587800I-28805J1680253D01*
G01*
X161938974Y-143735842D02*
G75*
G02*
X161939400Y-142368800I1535426J683042D01*
G01*
X162791358Y-141517374D02*
G75*
G02*
X164158400Y-141517800I683042J-1535426D01*
G01*
X165009826Y-142369758D02*
G75*
G02*
X165009400Y-143736800I-1535426J-683042D01*
G01*
X164157718Y-144587556D02*
G75*
G02*
X163474400Y-144732800I-683318J1534756D01*
G01*
%TO.C,J9*%
X182883600Y-143002000D02*
G75*
G03*
X182883600Y-143002000I-1680000J0D01*
G01*
X173523600Y-147102000D02*
X183803600Y-147102000D01*
X173523600Y-145602000D02*
X183803600Y-145602000D01*
X173523600Y-140701000D02*
X183803600Y-140701000D01*
X173523600Y-137741000D02*
X183803600Y-137741000D01*
X173523600Y-147662000D02*
X183803600Y-147662000D01*
X173523600Y-137741000D02*
X173523600Y-147662000D01*
X183803600Y-137741000D02*
X183803600Y-147662000D01*
X182478600Y-141933000D02*
X182431600Y-141979000D01*
X180169600Y-144241000D02*
X180134600Y-144276000D01*
X182273600Y-141727000D02*
X182238600Y-141763000D01*
X179976600Y-144025000D02*
X179929600Y-144071000D01*
X173283600Y-147162000D02*
X173283600Y-147902000D01*
X173283600Y-147902000D02*
X173783600Y-147902000D01*
X176152405Y-144682253D02*
G75*
G02*
X175439600Y-144537000I-28805J1680253D01*
G01*
X174588174Y-143685042D02*
G75*
G02*
X174588600Y-142318000I1535426J683042D01*
G01*
X175440558Y-141466574D02*
G75*
G02*
X176807600Y-141467000I683042J-1535426D01*
G01*
X177659026Y-142318958D02*
G75*
G02*
X177658600Y-143686000I-1535426J-683042D01*
G01*
X176806918Y-144536756D02*
G75*
G02*
X176123600Y-144682000I-683318J1534756D01*
G01*
%TO.C,J8*%
X195583600Y-143002000D02*
G75*
G03*
X195583600Y-143002000I-1680000J0D01*
G01*
X186223600Y-147102000D02*
X196503600Y-147102000D01*
X186223600Y-145602000D02*
X196503600Y-145602000D01*
X186223600Y-140701000D02*
X196503600Y-140701000D01*
X186223600Y-137741000D02*
X196503600Y-137741000D01*
X186223600Y-147662000D02*
X196503600Y-147662000D01*
X186223600Y-137741000D02*
X186223600Y-147662000D01*
X196503600Y-137741000D02*
X196503600Y-147662000D01*
X195178600Y-141933000D02*
X195131600Y-141979000D01*
X192869600Y-144241000D02*
X192834600Y-144276000D01*
X194973600Y-141727000D02*
X194938600Y-141763000D01*
X192676600Y-144025000D02*
X192629600Y-144071000D01*
X185983600Y-147162000D02*
X185983600Y-147902000D01*
X185983600Y-147902000D02*
X186483600Y-147902000D01*
X188852405Y-144682253D02*
G75*
G02*
X188139600Y-144537000I-28805J1680253D01*
G01*
X187288174Y-143685042D02*
G75*
G02*
X187288600Y-142318000I1535426J683042D01*
G01*
X188140558Y-141466574D02*
G75*
G02*
X189507600Y-141467000I683042J-1535426D01*
G01*
X190359026Y-142318958D02*
G75*
G02*
X190358600Y-143686000I-1535426J-683042D01*
G01*
X189506918Y-144536756D02*
G75*
G02*
X188823600Y-144682000I-683318J1534756D01*
G01*
%TO.C,K3*%
X182286000Y-67077600D02*
X182286000Y-63927600D01*
X182286000Y-72927600D02*
X182286000Y-69777600D01*
X177176000Y-69427600D02*
X177176000Y-67427600D01*
X182886000Y-68777600D02*
X182886000Y-68077600D01*
X181686000Y-68777600D02*
X182886000Y-68777600D01*
X181686000Y-68077600D02*
X181686000Y-68777600D01*
X182886000Y-68077600D02*
X181686000Y-68077600D01*
X182486000Y-68777600D02*
X182086000Y-68077600D01*
X200136000Y-76777600D02*
X200136000Y-60077600D01*
X177436000Y-76777600D02*
X200136000Y-76777600D01*
X177436000Y-60077600D02*
X177436000Y-76777600D01*
X200136000Y-60077600D02*
X177436000Y-60077600D01*
%TO.C,R7*%
X135432800Y-77392400D02*
X135432800Y-78162400D01*
X135432800Y-85472400D02*
X135432800Y-84702400D01*
X134062800Y-78162400D02*
X134062800Y-84702400D01*
X136802800Y-78162400D02*
X134062800Y-78162400D01*
X136802800Y-84702400D02*
X136802800Y-78162400D01*
X134062800Y-84702400D02*
X136802800Y-84702400D01*
%TO.C,J12*%
X134970800Y-45950000D02*
X134470800Y-45950000D01*
X134970800Y-46690000D02*
X134970800Y-45950000D01*
X128277800Y-49827000D02*
X128324800Y-49781000D01*
X125980800Y-52125000D02*
X126015800Y-52089000D01*
X128084800Y-49611000D02*
X128119800Y-49576000D01*
X125775800Y-51919000D02*
X125822800Y-51873000D01*
X124450800Y-56111000D02*
X124450800Y-46190000D01*
X134730800Y-56111000D02*
X134730800Y-46190000D01*
X134730800Y-46190000D02*
X124450800Y-46190000D01*
X134730800Y-56111000D02*
X124450800Y-56111000D01*
X134730800Y-53151000D02*
X124450800Y-53151000D01*
X134730800Y-48250000D02*
X124450800Y-48250000D01*
X134730800Y-46750000D02*
X124450800Y-46750000D01*
X128730800Y-50850000D02*
G75*
G03*
X128730800Y-50850000I-1680000J0D01*
G01*
X132101995Y-49169747D02*
G75*
G02*
X132814800Y-49315000I28805J-1680253D01*
G01*
X133666226Y-50166958D02*
G75*
G02*
X133665800Y-51534000I-1535426J-683042D01*
G01*
X132813842Y-52385426D02*
G75*
G02*
X131446800Y-52385000I-683042J1535426D01*
G01*
X130595374Y-51533042D02*
G75*
G02*
X130595800Y-50166000I1535426J683042D01*
G01*
X131447482Y-49315244D02*
G75*
G02*
X132130800Y-49170000I683318J-1534756D01*
G01*
%TO.C,K2*%
X159476800Y-67026800D02*
X159476800Y-63876800D01*
X159476800Y-72876800D02*
X159476800Y-69726800D01*
X154366800Y-69376800D02*
X154366800Y-67376800D01*
X160076800Y-68726800D02*
X160076800Y-68026800D01*
X158876800Y-68726800D02*
X160076800Y-68726800D01*
X158876800Y-68026800D02*
X158876800Y-68726800D01*
X160076800Y-68026800D02*
X158876800Y-68026800D01*
X159676800Y-68726800D02*
X159276800Y-68026800D01*
X177326800Y-76726800D02*
X177326800Y-60026800D01*
X154626800Y-76726800D02*
X177326800Y-76726800D01*
X154626800Y-60026800D02*
X154626800Y-76726800D01*
X177326800Y-60026800D02*
X154626800Y-60026800D01*
%TO.C,J16*%
X187040800Y-45950000D02*
X186540800Y-45950000D01*
X187040800Y-46690000D02*
X187040800Y-45950000D01*
X180347800Y-49827000D02*
X180394800Y-49781000D01*
X178050800Y-52125000D02*
X178085800Y-52089000D01*
X180154800Y-49611000D02*
X180189800Y-49576000D01*
X177845800Y-51919000D02*
X177892800Y-51873000D01*
X176520800Y-56111000D02*
X176520800Y-46190000D01*
X186800800Y-56111000D02*
X186800800Y-46190000D01*
X186800800Y-46190000D02*
X176520800Y-46190000D01*
X186800800Y-56111000D02*
X176520800Y-56111000D01*
X186800800Y-53151000D02*
X176520800Y-53151000D01*
X186800800Y-48250000D02*
X176520800Y-48250000D01*
X186800800Y-46750000D02*
X176520800Y-46750000D01*
X180800800Y-50850000D02*
G75*
G03*
X180800800Y-50850000I-1680000J0D01*
G01*
X184171995Y-49169747D02*
G75*
G02*
X184884800Y-49315000I28805J-1680253D01*
G01*
X185736226Y-50166958D02*
G75*
G02*
X185735800Y-51534000I-1535426J-683042D01*
G01*
X184883842Y-52385426D02*
G75*
G02*
X183516800Y-52385000I-683042J1535426D01*
G01*
X182665374Y-51533042D02*
G75*
G02*
X182665800Y-50166000I1535426J683042D01*
G01*
X183517482Y-49315244D02*
G75*
G02*
X184200800Y-49170000I683318J-1534756D01*
G01*
%TO.C,U7*%
X154651200Y-123231600D02*
X153001200Y-123231600D01*
X153001200Y-123231600D02*
X153001200Y-130971600D01*
X153001200Y-130971600D02*
X158301200Y-130971600D01*
X158301200Y-130971600D02*
X158301200Y-123231600D01*
X158301200Y-123231600D02*
X156651200Y-123231600D01*
X156651200Y-123231600D02*
G75*
G02*
X154651200Y-123231600I-1000000J0D01*
G01*
%TO.C,D1*%
X174281850Y-81537666D02*
G75*
G02*
X174341239Y-79668800I-1053850J968866D01*
G01*
%TO.C,D2*%
X150676466Y-64935350D02*
G75*
G02*
X148807600Y-64875961I-968866J-1053850D01*
G01*
%TO.C,J1*%
X209014400Y-100223600D02*
X209014400Y-99723600D01*
X208274400Y-100223600D02*
X209014400Y-100223600D01*
X205137400Y-83370600D02*
X205183400Y-83417600D01*
X202839400Y-81073600D02*
X202875400Y-81108600D01*
X205353400Y-83177600D02*
X205388400Y-83212600D01*
X203045400Y-80868600D02*
X203091400Y-80915600D01*
X205137400Y-88450600D02*
X205183400Y-88497600D01*
X202839400Y-86153600D02*
X202875400Y-86188600D01*
X205353400Y-88257600D02*
X205388400Y-88292600D01*
X203045400Y-85948600D02*
X203091400Y-85995600D01*
X205137400Y-93530600D02*
X205183400Y-93577600D01*
X202839400Y-91233600D02*
X202875400Y-91268600D01*
X205353400Y-93337600D02*
X205388400Y-93372600D01*
X203045400Y-91028600D02*
X203091400Y-91075600D01*
X198853400Y-79543600D02*
X208774400Y-79543600D01*
X198853400Y-99983600D02*
X208774400Y-99983600D01*
X208774400Y-99983600D02*
X208774400Y-79543600D01*
X198853400Y-99983600D02*
X198853400Y-79543600D01*
X201813400Y-99983600D02*
X201813400Y-79543600D01*
X206714400Y-99983600D02*
X206714400Y-79543600D01*
X208214400Y-99983600D02*
X208214400Y-79543600D01*
X205794400Y-82143600D02*
G75*
G03*
X205794400Y-82143600I-1680000J0D01*
G01*
X205794400Y-87223600D02*
G75*
G03*
X205794400Y-87223600I-1680000J0D01*
G01*
X205794400Y-92303600D02*
G75*
G03*
X205794400Y-92303600I-1680000J0D01*
G01*
X205649156Y-96700282D02*
G75*
G02*
X205794400Y-97383600I-1534756J-683318D01*
G01*
X203431358Y-95848174D02*
G75*
G02*
X204798400Y-95848600I683042J-1535426D01*
G01*
X202578974Y-98066642D02*
G75*
G02*
X202579400Y-96699600I1535426J683042D01*
G01*
X204797442Y-98919026D02*
G75*
G02*
X203430400Y-98918600I-683042J1535426D01*
G01*
X205794653Y-97354795D02*
G75*
G02*
X205649400Y-98067600I-1680253J-28805D01*
G01*
%TO.C,J2*%
X192185600Y-101152000D02*
X192185600Y-98492000D01*
X189585600Y-101152000D02*
X192185600Y-101152000D01*
X189585600Y-98492000D02*
X192185600Y-98492000D01*
X189585600Y-101152000D02*
X189585600Y-98492000D01*
X188315600Y-101152000D02*
X186985600Y-101152000D01*
X186985600Y-101152000D02*
X186985600Y-99822000D01*
%TO.C,J5*%
X200257200Y-122885200D02*
G75*
G03*
X200257200Y-122885200I-1680000J0D01*
G01*
X200257200Y-117805200D02*
G75*
G03*
X200257200Y-117805200I-1680000J0D01*
G01*
X200257200Y-112725200D02*
G75*
G03*
X200257200Y-112725200I-1680000J0D01*
G01*
X202677200Y-130565200D02*
X202677200Y-110125200D01*
X201177200Y-130565200D02*
X201177200Y-110125200D01*
X196276200Y-130565200D02*
X196276200Y-110125200D01*
X193316200Y-130565200D02*
X193316200Y-110125200D01*
X203237200Y-130565200D02*
X203237200Y-110125200D01*
X193316200Y-130565200D02*
X203237200Y-130565200D01*
X193316200Y-110125200D02*
X203237200Y-110125200D01*
X197508200Y-121610200D02*
X197554200Y-121657200D01*
X199816200Y-123919200D02*
X199851200Y-123954200D01*
X197302200Y-121815200D02*
X197338200Y-121850200D01*
X199600200Y-124112200D02*
X199646200Y-124159200D01*
X197508200Y-116530200D02*
X197554200Y-116577200D01*
X199816200Y-118839200D02*
X199851200Y-118874200D01*
X197302200Y-116735200D02*
X197338200Y-116770200D01*
X199600200Y-119032200D02*
X199646200Y-119079200D01*
X197508200Y-111450200D02*
X197554200Y-111497200D01*
X199816200Y-113759200D02*
X199851200Y-113794200D01*
X197302200Y-111655200D02*
X197338200Y-111690200D01*
X199600200Y-113952200D02*
X199646200Y-113999200D01*
X202737200Y-130805200D02*
X203477200Y-130805200D01*
X203477200Y-130805200D02*
X203477200Y-130305200D01*
X200257453Y-127936395D02*
G75*
G02*
X200112200Y-128649200I-1680253J-28805D01*
G01*
X199260242Y-129500626D02*
G75*
G02*
X197893200Y-129500200I-683042J1535426D01*
G01*
X197041774Y-128648242D02*
G75*
G02*
X197042200Y-127281200I1535426J683042D01*
G01*
X197894158Y-126429774D02*
G75*
G02*
X199261200Y-126430200I683042J-1535426D01*
G01*
X200111956Y-127281882D02*
G75*
G02*
X200257200Y-127965200I-1534756J-683318D01*
G01*
%TO.C,J17*%
X199740800Y-45950000D02*
X199240800Y-45950000D01*
X199740800Y-46690000D02*
X199740800Y-45950000D01*
X193047800Y-49827000D02*
X193094800Y-49781000D01*
X190750800Y-52125000D02*
X190785800Y-52089000D01*
X192854800Y-49611000D02*
X192889800Y-49576000D01*
X190545800Y-51919000D02*
X190592800Y-51873000D01*
X189220800Y-56111000D02*
X189220800Y-46190000D01*
X199500800Y-56111000D02*
X199500800Y-46190000D01*
X199500800Y-46190000D02*
X189220800Y-46190000D01*
X199500800Y-56111000D02*
X189220800Y-56111000D01*
X199500800Y-53151000D02*
X189220800Y-53151000D01*
X199500800Y-48250000D02*
X189220800Y-48250000D01*
X199500800Y-46750000D02*
X189220800Y-46750000D01*
X193500800Y-50850000D02*
G75*
G03*
X193500800Y-50850000I-1680000J0D01*
G01*
X196217482Y-49315244D02*
G75*
G02*
X196900800Y-49170000I683318J-1534756D01*
G01*
X195365374Y-51533042D02*
G75*
G02*
X195365800Y-50166000I1535426J683042D01*
G01*
X197583842Y-52385426D02*
G75*
G02*
X196216800Y-52385000I-683042J1535426D01*
G01*
X198436226Y-50166958D02*
G75*
G02*
X198435800Y-51534000I-1535426J-683042D01*
G01*
X196871995Y-49169747D02*
G75*
G02*
X197584800Y-49315000I28805J-1680253D01*
G01*
%TO.C,J7*%
X136458000Y-96307600D02*
X136458000Y-97637600D01*
X135128000Y-96307600D02*
X136458000Y-96307600D01*
X133858000Y-96307600D02*
X133858000Y-98967600D01*
X133858000Y-98967600D02*
X126178000Y-98967600D01*
X133858000Y-96307600D02*
X126178000Y-96307600D01*
X126178000Y-96307600D02*
X126178000Y-98967600D01*
%TO.C,R1*%
X140379200Y-139850800D02*
X140379200Y-137110800D01*
X140379200Y-137110800D02*
X133839200Y-137110800D01*
X133839200Y-137110800D02*
X133839200Y-139850800D01*
X133839200Y-139850800D02*
X140379200Y-139850800D01*
X141149200Y-138480800D02*
X140379200Y-138480800D01*
X133069200Y-138480800D02*
X133839200Y-138480800D01*
%TO.C,R2*%
X133170800Y-134416800D02*
X133940800Y-134416800D01*
X141250800Y-134416800D02*
X140480800Y-134416800D01*
X133940800Y-135786800D02*
X140480800Y-135786800D01*
X133940800Y-133046800D02*
X133940800Y-135786800D01*
X140480800Y-133046800D02*
X133940800Y-133046800D01*
X140480800Y-135786800D02*
X140480800Y-133046800D01*
%TO.C,R3*%
X140430000Y-131875200D02*
X140430000Y-129135200D01*
X140430000Y-129135200D02*
X133890000Y-129135200D01*
X133890000Y-129135200D02*
X133890000Y-131875200D01*
X133890000Y-131875200D02*
X140430000Y-131875200D01*
X141200000Y-130505200D02*
X140430000Y-130505200D01*
X133120000Y-130505200D02*
X133890000Y-130505200D01*
%TO.C,R5*%
X146202400Y-101525200D02*
X146202400Y-100755200D01*
X146202400Y-93445200D02*
X146202400Y-94215200D01*
X147572400Y-100755200D02*
X147572400Y-94215200D01*
X144832400Y-100755200D02*
X147572400Y-100755200D01*
X144832400Y-94215200D02*
X144832400Y-100755200D01*
X147572400Y-94215200D02*
X144832400Y-94215200D01*
%TO.C,R6*%
X154686000Y-101423600D02*
X154686000Y-100653600D01*
X154686000Y-93343600D02*
X154686000Y-94113600D01*
X156056000Y-100653600D02*
X156056000Y-94113600D01*
X153316000Y-100653600D02*
X156056000Y-100653600D01*
X153316000Y-94113600D02*
X153316000Y-100653600D01*
X156056000Y-94113600D02*
X153316000Y-94113600D01*
%TO.C,R8*%
X163372800Y-101423600D02*
X163372800Y-100653600D01*
X163372800Y-93343600D02*
X163372800Y-94113600D01*
X164742800Y-100653600D02*
X164742800Y-94113600D01*
X162002800Y-100653600D02*
X164742800Y-100653600D01*
X162002800Y-94113600D02*
X162002800Y-100653600D01*
X164742800Y-94113600D02*
X162002800Y-94113600D01*
%TO.C,Interno*%
X94854000Y-78749200D02*
X93244000Y-78749200D01*
X94854000Y-78749200D02*
X94854000Y-76749200D01*
X94574000Y-66209200D02*
X94574000Y-78459200D01*
X88814000Y-66209200D02*
X94574000Y-66209200D01*
X88814000Y-78469200D02*
X88814000Y-66209200D01*
X94564000Y-78469200D02*
X88824000Y-78469200D01*
D11*
%TO.C,U1*%
X117836000Y-137486000D02*
X89936000Y-137486000D01*
X117836000Y-83086000D02*
X117836000Y-137486000D01*
X89936000Y-83086000D02*
X117836000Y-83086000D01*
X89936000Y-137486000D02*
X89936000Y-83086000D01*
D10*
%TO.C,U2*%
X140191800Y-108753600D02*
X137956800Y-108753600D01*
X140191800Y-124113600D02*
X140191800Y-108753600D01*
X133721800Y-124113600D02*
X140191800Y-124113600D01*
X133721800Y-108753600D02*
X133721800Y-124113600D01*
X135956800Y-108753600D02*
X133721800Y-108753600D01*
X137956800Y-108753600D02*
G75*
G02*
X135956800Y-108753600I-1000000J0D01*
G01*
%TO.C,U3*%
X175580800Y-101794000D02*
X173930800Y-101794000D01*
X173930800Y-101794000D02*
X173930800Y-109534000D01*
X173930800Y-109534000D02*
X179230800Y-109534000D01*
X179230800Y-109534000D02*
X179230800Y-101794000D01*
X179230800Y-101794000D02*
X177580800Y-101794000D01*
X177580800Y-101794000D02*
G75*
G02*
X175580800Y-101794000I-1000000J0D01*
G01*
%TO.C,U4*%
X178926000Y-112614400D02*
X177276000Y-112614400D01*
X178926000Y-120354400D02*
X178926000Y-112614400D01*
X173626000Y-120354400D02*
X178926000Y-120354400D01*
X173626000Y-112614400D02*
X173626000Y-120354400D01*
X175276000Y-112614400D02*
X173626000Y-112614400D01*
X177276000Y-112614400D02*
G75*
G02*
X175276000Y-112614400I-1000000J0D01*
G01*
%TO.C,U5*%
X174869600Y-123587200D02*
X173219600Y-123587200D01*
X173219600Y-123587200D02*
X173219600Y-131327200D01*
X173219600Y-131327200D02*
X178519600Y-131327200D01*
X178519600Y-131327200D02*
X178519600Y-123587200D01*
X178519600Y-123587200D02*
X176869600Y-123587200D01*
X176869600Y-123587200D02*
G75*
G02*
X174869600Y-123587200I-1000000J0D01*
G01*
%TO.C,U6*%
X157844000Y-112004800D02*
X156194000Y-112004800D01*
X157844000Y-119744800D02*
X157844000Y-112004800D01*
X152544000Y-119744800D02*
X157844000Y-119744800D01*
X152544000Y-112004800D02*
X152544000Y-119744800D01*
X154194000Y-112004800D02*
X152544000Y-112004800D01*
X156194000Y-112004800D02*
G75*
G02*
X154194000Y-112004800I-1000000J0D01*
G01*
%TO.C,U8*%
X154796000Y-134966400D02*
X153146000Y-134966400D01*
X154796000Y-142706400D02*
X154796000Y-134966400D01*
X149496000Y-142706400D02*
X154796000Y-142706400D01*
X149496000Y-134966400D02*
X149496000Y-142706400D01*
X151146000Y-134966400D02*
X149496000Y-134966400D01*
X153146000Y-134966400D02*
G75*
G02*
X151146000Y-134966400I-1000000J0D01*
G01*
%TO.C,F1*%
X185214400Y-79787200D02*
X185214400Y-79537200D01*
X185214400Y-82737200D02*
X185214400Y-81286200D01*
X192514400Y-80987200D02*
X192514400Y-79537200D01*
X192514400Y-82737200D02*
X192514400Y-82487200D01*
X185435400Y-79537200D02*
X185214400Y-79537200D01*
X192514400Y-79537200D02*
X187192400Y-79537200D01*
X190535400Y-82737200D02*
X185214400Y-82737200D01*
X192514400Y-82737200D02*
X192293400Y-82737200D01*
%TO.C,F2*%
X192717600Y-88528400D02*
X192496600Y-88528400D01*
X190738600Y-88528400D02*
X185417600Y-88528400D01*
X192717600Y-85328400D02*
X187395600Y-85328400D01*
X185638600Y-85328400D02*
X185417600Y-85328400D01*
X192717600Y-88528400D02*
X192717600Y-88278400D01*
X192717600Y-86778400D02*
X192717600Y-85328400D01*
X185417600Y-88528400D02*
X185417600Y-87077400D01*
X185417600Y-85578400D02*
X185417600Y-85328400D01*
%TO.C,F3*%
X185519200Y-91623600D02*
X185519200Y-91373600D01*
X185519200Y-94573600D02*
X185519200Y-93122600D01*
X192819200Y-92823600D02*
X192819200Y-91373600D01*
X192819200Y-94573600D02*
X192819200Y-94323600D01*
X185740200Y-91373600D02*
X185519200Y-91373600D01*
X192819200Y-91373600D02*
X187497200Y-91373600D01*
X190840200Y-94573600D02*
X185519200Y-94573600D01*
X192819200Y-94573600D02*
X192598200Y-94573600D01*
%TO.C,U9*%
X112556600Y-63287600D02*
X110321600Y-63287600D01*
X112556600Y-78647600D02*
X112556600Y-63287600D01*
X106086600Y-78647600D02*
X112556600Y-78647600D01*
X106086600Y-63287600D02*
X106086600Y-78647600D01*
X108321600Y-63287600D02*
X106086600Y-63287600D01*
X110321600Y-63287600D02*
G75*
G02*
X108321600Y-63287600I-1000000J0D01*
G01*
%TO.C,J3*%
X99508000Y-141875200D02*
X99508000Y-144535200D01*
X102108000Y-141875200D02*
X99508000Y-141875200D01*
X102108000Y-144535200D02*
X99508000Y-144535200D01*
X102108000Y-141875200D02*
X102108000Y-144535200D01*
X103378000Y-141875200D02*
X104708000Y-141875200D01*
X104708000Y-141875200D02*
X104708000Y-143205200D01*
%TO.C,Q1*%
X156838400Y-86183000D02*
X156008400Y-86183000D01*
X159498400Y-86183000D02*
X157918400Y-86183000D01*
X156328400Y-82982000D02*
X156008400Y-82982000D01*
X159498400Y-82982000D02*
X158428400Y-82982000D01*
X159498400Y-88702000D02*
X156008400Y-88702000D01*
X159498400Y-80462000D02*
X156008400Y-80462000D01*
X156008400Y-80462000D02*
X156008400Y-88702000D01*
X159498400Y-80462000D02*
X159498400Y-88702000D01*
%TO.C,Q3*%
X169260400Y-87745200D02*
X177500400Y-87745200D01*
X169260400Y-91235200D02*
X177500400Y-91235200D01*
X169260400Y-87745200D02*
X169260400Y-91235200D01*
X177500400Y-87745200D02*
X177500400Y-91235200D01*
X171780400Y-87745200D02*
X171780400Y-88815200D01*
X171780400Y-90915200D02*
X171780400Y-91235200D01*
X174981400Y-87745200D02*
X174981400Y-89325200D01*
X174981400Y-90405200D02*
X174981400Y-91235200D01*
%TO.C,J13*%
X141735600Y-50850000D02*
G75*
G03*
X141735600Y-50850000I-1680000J0D01*
G01*
X147735600Y-46750000D02*
X137455600Y-46750000D01*
X147735600Y-48250000D02*
X137455600Y-48250000D01*
X147735600Y-53151000D02*
X137455600Y-53151000D01*
X147735600Y-56111000D02*
X137455600Y-56111000D01*
X147735600Y-46190000D02*
X137455600Y-46190000D01*
X147735600Y-56111000D02*
X147735600Y-46190000D01*
X137455600Y-56111000D02*
X137455600Y-46190000D01*
X138780600Y-51919000D02*
X138827600Y-51873000D01*
X141089600Y-49611000D02*
X141124600Y-49576000D01*
X138985600Y-52125000D02*
X139020600Y-52089000D01*
X141282600Y-49827000D02*
X141329600Y-49781000D01*
X147975600Y-46690000D02*
X147975600Y-45950000D01*
X147975600Y-45950000D02*
X147475600Y-45950000D01*
X144452282Y-49315244D02*
G75*
G02*
X145135600Y-49170000I683318J-1534756D01*
G01*
X143600174Y-51533042D02*
G75*
G02*
X143600600Y-50166000I1535426J683042D01*
G01*
X145818642Y-52385426D02*
G75*
G02*
X144451600Y-52385000I-683042J1535426D01*
G01*
X146671026Y-50166958D02*
G75*
G02*
X146670600Y-51534000I-1535426J-683042D01*
G01*
X145106795Y-49169747D02*
G75*
G02*
X145819600Y-49315000I28805J-1680253D01*
G01*
%TO.C,J14*%
X161183600Y-45950000D02*
X160683600Y-45950000D01*
X161183600Y-46690000D02*
X161183600Y-45950000D01*
X154490600Y-49827000D02*
X154537600Y-49781000D01*
X152193600Y-52125000D02*
X152228600Y-52089000D01*
X154297600Y-49611000D02*
X154332600Y-49576000D01*
X151988600Y-51919000D02*
X152035600Y-51873000D01*
X150663600Y-56111000D02*
X150663600Y-46190000D01*
X160943600Y-56111000D02*
X160943600Y-46190000D01*
X160943600Y-46190000D02*
X150663600Y-46190000D01*
X160943600Y-56111000D02*
X150663600Y-56111000D01*
X160943600Y-53151000D02*
X150663600Y-53151000D01*
X160943600Y-48250000D02*
X150663600Y-48250000D01*
X160943600Y-46750000D02*
X150663600Y-46750000D01*
X154943600Y-50850000D02*
G75*
G03*
X154943600Y-50850000I-1680000J0D01*
G01*
X158314795Y-49169747D02*
G75*
G02*
X159027600Y-49315000I28805J-1680253D01*
G01*
X159879026Y-50166958D02*
G75*
G02*
X159878600Y-51534000I-1535426J-683042D01*
G01*
X159026642Y-52385426D02*
G75*
G02*
X157659600Y-52385000I-683042J1535426D01*
G01*
X156808174Y-51533042D02*
G75*
G02*
X156808600Y-50166000I1535426J683042D01*
G01*
X157660282Y-49315244D02*
G75*
G02*
X158343600Y-49170000I683318J-1534756D01*
G01*
%TO.C,J15*%
X167745200Y-50850000D02*
G75*
G03*
X167745200Y-50850000I-1680000J0D01*
G01*
X173745200Y-46750000D02*
X163465200Y-46750000D01*
X173745200Y-48250000D02*
X163465200Y-48250000D01*
X173745200Y-53151000D02*
X163465200Y-53151000D01*
X173745200Y-56111000D02*
X163465200Y-56111000D01*
X173745200Y-46190000D02*
X163465200Y-46190000D01*
X173745200Y-56111000D02*
X173745200Y-46190000D01*
X163465200Y-56111000D02*
X163465200Y-46190000D01*
X164790200Y-51919000D02*
X164837200Y-51873000D01*
X167099200Y-49611000D02*
X167134200Y-49576000D01*
X164995200Y-52125000D02*
X165030200Y-52089000D01*
X167292200Y-49827000D02*
X167339200Y-49781000D01*
X173985200Y-46690000D02*
X173985200Y-45950000D01*
X173985200Y-45950000D02*
X173485200Y-45950000D01*
X170461882Y-49315244D02*
G75*
G02*
X171145200Y-49170000I683318J-1534756D01*
G01*
X169609774Y-51533042D02*
G75*
G02*
X169610200Y-50166000I1535426J683042D01*
G01*
X171828242Y-52385426D02*
G75*
G02*
X170461200Y-52385000I-683042J1535426D01*
G01*
X172680626Y-50166958D02*
G75*
G02*
X172680200Y-51534000I-1535426J-683042D01*
G01*
X171116395Y-49169747D02*
G75*
G02*
X171829200Y-49315000I28805J-1680253D01*
G01*
%TO.C,J11*%
X116161600Y-50850000D02*
G75*
G03*
X116161600Y-50850000I-1680000J0D01*
G01*
X111161600Y-50850000D02*
G75*
G03*
X111161600Y-50850000I-1680000J0D01*
G01*
X106161600Y-50850000D02*
G75*
G03*
X106161600Y-50850000I-1680000J0D01*
G01*
X101161600Y-50850000D02*
G75*
G03*
X101161600Y-50850000I-1680000J0D01*
G01*
X96161600Y-50850000D02*
G75*
G03*
X96161600Y-50850000I-1680000J0D01*
G01*
X122041600Y-46750000D02*
X91921600Y-46750000D01*
X122041600Y-48250000D02*
X91921600Y-48250000D01*
X122041600Y-53151000D02*
X91921600Y-53151000D01*
X122041600Y-56111000D02*
X91921600Y-56111000D01*
X122041600Y-46190000D02*
X91921600Y-46190000D01*
X122041600Y-56111000D02*
X122041600Y-46190000D01*
X91921600Y-56111000D02*
X91921600Y-46190000D01*
X113206600Y-51919000D02*
X113253600Y-51873000D01*
X115515600Y-49611000D02*
X115550600Y-49576000D01*
X113411600Y-52125000D02*
X113446600Y-52089000D01*
X115708600Y-49827000D02*
X115755600Y-49781000D01*
X108206600Y-51919000D02*
X108253600Y-51873000D01*
X110515600Y-49611000D02*
X110550600Y-49576000D01*
X108411600Y-52125000D02*
X108446600Y-52089000D01*
X110708600Y-49827000D02*
X110755600Y-49781000D01*
X103206600Y-51919000D02*
X103253600Y-51873000D01*
X105515600Y-49611000D02*
X105550600Y-49576000D01*
X103411600Y-52125000D02*
X103446600Y-52089000D01*
X105708600Y-49827000D02*
X105755600Y-49781000D01*
X98206600Y-51919000D02*
X98253600Y-51873000D01*
X100515600Y-49611000D02*
X100550600Y-49576000D01*
X98411600Y-52125000D02*
X98446600Y-52089000D01*
X100708600Y-49827000D02*
X100755600Y-49781000D01*
X93206600Y-51919000D02*
X93253600Y-51873000D01*
X95515600Y-49611000D02*
X95550600Y-49576000D01*
X93411600Y-52125000D02*
X93446600Y-52089000D01*
X95708600Y-49827000D02*
X95755600Y-49781000D01*
X122281600Y-46690000D02*
X122281600Y-45950000D01*
X122281600Y-45950000D02*
X121781600Y-45950000D01*
X118798282Y-49315244D02*
G75*
G02*
X119481600Y-49170000I683318J-1534756D01*
G01*
X117946174Y-51533042D02*
G75*
G02*
X117946600Y-50166000I1535426J683042D01*
G01*
X120164642Y-52385426D02*
G75*
G02*
X118797600Y-52385000I-683042J1535426D01*
G01*
X121017026Y-50166958D02*
G75*
G02*
X121016600Y-51534000I-1535426J-683042D01*
G01*
X119452795Y-49169747D02*
G75*
G02*
X120165600Y-49315000I28805J-1680253D01*
G01*
%TO.C,R4*%
X91432800Y-62026800D02*
G75*
G03*
X91432800Y-62026800I-1720000J0D01*
G01*
X91432800Y-62026800D02*
X93692800Y-62026800D01*
%TO.C,R9*%
X124721200Y-62179200D02*
X122461200Y-62179200D01*
X128161200Y-62179200D02*
G75*
G03*
X128161200Y-62179200I-1720000J0D01*
G01*
%TO.C,R10*%
X128008800Y-67614800D02*
G75*
G03*
X128008800Y-67614800I-1720000J0D01*
G01*
X124568800Y-67614800D02*
X122308800Y-67614800D01*
%TO.C,R11*%
X124365600Y-79248000D02*
X122105600Y-79248000D01*
X127805600Y-79248000D02*
G75*
G03*
X127805600Y-79248000I-1720000J0D01*
G01*
%TO.C,R12*%
X127856400Y-73406000D02*
G75*
G03*
X127856400Y-73406000I-1720000J0D01*
G01*
X124416400Y-73406000D02*
X122156400Y-73406000D01*
%TO.C,R14*%
X151529200Y-72542400D02*
G75*
G03*
X151529200Y-72542400I-1720000J0D01*
G01*
X149809200Y-74262400D02*
X149809200Y-76522400D01*
%TO.C,R15*%
X165557200Y-82557200D02*
X165557200Y-80297200D01*
X167277200Y-84277200D02*
G75*
G03*
X167277200Y-84277200I-1720000J0D01*
G01*
%TO.C,J4*%
D12*
X85721866Y-132084380D02*
X85721866Y-132798666D01*
X85674247Y-132941523D01*
X85579009Y-133036761D01*
X85436152Y-133084380D01*
X85340914Y-133084380D01*
X86626628Y-132417714D02*
X86626628Y-133084380D01*
X86388533Y-132036761D02*
X86150438Y-132751047D01*
X86769485Y-132751047D01*
%TO.C,D3*%
X97257980Y-144044895D02*
X96257980Y-144044895D01*
X96257980Y-143806800D01*
X96305600Y-143663942D01*
X96400838Y-143568704D01*
X96496076Y-143521085D01*
X96686552Y-143473466D01*
X96829409Y-143473466D01*
X97019885Y-143521085D01*
X97115123Y-143568704D01*
X97210361Y-143663942D01*
X97257980Y-143806800D01*
X97257980Y-144044895D01*
X96257980Y-143140133D02*
X96257980Y-142521085D01*
X96638933Y-142854419D01*
X96638933Y-142711561D01*
X96686552Y-142616323D01*
X96734171Y-142568704D01*
X96829409Y-142521085D01*
X97067504Y-142521085D01*
X97162742Y-142568704D01*
X97210361Y-142616323D01*
X97257980Y-142711561D01*
X97257980Y-142997276D01*
X97210361Y-143092514D01*
X97162742Y-143140133D01*
X94502266Y-146714895D02*
X94502266Y-146238704D01*
X94787980Y-146810133D02*
X93787980Y-146476800D01*
X94787980Y-146143466D01*
%TO.C,J10*%
X165204876Y-136245180D02*
X165204876Y-136959466D01*
X165157257Y-137102323D01*
X165062019Y-137197561D01*
X164919161Y-137245180D01*
X164823923Y-137245180D01*
X166204876Y-137245180D02*
X165633447Y-137245180D01*
X165919161Y-137245180D02*
X165919161Y-136245180D01*
X165823923Y-136388038D01*
X165728685Y-136483276D01*
X165633447Y-136530895D01*
X166823923Y-136245180D02*
X166919161Y-136245180D01*
X167014400Y-136292800D01*
X167062019Y-136340419D01*
X167109638Y-136435657D01*
X167157257Y-136626133D01*
X167157257Y-136864228D01*
X167109638Y-137054704D01*
X167062019Y-137149942D01*
X167014400Y-137197561D01*
X166919161Y-137245180D01*
X166823923Y-137245180D01*
X166728685Y-137197561D01*
X166681066Y-137149942D01*
X166633447Y-137054704D01*
X166585828Y-136864228D01*
X166585828Y-136626133D01*
X166633447Y-136435657D01*
X166681066Y-136340419D01*
X166728685Y-136292800D01*
X166823923Y-136245180D01*
%TO.C,J9*%
X178330266Y-136194380D02*
X178330266Y-136908666D01*
X178282647Y-137051523D01*
X178187409Y-137146761D01*
X178044552Y-137194380D01*
X177949314Y-137194380D01*
X178854076Y-137194380D02*
X179044552Y-137194380D01*
X179139790Y-137146761D01*
X179187409Y-137099142D01*
X179282647Y-136956285D01*
X179330266Y-136765809D01*
X179330266Y-136384857D01*
X179282647Y-136289619D01*
X179235028Y-136242000D01*
X179139790Y-136194380D01*
X178949314Y-136194380D01*
X178854076Y-136242000D01*
X178806457Y-136289619D01*
X178758838Y-136384857D01*
X178758838Y-136622952D01*
X178806457Y-136718190D01*
X178854076Y-136765809D01*
X178949314Y-136813428D01*
X179139790Y-136813428D01*
X179235028Y-136765809D01*
X179282647Y-136718190D01*
X179330266Y-136622952D01*
%TO.C,J8*%
X191030266Y-136194380D02*
X191030266Y-136908666D01*
X190982647Y-137051523D01*
X190887409Y-137146761D01*
X190744552Y-137194380D01*
X190649314Y-137194380D01*
X191649314Y-136622952D02*
X191554076Y-136575333D01*
X191506457Y-136527714D01*
X191458838Y-136432476D01*
X191458838Y-136384857D01*
X191506457Y-136289619D01*
X191554076Y-136242000D01*
X191649314Y-136194380D01*
X191839790Y-136194380D01*
X191935028Y-136242000D01*
X191982647Y-136289619D01*
X192030266Y-136384857D01*
X192030266Y-136432476D01*
X191982647Y-136527714D01*
X191935028Y-136575333D01*
X191839790Y-136622952D01*
X191649314Y-136622952D01*
X191554076Y-136670571D01*
X191506457Y-136718190D01*
X191458838Y-136813428D01*
X191458838Y-137003904D01*
X191506457Y-137099142D01*
X191554076Y-137146761D01*
X191649314Y-137194380D01*
X191839790Y-137194380D01*
X191935028Y-137146761D01*
X191982647Y-137099142D01*
X192030266Y-137003904D01*
X192030266Y-136813428D01*
X191982647Y-136718190D01*
X191935028Y-136670571D01*
X191839790Y-136622952D01*
%TO.C,K3*%
X189174380Y-69114895D02*
X188174380Y-69114895D01*
X189174380Y-68543466D02*
X188602952Y-68972038D01*
X188174380Y-68543466D02*
X188745809Y-69114895D01*
X188174380Y-68210133D02*
X188174380Y-67591085D01*
X188555333Y-67924419D01*
X188555333Y-67781561D01*
X188602952Y-67686323D01*
X188650571Y-67638704D01*
X188745809Y-67591085D01*
X188983904Y-67591085D01*
X189079142Y-67638704D01*
X189126761Y-67686323D01*
X189174380Y-67781561D01*
X189174380Y-68067276D01*
X189126761Y-68162514D01*
X189079142Y-68210133D01*
%TO.C,R7*%
X133515180Y-81599066D02*
X133038990Y-81932400D01*
X133515180Y-82170495D02*
X132515180Y-82170495D01*
X132515180Y-81789542D01*
X132562800Y-81694304D01*
X132610419Y-81646685D01*
X132705657Y-81599066D01*
X132848514Y-81599066D01*
X132943752Y-81646685D01*
X132991371Y-81694304D01*
X133038990Y-81789542D01*
X133038990Y-82170495D01*
X132515180Y-81265733D02*
X132515180Y-80599066D01*
X133515180Y-81027638D01*
%TO.C,J12*%
X128832076Y-47051980D02*
X128832076Y-47766266D01*
X128784457Y-47909123D01*
X128689219Y-48004361D01*
X128546361Y-48051980D01*
X128451123Y-48051980D01*
X129832076Y-48051980D02*
X129260647Y-48051980D01*
X129546361Y-48051980D02*
X129546361Y-47051980D01*
X129451123Y-47194838D01*
X129355885Y-47290076D01*
X129260647Y-47337695D01*
X130213028Y-47147219D02*
X130260647Y-47099600D01*
X130355885Y-47051980D01*
X130593980Y-47051980D01*
X130689219Y-47099600D01*
X130736838Y-47147219D01*
X130784457Y-47242457D01*
X130784457Y-47337695D01*
X130736838Y-47480552D01*
X130165409Y-48051980D01*
X130784457Y-48051980D01*
%TO.C,K2*%
X168549580Y-69064095D02*
X167549580Y-69064095D01*
X168549580Y-68492666D02*
X167978152Y-68921238D01*
X167549580Y-68492666D02*
X168121009Y-69064095D01*
X167644819Y-68111714D02*
X167597200Y-68064095D01*
X167549580Y-67968857D01*
X167549580Y-67730761D01*
X167597200Y-67635523D01*
X167644819Y-67587904D01*
X167740057Y-67540285D01*
X167835295Y-67540285D01*
X167978152Y-67587904D01*
X168549580Y-68159333D01*
X168549580Y-67540285D01*
%TO.C,J16*%
X180851276Y-47051980D02*
X180851276Y-47766266D01*
X180803657Y-47909123D01*
X180708419Y-48004361D01*
X180565561Y-48051980D01*
X180470323Y-48051980D01*
X181851276Y-48051980D02*
X181279847Y-48051980D01*
X181565561Y-48051980D02*
X181565561Y-47051980D01*
X181470323Y-47194838D01*
X181375085Y-47290076D01*
X181279847Y-47337695D01*
X182708419Y-47051980D02*
X182517942Y-47051980D01*
X182422704Y-47099600D01*
X182375085Y-47147219D01*
X182279847Y-47290076D01*
X182232228Y-47480552D01*
X182232228Y-47861504D01*
X182279847Y-47956742D01*
X182327466Y-48004361D01*
X182422704Y-48051980D01*
X182613180Y-48051980D01*
X182708419Y-48004361D01*
X182756038Y-47956742D01*
X182803657Y-47861504D01*
X182803657Y-47623409D01*
X182756038Y-47528171D01*
X182708419Y-47480552D01*
X182613180Y-47432933D01*
X182422704Y-47432933D01*
X182327466Y-47480552D01*
X182279847Y-47528171D01*
X182232228Y-47623409D01*
%TO.C,U7*%
X154889295Y-121683980D02*
X154889295Y-122493504D01*
X154936914Y-122588742D01*
X154984533Y-122636361D01*
X155079771Y-122683980D01*
X155270247Y-122683980D01*
X155365485Y-122636361D01*
X155413104Y-122588742D01*
X155460723Y-122493504D01*
X155460723Y-121683980D01*
X155841676Y-121683980D02*
X156508342Y-121683980D01*
X156079771Y-122683980D01*
%TO.C,D1*%
X173759904Y-78551180D02*
X173759904Y-77551180D01*
X173998000Y-77551180D01*
X174140857Y-77598800D01*
X174236095Y-77694038D01*
X174283714Y-77789276D01*
X174331333Y-77979752D01*
X174331333Y-78122609D01*
X174283714Y-78313085D01*
X174236095Y-78408323D01*
X174140857Y-78503561D01*
X173998000Y-78551180D01*
X173759904Y-78551180D01*
X175283714Y-78551180D02*
X174712285Y-78551180D01*
X174998000Y-78551180D02*
X174998000Y-77551180D01*
X174902761Y-77694038D01*
X174807523Y-77789276D01*
X174712285Y-77836895D01*
X177429904Y-80735466D02*
X177906095Y-80735466D01*
X177334666Y-81021180D02*
X177668000Y-80021180D01*
X178001333Y-81021180D01*
%TO.C,D2*%
X147689980Y-65457295D02*
X146689980Y-65457295D01*
X146689980Y-65219200D01*
X146737600Y-65076342D01*
X146832838Y-64981104D01*
X146928076Y-64933485D01*
X147118552Y-64885866D01*
X147261409Y-64885866D01*
X147451885Y-64933485D01*
X147547123Y-64981104D01*
X147642361Y-65076342D01*
X147689980Y-65219200D01*
X147689980Y-65457295D01*
X146785219Y-64504914D02*
X146737600Y-64457295D01*
X146689980Y-64362057D01*
X146689980Y-64123961D01*
X146737600Y-64028723D01*
X146785219Y-63981104D01*
X146880457Y-63933485D01*
X146975695Y-63933485D01*
X147118552Y-63981104D01*
X147689980Y-64552533D01*
X147689980Y-63933485D01*
X149874266Y-61787295D02*
X149874266Y-61311104D01*
X150159980Y-61882533D02*
X149159980Y-61549200D01*
X150159980Y-61215866D01*
%TO.C,J1*%
X199909180Y-90046133D02*
X200623466Y-90046133D01*
X200766323Y-90093752D01*
X200861561Y-90188990D01*
X200909180Y-90331847D01*
X200909180Y-90427085D01*
X200909180Y-89046133D02*
X200909180Y-89617561D01*
X200909180Y-89331847D02*
X199909180Y-89331847D01*
X200052038Y-89427085D01*
X200147276Y-89522323D01*
X200194895Y-89617561D01*
%TO.C,J2*%
X189557066Y-96632780D02*
X189557066Y-97347066D01*
X189509447Y-97489923D01*
X189414209Y-97585161D01*
X189271352Y-97632780D01*
X189176114Y-97632780D01*
X189985638Y-96728019D02*
X190033257Y-96680400D01*
X190128495Y-96632780D01*
X190366590Y-96632780D01*
X190461828Y-96680400D01*
X190509447Y-96728019D01*
X190557066Y-96823257D01*
X190557066Y-96918495D01*
X190509447Y-97061352D01*
X189938019Y-97632780D01*
X190557066Y-97632780D01*
%TO.C,J5*%
X201534780Y-120018133D02*
X202249066Y-120018133D01*
X202391923Y-120065752D01*
X202487161Y-120160990D01*
X202534780Y-120303847D01*
X202534780Y-120399085D01*
X201534780Y-119065752D02*
X201534780Y-119541942D01*
X202010971Y-119589561D01*
X201963352Y-119541942D01*
X201915733Y-119446704D01*
X201915733Y-119208609D01*
X201963352Y-119113371D01*
X202010971Y-119065752D01*
X202106209Y-119018133D01*
X202344304Y-119018133D01*
X202439542Y-119065752D01*
X202487161Y-119113371D01*
X202534780Y-119208609D01*
X202534780Y-119446704D01*
X202487161Y-119541942D01*
X202439542Y-119589561D01*
%TO.C,J17*%
X193652876Y-47051980D02*
X193652876Y-47766266D01*
X193605257Y-47909123D01*
X193510019Y-48004361D01*
X193367161Y-48051980D01*
X193271923Y-48051980D01*
X194652876Y-48051980D02*
X194081447Y-48051980D01*
X194367161Y-48051980D02*
X194367161Y-47051980D01*
X194271923Y-47194838D01*
X194176685Y-47290076D01*
X194081447Y-47337695D01*
X194986209Y-47051980D02*
X195652876Y-47051980D01*
X195224304Y-48051980D01*
%TO.C,J7*%
X136910380Y-97970933D02*
X137624666Y-97970933D01*
X137767523Y-98018552D01*
X137862761Y-98113790D01*
X137910380Y-98256647D01*
X137910380Y-98351885D01*
X136910380Y-97589980D02*
X136910380Y-96923314D01*
X137910380Y-97351885D01*
%TO.C,R1*%
X144359333Y-140152380D02*
X144026000Y-139676190D01*
X143787904Y-140152380D02*
X143787904Y-139152380D01*
X144168857Y-139152380D01*
X144264095Y-139200000D01*
X144311714Y-139247619D01*
X144359333Y-139342857D01*
X144359333Y-139485714D01*
X144311714Y-139580952D01*
X144264095Y-139628571D01*
X144168857Y-139676190D01*
X143787904Y-139676190D01*
X145311714Y-140152380D02*
X144740285Y-140152380D01*
X145026000Y-140152380D02*
X145026000Y-139152380D01*
X144930761Y-139295238D01*
X144835523Y-139390476D01*
X144740285Y-139438095D01*
%TO.C,R2*%
X144257733Y-136799580D02*
X143924400Y-136323390D01*
X143686304Y-136799580D02*
X143686304Y-135799580D01*
X144067257Y-135799580D01*
X144162495Y-135847200D01*
X144210114Y-135894819D01*
X144257733Y-135990057D01*
X144257733Y-136132914D01*
X144210114Y-136228152D01*
X144162495Y-136275771D01*
X144067257Y-136323390D01*
X143686304Y-136323390D01*
X144638685Y-135894819D02*
X144686304Y-135847200D01*
X144781542Y-135799580D01*
X145019638Y-135799580D01*
X145114876Y-135847200D01*
X145162495Y-135894819D01*
X145210114Y-135990057D01*
X145210114Y-136085295D01*
X145162495Y-136228152D01*
X144591066Y-136799580D01*
X145210114Y-136799580D01*
%TO.C,R3*%
X144257733Y-131973580D02*
X143924400Y-131497390D01*
X143686304Y-131973580D02*
X143686304Y-130973580D01*
X144067257Y-130973580D01*
X144162495Y-131021200D01*
X144210114Y-131068819D01*
X144257733Y-131164057D01*
X144257733Y-131306914D01*
X144210114Y-131402152D01*
X144162495Y-131449771D01*
X144067257Y-131497390D01*
X143686304Y-131497390D01*
X144591066Y-130973580D02*
X145210114Y-130973580D01*
X144876780Y-131354533D01*
X145019638Y-131354533D01*
X145114876Y-131402152D01*
X145162495Y-131449771D01*
X145210114Y-131545009D01*
X145210114Y-131783104D01*
X145162495Y-131878342D01*
X145114876Y-131925961D01*
X145019638Y-131973580D01*
X144733923Y-131973580D01*
X144638685Y-131925961D01*
X144591066Y-131878342D01*
%TO.C,R5*%
X149024780Y-97651866D02*
X148548590Y-97985200D01*
X149024780Y-98223295D02*
X148024780Y-98223295D01*
X148024780Y-97842342D01*
X148072400Y-97747104D01*
X148120019Y-97699485D01*
X148215257Y-97651866D01*
X148358114Y-97651866D01*
X148453352Y-97699485D01*
X148500971Y-97747104D01*
X148548590Y-97842342D01*
X148548590Y-98223295D01*
X148024780Y-96747104D02*
X148024780Y-97223295D01*
X148500971Y-97270914D01*
X148453352Y-97223295D01*
X148405733Y-97128057D01*
X148405733Y-96889961D01*
X148453352Y-96794723D01*
X148500971Y-96747104D01*
X148596209Y-96699485D01*
X148834304Y-96699485D01*
X148929542Y-96747104D01*
X148977161Y-96794723D01*
X149024780Y-96889961D01*
X149024780Y-97128057D01*
X148977161Y-97223295D01*
X148929542Y-97270914D01*
%TO.C,R6*%
X157508380Y-97550266D02*
X157032190Y-97883600D01*
X157508380Y-98121695D02*
X156508380Y-98121695D01*
X156508380Y-97740742D01*
X156556000Y-97645504D01*
X156603619Y-97597885D01*
X156698857Y-97550266D01*
X156841714Y-97550266D01*
X156936952Y-97597885D01*
X156984571Y-97645504D01*
X157032190Y-97740742D01*
X157032190Y-98121695D01*
X156508380Y-96693123D02*
X156508380Y-96883600D01*
X156556000Y-96978838D01*
X156603619Y-97026457D01*
X156746476Y-97121695D01*
X156936952Y-97169314D01*
X157317904Y-97169314D01*
X157413142Y-97121695D01*
X157460761Y-97074076D01*
X157508380Y-96978838D01*
X157508380Y-96788361D01*
X157460761Y-96693123D01*
X157413142Y-96645504D01*
X157317904Y-96597885D01*
X157079809Y-96597885D01*
X156984571Y-96645504D01*
X156936952Y-96693123D01*
X156889333Y-96788361D01*
X156889333Y-96978838D01*
X156936952Y-97074076D01*
X156984571Y-97121695D01*
X157079809Y-97169314D01*
%TO.C,R8*%
X161437580Y-97550266D02*
X160961390Y-97883600D01*
X161437580Y-98121695D02*
X160437580Y-98121695D01*
X160437580Y-97740742D01*
X160485200Y-97645504D01*
X160532819Y-97597885D01*
X160628057Y-97550266D01*
X160770914Y-97550266D01*
X160866152Y-97597885D01*
X160913771Y-97645504D01*
X160961390Y-97740742D01*
X160961390Y-98121695D01*
X160866152Y-96978838D02*
X160818533Y-97074076D01*
X160770914Y-97121695D01*
X160675676Y-97169314D01*
X160628057Y-97169314D01*
X160532819Y-97121695D01*
X160485200Y-97074076D01*
X160437580Y-96978838D01*
X160437580Y-96788361D01*
X160485200Y-96693123D01*
X160532819Y-96645504D01*
X160628057Y-96597885D01*
X160675676Y-96597885D01*
X160770914Y-96645504D01*
X160818533Y-96693123D01*
X160866152Y-96788361D01*
X160866152Y-96978838D01*
X160913771Y-97074076D01*
X160961390Y-97121695D01*
X161056628Y-97169314D01*
X161247104Y-97169314D01*
X161342342Y-97121695D01*
X161389961Y-97074076D01*
X161437580Y-96978838D01*
X161437580Y-96788361D01*
X161389961Y-96693123D01*
X161342342Y-96645504D01*
X161247104Y-96597885D01*
X161056628Y-96597885D01*
X160961390Y-96645504D01*
X160913771Y-96693123D01*
X160866152Y-96788361D01*
%TO.C,Interno*%
X83471047Y-69641980D02*
X83471047Y-68641980D01*
X83947238Y-68975314D02*
X83947238Y-69641980D01*
X83947238Y-69070552D02*
X83994857Y-69022933D01*
X84090095Y-68975314D01*
X84232952Y-68975314D01*
X84328190Y-69022933D01*
X84375809Y-69118171D01*
X84375809Y-69641980D01*
X84709142Y-68975314D02*
X85090095Y-68975314D01*
X84852000Y-68641980D02*
X84852000Y-69499123D01*
X84899619Y-69594361D01*
X84994857Y-69641980D01*
X85090095Y-69641980D01*
X85804380Y-69594361D02*
X85709142Y-69641980D01*
X85518666Y-69641980D01*
X85423428Y-69594361D01*
X85375809Y-69499123D01*
X85375809Y-69118171D01*
X85423428Y-69022933D01*
X85518666Y-68975314D01*
X85709142Y-68975314D01*
X85804380Y-69022933D01*
X85852000Y-69118171D01*
X85852000Y-69213409D01*
X85375809Y-69308647D01*
X86280571Y-69641980D02*
X86280571Y-68975314D01*
X86280571Y-69165790D02*
X86328190Y-69070552D01*
X86375809Y-69022933D01*
X86471047Y-68975314D01*
X86566285Y-68975314D01*
X86899619Y-68975314D02*
X86899619Y-69641980D01*
X86899619Y-69070552D02*
X86947238Y-69022933D01*
X87042476Y-68975314D01*
X87185333Y-68975314D01*
X87280571Y-69022933D01*
X87328190Y-69118171D01*
X87328190Y-69641980D01*
X87947238Y-69641980D02*
X87852000Y-69594361D01*
X87804380Y-69546742D01*
X87756761Y-69451504D01*
X87756761Y-69165790D01*
X87804380Y-69070552D01*
X87852000Y-69022933D01*
X87947238Y-68975314D01*
X88090095Y-68975314D01*
X88185333Y-69022933D01*
X88232952Y-69070552D01*
X88280571Y-69165790D01*
X88280571Y-69451504D01*
X88232952Y-69546742D01*
X88185333Y-69594361D01*
X88090095Y-69641980D01*
X87947238Y-69641980D01*
%TO.C,U1*%
X87071001Y-79868569D02*
X87071001Y-80678405D01*
X87118638Y-80773680D01*
X87166276Y-80821318D01*
X87261550Y-80868955D01*
X87452100Y-80868955D01*
X87547375Y-80821318D01*
X87595012Y-80773680D01*
X87642650Y-80678405D01*
X87642650Y-79868569D01*
X88643036Y-80868955D02*
X88071387Y-80868955D01*
X88357211Y-80868955D02*
X88357211Y-79868569D01*
X88261936Y-80011481D01*
X88166662Y-80106756D01*
X88071387Y-80154394D01*
%TO.C,U2*%
X136194895Y-107205980D02*
X136194895Y-108015504D01*
X136242514Y-108110742D01*
X136290133Y-108158361D01*
X136385371Y-108205980D01*
X136575847Y-108205980D01*
X136671085Y-108158361D01*
X136718704Y-108110742D01*
X136766323Y-108015504D01*
X136766323Y-107205980D01*
X137194895Y-107301219D02*
X137242514Y-107253600D01*
X137337752Y-107205980D01*
X137575847Y-107205980D01*
X137671085Y-107253600D01*
X137718704Y-107301219D01*
X137766323Y-107396457D01*
X137766323Y-107491695D01*
X137718704Y-107634552D01*
X137147276Y-108205980D01*
X137766323Y-108205980D01*
%TO.C,U3*%
X175818895Y-100246380D02*
X175818895Y-101055904D01*
X175866514Y-101151142D01*
X175914133Y-101198761D01*
X176009371Y-101246380D01*
X176199847Y-101246380D01*
X176295085Y-101198761D01*
X176342704Y-101151142D01*
X176390323Y-101055904D01*
X176390323Y-100246380D01*
X176771276Y-100246380D02*
X177390323Y-100246380D01*
X177056990Y-100627333D01*
X177199847Y-100627333D01*
X177295085Y-100674952D01*
X177342704Y-100722571D01*
X177390323Y-100817809D01*
X177390323Y-101055904D01*
X177342704Y-101151142D01*
X177295085Y-101198761D01*
X177199847Y-101246380D01*
X176914133Y-101246380D01*
X176818895Y-101198761D01*
X176771276Y-101151142D01*
%TO.C,U4*%
X175514095Y-111066780D02*
X175514095Y-111876304D01*
X175561714Y-111971542D01*
X175609333Y-112019161D01*
X175704571Y-112066780D01*
X175895047Y-112066780D01*
X175990285Y-112019161D01*
X176037904Y-111971542D01*
X176085523Y-111876304D01*
X176085523Y-111066780D01*
X176990285Y-111400114D02*
X176990285Y-112066780D01*
X176752190Y-111019161D02*
X176514095Y-111733447D01*
X177133142Y-111733447D01*
%TO.C,U5*%
X175107695Y-122039580D02*
X175107695Y-122849104D01*
X175155314Y-122944342D01*
X175202933Y-122991961D01*
X175298171Y-123039580D01*
X175488647Y-123039580D01*
X175583885Y-122991961D01*
X175631504Y-122944342D01*
X175679123Y-122849104D01*
X175679123Y-122039580D01*
X176631504Y-122039580D02*
X176155314Y-122039580D01*
X176107695Y-122515771D01*
X176155314Y-122468152D01*
X176250552Y-122420533D01*
X176488647Y-122420533D01*
X176583885Y-122468152D01*
X176631504Y-122515771D01*
X176679123Y-122611009D01*
X176679123Y-122849104D01*
X176631504Y-122944342D01*
X176583885Y-122991961D01*
X176488647Y-123039580D01*
X176250552Y-123039580D01*
X176155314Y-122991961D01*
X176107695Y-122944342D01*
%TO.C,U6*%
X154432095Y-110457180D02*
X154432095Y-111266704D01*
X154479714Y-111361942D01*
X154527333Y-111409561D01*
X154622571Y-111457180D01*
X154813047Y-111457180D01*
X154908285Y-111409561D01*
X154955904Y-111361942D01*
X155003523Y-111266704D01*
X155003523Y-110457180D01*
X155908285Y-110457180D02*
X155717809Y-110457180D01*
X155622571Y-110504800D01*
X155574952Y-110552419D01*
X155479714Y-110695276D01*
X155432095Y-110885752D01*
X155432095Y-111266704D01*
X155479714Y-111361942D01*
X155527333Y-111409561D01*
X155622571Y-111457180D01*
X155813047Y-111457180D01*
X155908285Y-111409561D01*
X155955904Y-111361942D01*
X156003523Y-111266704D01*
X156003523Y-111028609D01*
X155955904Y-110933371D01*
X155908285Y-110885752D01*
X155813047Y-110838133D01*
X155622571Y-110838133D01*
X155527333Y-110885752D01*
X155479714Y-110933371D01*
X155432095Y-111028609D01*
%TO.C,U8*%
X151384095Y-133418780D02*
X151384095Y-134228304D01*
X151431714Y-134323542D01*
X151479333Y-134371161D01*
X151574571Y-134418780D01*
X151765047Y-134418780D01*
X151860285Y-134371161D01*
X151907904Y-134323542D01*
X151955523Y-134228304D01*
X151955523Y-133418780D01*
X152574571Y-133847352D02*
X152479333Y-133799733D01*
X152431714Y-133752114D01*
X152384095Y-133656876D01*
X152384095Y-133609257D01*
X152431714Y-133514019D01*
X152479333Y-133466400D01*
X152574571Y-133418780D01*
X152765047Y-133418780D01*
X152860285Y-133466400D01*
X152907904Y-133514019D01*
X152955523Y-133609257D01*
X152955523Y-133656876D01*
X152907904Y-133752114D01*
X152860285Y-133799733D01*
X152765047Y-133847352D01*
X152574571Y-133847352D01*
X152479333Y-133894971D01*
X152431714Y-133942590D01*
X152384095Y-134037828D01*
X152384095Y-134228304D01*
X152431714Y-134323542D01*
X152479333Y-134371161D01*
X152574571Y-134418780D01*
X152765047Y-134418780D01*
X152860285Y-134371161D01*
X152907904Y-134323542D01*
X152955523Y-134228304D01*
X152955523Y-134037828D01*
X152907904Y-133942590D01*
X152860285Y-133894971D01*
X152765047Y-133847352D01*
%TO.C,F1*%
X188541066Y-80954571D02*
X188207733Y-80954571D01*
X188207733Y-81478380D02*
X188207733Y-80478380D01*
X188683923Y-80478380D01*
X189588685Y-81478380D02*
X189017257Y-81478380D01*
X189302971Y-81478380D02*
X189302971Y-80478380D01*
X189207733Y-80621238D01*
X189112495Y-80716476D01*
X189017257Y-80764095D01*
%TO.C,F2*%
X188795066Y-86745771D02*
X188461733Y-86745771D01*
X188461733Y-87269580D02*
X188461733Y-86269580D01*
X188937923Y-86269580D01*
X189271257Y-86364819D02*
X189318876Y-86317200D01*
X189414114Y-86269580D01*
X189652209Y-86269580D01*
X189747447Y-86317200D01*
X189795066Y-86364819D01*
X189842685Y-86460057D01*
X189842685Y-86555295D01*
X189795066Y-86698152D01*
X189223638Y-87269580D01*
X189842685Y-87269580D01*
%TO.C,F3*%
X188896666Y-92638571D02*
X188563333Y-92638571D01*
X188563333Y-93162380D02*
X188563333Y-92162380D01*
X189039523Y-92162380D01*
X189325238Y-92162380D02*
X189944285Y-92162380D01*
X189610952Y-92543333D01*
X189753809Y-92543333D01*
X189849047Y-92590952D01*
X189896666Y-92638571D01*
X189944285Y-92733809D01*
X189944285Y-92971904D01*
X189896666Y-93067142D01*
X189849047Y-93114761D01*
X189753809Y-93162380D01*
X189468095Y-93162380D01*
X189372857Y-93114761D01*
X189325238Y-93067142D01*
%TO.C,U9*%
X108559695Y-61739980D02*
X108559695Y-62549504D01*
X108607314Y-62644742D01*
X108654933Y-62692361D01*
X108750171Y-62739980D01*
X108940647Y-62739980D01*
X109035885Y-62692361D01*
X109083504Y-62644742D01*
X109131123Y-62549504D01*
X109131123Y-61739980D01*
X109654933Y-62739980D02*
X109845409Y-62739980D01*
X109940647Y-62692361D01*
X109988266Y-62644742D01*
X110083504Y-62501885D01*
X110131123Y-62311409D01*
X110131123Y-61930457D01*
X110083504Y-61835219D01*
X110035885Y-61787600D01*
X109940647Y-61739980D01*
X109750171Y-61739980D01*
X109654933Y-61787600D01*
X109607314Y-61835219D01*
X109559695Y-61930457D01*
X109559695Y-62168552D01*
X109607314Y-62263790D01*
X109654933Y-62311409D01*
X109750171Y-62359028D01*
X109940647Y-62359028D01*
X110035885Y-62311409D01*
X110083504Y-62263790D01*
X110131123Y-62168552D01*
%TO.C,J3*%
X102028666Y-139660380D02*
X102028666Y-140374666D01*
X101981047Y-140517523D01*
X101885809Y-140612761D01*
X101742952Y-140660380D01*
X101647714Y-140660380D01*
X102409619Y-139660380D02*
X103028666Y-139660380D01*
X102695333Y-140041333D01*
X102838190Y-140041333D01*
X102933428Y-140088952D01*
X102981047Y-140136571D01*
X103028666Y-140231809D01*
X103028666Y-140469904D01*
X102981047Y-140565142D01*
X102933428Y-140612761D01*
X102838190Y-140660380D01*
X102552476Y-140660380D01*
X102457238Y-140612761D01*
X102409619Y-140565142D01*
%TO.C,Q1*%
X161046019Y-84677238D02*
X160998400Y-84772476D01*
X160903161Y-84867714D01*
X160760304Y-85010571D01*
X160712685Y-85105809D01*
X160712685Y-85201047D01*
X160950780Y-85153428D02*
X160903161Y-85248666D01*
X160807923Y-85343904D01*
X160617447Y-85391523D01*
X160284114Y-85391523D01*
X160093638Y-85343904D01*
X159998400Y-85248666D01*
X159950780Y-85153428D01*
X159950780Y-84962952D01*
X159998400Y-84867714D01*
X160093638Y-84772476D01*
X160284114Y-84724857D01*
X160617447Y-84724857D01*
X160807923Y-84772476D01*
X160903161Y-84867714D01*
X160950780Y-84962952D01*
X160950780Y-85153428D01*
X160950780Y-83772476D02*
X160950780Y-84343904D01*
X160950780Y-84058190D02*
X159950780Y-84058190D01*
X160093638Y-84153428D01*
X160188876Y-84248666D01*
X160236495Y-84343904D01*
%TO.C,Q3*%
X173285161Y-87292819D02*
X173189923Y-87245200D01*
X173094685Y-87149961D01*
X172951828Y-87007104D01*
X172856590Y-86959485D01*
X172761352Y-86959485D01*
X172808971Y-87197580D02*
X172713733Y-87149961D01*
X172618495Y-87054723D01*
X172570876Y-86864247D01*
X172570876Y-86530914D01*
X172618495Y-86340438D01*
X172713733Y-86245200D01*
X172808971Y-86197580D01*
X172999447Y-86197580D01*
X173094685Y-86245200D01*
X173189923Y-86340438D01*
X173237542Y-86530914D01*
X173237542Y-86864247D01*
X173189923Y-87054723D01*
X173094685Y-87149961D01*
X172999447Y-87197580D01*
X172808971Y-87197580D01*
X173570876Y-86197580D02*
X174189923Y-86197580D01*
X173856590Y-86578533D01*
X173999447Y-86578533D01*
X174094685Y-86626152D01*
X174142304Y-86673771D01*
X174189923Y-86769009D01*
X174189923Y-87007104D01*
X174142304Y-87102342D01*
X174094685Y-87149961D01*
X173999447Y-87197580D01*
X173713733Y-87197580D01*
X173618495Y-87149961D01*
X173570876Y-87102342D01*
%TO.C,J13*%
X141836876Y-47051980D02*
X141836876Y-47766266D01*
X141789257Y-47909123D01*
X141694019Y-48004361D01*
X141551161Y-48051980D01*
X141455923Y-48051980D01*
X142836876Y-48051980D02*
X142265447Y-48051980D01*
X142551161Y-48051980D02*
X142551161Y-47051980D01*
X142455923Y-47194838D01*
X142360685Y-47290076D01*
X142265447Y-47337695D01*
X143170209Y-47051980D02*
X143789257Y-47051980D01*
X143455923Y-47432933D01*
X143598780Y-47432933D01*
X143694019Y-47480552D01*
X143741638Y-47528171D01*
X143789257Y-47623409D01*
X143789257Y-47861504D01*
X143741638Y-47956742D01*
X143694019Y-48004361D01*
X143598780Y-48051980D01*
X143313066Y-48051980D01*
X143217828Y-48004361D01*
X143170209Y-47956742D01*
%TO.C,J14*%
X155044876Y-47204380D02*
X155044876Y-47918666D01*
X154997257Y-48061523D01*
X154902019Y-48156761D01*
X154759161Y-48204380D01*
X154663923Y-48204380D01*
X156044876Y-48204380D02*
X155473447Y-48204380D01*
X155759161Y-48204380D02*
X155759161Y-47204380D01*
X155663923Y-47347238D01*
X155568685Y-47442476D01*
X155473447Y-47490095D01*
X156902019Y-47537714D02*
X156902019Y-48204380D01*
X156663923Y-47156761D02*
X156425828Y-47871047D01*
X157044876Y-47871047D01*
%TO.C,J15*%
D13*
X167744876Y-46950380D02*
X167744876Y-47664666D01*
X167697257Y-47807523D01*
X167602019Y-47902761D01*
X167459161Y-47950380D01*
X167363923Y-47950380D01*
X168744876Y-47950380D02*
X168173447Y-47950380D01*
X168459161Y-47950380D02*
X168459161Y-46950380D01*
X168363923Y-47093238D01*
X168268685Y-47188476D01*
X168173447Y-47236095D01*
X169649638Y-46950380D02*
X169173447Y-46950380D01*
X169125828Y-47426571D01*
X169173447Y-47378952D01*
X169268685Y-47331333D01*
X169506780Y-47331333D01*
X169602019Y-47378952D01*
X169649638Y-47426571D01*
X169697257Y-47521809D01*
X169697257Y-47759904D01*
X169649638Y-47855142D01*
X169602019Y-47902761D01*
X169506780Y-47950380D01*
X169268685Y-47950380D01*
X169173447Y-47902761D01*
X169125828Y-47855142D01*
%TO.C,J11*%
D12*
X106175276Y-47051980D02*
X106175276Y-47766266D01*
X106127657Y-47909123D01*
X106032419Y-48004361D01*
X105889561Y-48051980D01*
X105794323Y-48051980D01*
X107175276Y-48051980D02*
X106603847Y-48051980D01*
X106889561Y-48051980D02*
X106889561Y-47051980D01*
X106794323Y-47194838D01*
X106699085Y-47290076D01*
X106603847Y-47337695D01*
X108127657Y-48051980D02*
X107556228Y-48051980D01*
X107841942Y-48051980D02*
X107841942Y-47051980D01*
X107746704Y-47194838D01*
X107651466Y-47290076D01*
X107556228Y-47337695D01*
%TO.C,R4*%
X92086133Y-59759180D02*
X91752800Y-59282990D01*
X91514704Y-59759180D02*
X91514704Y-58759180D01*
X91895657Y-58759180D01*
X91990895Y-58806800D01*
X92038514Y-58854419D01*
X92086133Y-58949657D01*
X92086133Y-59092514D01*
X92038514Y-59187752D01*
X91990895Y-59235371D01*
X91895657Y-59282990D01*
X91514704Y-59282990D01*
X92943276Y-59092514D02*
X92943276Y-59759180D01*
X92705180Y-58711561D02*
X92467085Y-59425847D01*
X93086133Y-59425847D01*
%TO.C,R9*%
X123734533Y-65351580D02*
X123401200Y-64875390D01*
X123163104Y-65351580D02*
X123163104Y-64351580D01*
X123544057Y-64351580D01*
X123639295Y-64399200D01*
X123686914Y-64446819D01*
X123734533Y-64542057D01*
X123734533Y-64684914D01*
X123686914Y-64780152D01*
X123639295Y-64827771D01*
X123544057Y-64875390D01*
X123163104Y-64875390D01*
X124210723Y-65351580D02*
X124401200Y-65351580D01*
X124496438Y-65303961D01*
X124544057Y-65256342D01*
X124639295Y-65113485D01*
X124686914Y-64923009D01*
X124686914Y-64542057D01*
X124639295Y-64446819D01*
X124591676Y-64399200D01*
X124496438Y-64351580D01*
X124305961Y-64351580D01*
X124210723Y-64399200D01*
X124163104Y-64446819D01*
X124115485Y-64542057D01*
X124115485Y-64780152D01*
X124163104Y-64875390D01*
X124210723Y-64923009D01*
X124305961Y-64970628D01*
X124496438Y-64970628D01*
X124591676Y-64923009D01*
X124639295Y-64875390D01*
X124686914Y-64780152D01*
%TO.C,R10*%
X123105942Y-70787180D02*
X122772609Y-70310990D01*
X122534514Y-70787180D02*
X122534514Y-69787180D01*
X122915466Y-69787180D01*
X123010704Y-69834800D01*
X123058323Y-69882419D01*
X123105942Y-69977657D01*
X123105942Y-70120514D01*
X123058323Y-70215752D01*
X123010704Y-70263371D01*
X122915466Y-70310990D01*
X122534514Y-70310990D01*
X124058323Y-70787180D02*
X123486895Y-70787180D01*
X123772609Y-70787180D02*
X123772609Y-69787180D01*
X123677371Y-69930038D01*
X123582133Y-70025276D01*
X123486895Y-70072895D01*
X124677371Y-69787180D02*
X124772609Y-69787180D01*
X124867847Y-69834800D01*
X124915466Y-69882419D01*
X124963085Y-69977657D01*
X125010704Y-70168133D01*
X125010704Y-70406228D01*
X124963085Y-70596704D01*
X124915466Y-70691942D01*
X124867847Y-70739561D01*
X124772609Y-70787180D01*
X124677371Y-70787180D01*
X124582133Y-70739561D01*
X124534514Y-70691942D01*
X124486895Y-70596704D01*
X124439276Y-70406228D01*
X124439276Y-70168133D01*
X124486895Y-69977657D01*
X124534514Y-69882419D01*
X124582133Y-69834800D01*
X124677371Y-69787180D01*
%TO.C,R11*%
X122902742Y-82420380D02*
X122569409Y-81944190D01*
X122331314Y-82420380D02*
X122331314Y-81420380D01*
X122712266Y-81420380D01*
X122807504Y-81468000D01*
X122855123Y-81515619D01*
X122902742Y-81610857D01*
X122902742Y-81753714D01*
X122855123Y-81848952D01*
X122807504Y-81896571D01*
X122712266Y-81944190D01*
X122331314Y-81944190D01*
X123855123Y-82420380D02*
X123283695Y-82420380D01*
X123569409Y-82420380D02*
X123569409Y-81420380D01*
X123474171Y-81563238D01*
X123378933Y-81658476D01*
X123283695Y-81706095D01*
X124807504Y-82420380D02*
X124236076Y-82420380D01*
X124521790Y-82420380D02*
X124521790Y-81420380D01*
X124426552Y-81563238D01*
X124331314Y-81658476D01*
X124236076Y-81706095D01*
%TO.C,R12*%
X122953542Y-76578380D02*
X122620209Y-76102190D01*
X122382114Y-76578380D02*
X122382114Y-75578380D01*
X122763066Y-75578380D01*
X122858304Y-75626000D01*
X122905923Y-75673619D01*
X122953542Y-75768857D01*
X122953542Y-75911714D01*
X122905923Y-76006952D01*
X122858304Y-76054571D01*
X122763066Y-76102190D01*
X122382114Y-76102190D01*
X123905923Y-76578380D02*
X123334495Y-76578380D01*
X123620209Y-76578380D02*
X123620209Y-75578380D01*
X123524971Y-75721238D01*
X123429733Y-75816476D01*
X123334495Y-75864095D01*
X124286876Y-75673619D02*
X124334495Y-75626000D01*
X124429733Y-75578380D01*
X124667828Y-75578380D01*
X124763066Y-75626000D01*
X124810685Y-75673619D01*
X124858304Y-75768857D01*
X124858304Y-75864095D01*
X124810685Y-76006952D01*
X124239257Y-76578380D01*
X124858304Y-76578380D01*
%TO.C,R14*%
X152981580Y-75725257D02*
X152505390Y-76058590D01*
X152981580Y-76296685D02*
X151981580Y-76296685D01*
X151981580Y-75915733D01*
X152029200Y-75820495D01*
X152076819Y-75772876D01*
X152172057Y-75725257D01*
X152314914Y-75725257D01*
X152410152Y-75772876D01*
X152457771Y-75820495D01*
X152505390Y-75915733D01*
X152505390Y-76296685D01*
X152981580Y-74772876D02*
X152981580Y-75344304D01*
X152981580Y-75058590D02*
X151981580Y-75058590D01*
X152124438Y-75153828D01*
X152219676Y-75249066D01*
X152267295Y-75344304D01*
X152314914Y-73915733D02*
X152981580Y-73915733D01*
X151933961Y-74153828D02*
X152648247Y-74391923D01*
X152648247Y-73772876D01*
%TO.C,R15*%
X163289580Y-82380057D02*
X162813390Y-82713390D01*
X163289580Y-82951485D02*
X162289580Y-82951485D01*
X162289580Y-82570533D01*
X162337200Y-82475295D01*
X162384819Y-82427676D01*
X162480057Y-82380057D01*
X162622914Y-82380057D01*
X162718152Y-82427676D01*
X162765771Y-82475295D01*
X162813390Y-82570533D01*
X162813390Y-82951485D01*
X163289580Y-81427676D02*
X163289580Y-81999104D01*
X163289580Y-81713390D02*
X162289580Y-81713390D01*
X162432438Y-81808628D01*
X162527676Y-81903866D01*
X162575295Y-81999104D01*
X162289580Y-80522914D02*
X162289580Y-80999104D01*
X162765771Y-81046723D01*
X162718152Y-80999104D01*
X162670533Y-80903866D01*
X162670533Y-80665771D01*
X162718152Y-80570533D01*
X162765771Y-80522914D01*
X162861009Y-80475295D01*
X163099104Y-80475295D01*
X163194342Y-80522914D01*
X163241961Y-80570533D01*
X163289580Y-80665771D01*
X163289580Y-80903866D01*
X163241961Y-80999104D01*
X163194342Y-81046723D01*
%TD*%
M02*
